<svg width="100" height="100" viewBox="0 0 100 100" fill="none" xmlns="http://www.w3.org/2000/svg">
<path d="M23.9225 29.0975C23.9225 29.0975 10.9316 34.0081 9.94066 39.4998C8.94975 44.9914 12.4061 58.2283 13.0724 60.5642C13.7387 62.9 23.7816 67.0282 42.4543 66.4447C61.127 65.8612 85.3298 58.1667 89.1678 55.0685C93.0058 51.9703 86.9454 44.4485 87.3058 41.4162C87.6661 38.3839 85.2947 28.9247 68.7031 26.2319C52.1114 23.5392 30.9462 25.6433 23.9225 29.0975Z" fill="#F2CE1E"/>
<path d="M12.88 37.5301C12.88 37.5301 13.1277 39.4198 17.2366 36.8639C21.3454 34.3081 23.8042 34.2648 23.8042 34.2648L19.9341 39.1008C25.2264 35.9158 30.9292 33.4696 36.884 31.83C43.913 29.7807 51.1952 28.7305 58.5166 28.7103C63.1115 28.6699 55.8157 26.6188 52.6383 26.2781C49.461 25.9373 64.9385 26.1231 71.2593 28.2897C76.5162 30.1026 80.9834 31.2924 84.2918 33.6045C81.6512 30.5495 76.9192 27.5461 68.7036 26.2093C52.1193 23.532 30.9463 25.636 23.9227 29.0902C21.3871 30.0846 18.9329 31.2755 16.5826 32.652C14.7211 34.3632 13.2034 36.113 12.88 37.5301Z" fill="#F8F4CF"/>
<path d="M80.907 42.9928L82.218 42.5863C82.218 42.5863 82.5272 47.809 77.6511 52.4381C72.775 57.0673 55.4496 61.3426 44.8999 60.9555C34.3502 60.5685 22.2243 59.1345 20.3682 57.9355C18.9079 56.9034 17.5312 55.758 16.2507 54.5097C16.2507 54.5097 17.1053 61.3303 35.7458 62.4845C35.7458 62.4845 23.525 65.5287 17.1062 61.292C10.6873 57.0553 12.0705 47.1382 15.2285 48.658C18.3866 50.1778 38.9106 57.0197 49.5197 55.815C60.1288 54.6104 72.1891 51.5549 75.4279 48.8795C77.4891 47.1499 79.3293 45.1727 80.907 42.9928Z" fill="#F8F4CF"/>
<path d="M38.5085 74.5873C38.5085 74.5873 54.075 77.2412 66.82 75.3809C79.565 73.5205 88.5024 70.0872 82.0064 69.2185C75.5105 68.3499 69.8352 70.0964 65.1855 70.8554C60.5358 71.6144 37.2373 73.2562 38.5085 74.5873Z" fill="#F2CE1E"/>
<path d="M25.2662 33.6163C25.2662 33.6163 10.9055 42.838 23.3334 48.476C35.7613 54.114 60.3897 54.2489 69.7412 50.1204C79.0926 45.9919 80.8443 39.3765 77.5916 35.9705C77.5916 35.9705 82.0585 36.8386 82.2179 42.5864C82.3773 48.3341 72.5014 55.9736 56.9886 57.3264C41.4759 58.6792 26.6262 56.4859 20.3259 53.4237C14.0257 50.3615 11.3972 39.0888 25.2662 33.6163Z" fill="#070400"/>
<path d="M48.0343 37.7523C48.0343 37.7523 43.8207 38.529 44.7879 40.4275C45.7551 42.3261 49.4111 40.8244 51.5966 40.009C53.7821 39.1936 51.5384 36.5306 48.0343 37.7523Z" fill="#070400"/>
<path d="M22.5343 58.2994C22.5343 58.2994 17.3754 55.8836 16.4121 53.8167C15.4487 51.7497 14.807 54.362 16.4874 56.8819C18.1677 59.4018 22.1601 61.9364 30.2467 62.558L39.7929 62.631C37.2566 61.7273 34.6649 60.9875 32.0337 60.4162C28.5731 59.7396 23.964 59.0597 22.5343 58.2994Z" fill="#070400"/>
<path d="M64.5681 29.5915C68.4786 29.681 78.0968 32.9647 81.815 34.7654C83.8127 35.8215 85.5975 37.2386 87.079 38.9451C86.887 38.1202 86.6023 37.3198 86.2302 36.5591C74.722 25.8644 64.5681 29.5915 64.5681 29.5915Z" fill="#070400"/>
</svg>
