<svg width="100" height="100" viewBox="0 0 100 100" fill="none" xmlns="http://www.w3.org/2000/svg">
<path d="M3.88969 33.7077C2.29752 41.2343 2.88695 48.2556 6.34686 59.1741C9.09489 67.8569 25.8815 89.4184 45.8373 97.0828C65.793 104.747 89.6679 92.7414 95.8912 69.595C102.114 46.4486 81.9367 24.8335 54.089 15.7678C30.0763 7.95028 17.4231 15.3238 12.8609 19.3818C7.64812 23.9989 5.30581 27.0156 3.88969 33.7077Z" fill="#F2CE1E"/>
<path d="M38.619 72.918C40.4904 75.3109 42.9258 77.2025 45.7072 78.4232C50.3 80.4446 59.3019 81.6008 67.6914 77.8413C67.6914 77.8413 52.2137 78.7065 46.7176 76.1032C41.2216 73.4999 38.619 72.918 38.619 72.918Z" fill="#BF9215"/>
<path d="M33.1076 63.9521C33.1076 63.9521 25.8816 61.6551 22.1155 47.1684C18.8087 34.4505 29.7701 24.7341 40.058 24.5963C50.3459 24.4584 61.4911 27.9193 69.1458 33.1336C76.8004 38.3478 87.9533 43.6923 88.8183 59.0288C89.4485 62.4287 89.1647 65.9351 87.996 69.1893C86.8272 72.4436 84.8155 75.329 82.1664 77.5505C82.1664 77.5505 92.5767 54.9783 74.06 42.6816C55.5434 30.3848 41.2139 29.3588 38.3204 35.4842L39.3308 28.9759C39.3308 28.9759 29.64 33.3097 27.1829 40.5453C24.7257 47.781 29.64 59.9016 33.1076 63.9521Z" fill="#BF9215"/>
<path d="M6.92855 55.2691C8.37528 55.9889 9.09486 57.1527 11.2688 58.3318C13.4427 59.511 6.78313 47.4745 14.8818 56.4483L16.3285 58.1864C16.3285 58.1864 10.1129 33.7306 21.97 24.1826C33.8271 14.6346 52.3514 17.5289 63.3052 23.0264C72.7358 27.743 85.764 36.9158 89.3311 39.4349C81.6764 29.083 68.9926 20.6375 54.1196 15.7908C30.1069 7.97323 17.4538 15.3467 12.8916 19.4048C7.67874 24.0371 5.33639 27.0616 3.92027 33.7306C2.3281 41.2572 2.91753 48.2785 6.37744 59.1971C7.33749 61.84 8.62318 64.353 10.2048 66.6777C9.07188 63.7069 5.70381 54.6642 6.92855 55.2691Z" fill="#F8F4CF"/>
<path d="M34.8451 2.74379C34.8451 2.74379 43.8164 -0.870214 57.2656 2.30735C70.7149 5.48491 87.7925 20.5381 88.9483 23.5779C88.9483 23.5779 89.6678 25.4614 87.3561 23.8688C85.0444 22.2762 78.8212 13.2795 64.9356 8.38683C64.9356 8.38683 60.1591 7.23065 60.8863 7.95039C61.6135 8.67013 74.3356 14.3208 76.9611 16.0589C79.5867 17.797 79.7091 18.356 75.8053 17.2151C71.9014 16.0742 63.5119 11.572 57.4341 8.96874C51.3562 6.36544 41.9563 4.62735 38.6342 4.77283C35.3121 4.91831 31.9516 4.62736 34.8451 2.74379Z" fill="#FFFEE5"/>
<path d="M56.4007 96.654C62.2111 95.8298 67.7307 93.5924 72.4755 90.1381C63.3556 91.4067 54.063 90.0522 45.6842 86.2331C37.7653 82.6196 30.2629 78.1549 23.3096 72.918C23.3096 72.918 18.1044 73.9363 15.5018 70.7511C13.703 68.5536 8.61263 61.0576 5.612 56.6167C5.85695 57.4513 6.10955 58.2935 6.37747 59.1741C9.12549 67.8568 25.9122 89.4183 45.8679 97.0828C53.9834 100.146 62.9347 100.16 71.0594 97.121L71.1895 96.9373C71.1895 96.9373 61.5829 97.8102 56.4007 96.654Z" fill="#F8F4CF"/>
<path d="M43.2117 42.0996C43.2117 42.0996 42.783 43.1103 43.9771 42.6815C45.1713 42.2527 46.7251 40.507 49.0369 41.6708C51.3486 42.8346 49.3277 47.0305 48.4628 49.7717C47.5978 52.5128 37.6084 66.7008 36.598 68.4389C35.5876 70.177 34.3016 71.1877 36.8889 73.033C39.4762 74.8782 44.8421 78.5305 46.4343 78.5305C48.0265 78.5305 51.0271 73.4694 51.6395 72.742C52.2518 72.0146 62.356 57.551 62.356 57.551C62.8067 57.19 63.3669 56.9933 63.9444 56.9933C64.5218 56.9933 65.0819 57.19 65.5327 57.551C67.1248 58.8526 69.8729 58.9981 71.3196 57.6964C72.7663 56.3948 74.504 54.3657 75.0857 52.4898C75.6675 50.6139 75.2311 48.1484 73.3481 46.9923C71.465 45.8361 69.2988 44.8177 69.1534 45.3996C69.0079 45.9816 72.4831 48.4624 72.6209 49.1591C72.7587 49.8559 71.4651 54.0824 70.0183 54.6567C69.1476 54.8993 68.2364 54.9606 67.3411 54.8368C66.4458 54.713 65.5854 54.4067 64.8131 53.937C63.9306 53.4404 62.8873 53.3138 61.9117 53.5851C60.9361 53.8563 60.1077 54.5032 59.608 55.3841C58.3067 57.551 52.9484 64.3502 51.9533 66.2337C50.9582 68.1173 46.1663 74.0513 44.8651 73.6149C43.5638 73.1784 40.0962 71.7313 40.234 69.8554C40.3718 67.9795 48.7689 56.0732 51.517 51.4791C54.265 46.8851 54.9922 40.4763 50.9429 38.7459C46.8935 37.0155 43.2117 42.0996 43.2117 42.0996Z" fill="#070400"/>
<path d="M41.497 30.8134C41.497 30.8134 38.8944 36.602 37.4477 38.0491C36.001 39.4962 32.9697 38.1946 37.1645 31.5408C37.1645 31.5408 40.4866 26.763 42.9438 27.6282C45.4009 28.4934 46.5644 30.6909 45.554 32.5515C45.554 32.5515 43.6709 33.1334 44.2527 31.6863C44.8344 30.2392 42.2242 29.3586 41.497 30.8134Z" fill="#070400"/>
<path d="M39.1854 92.3125C39.1854 92.3125 50.6138 97.0826 61.0318 94.4793C61.0318 94.4793 55.819 94.6248 54.2268 93.7596C52.6347 92.8944 55.0995 92.8867 57.2887 92.3125C59.4779 91.7382 57.5796 91.4396 51.2185 90.138C44.8575 88.8363 27.6345 78.1321 22.7202 71.3329C22.7202 71.3329 20.8371 71.1874 22.4293 73.3543C24.0215 75.5212 37.907 86.3708 39.9355 87.9711C41.964 89.5714 33.7123 87.3892 30.3825 84.204C27.6804 81.6236 13.0447 67.5734 5.63495 56.7314C5.86459 57.4971 6.10954 58.3317 6.40042 59.174C9.14844 67.8567 24.343 89.5637 45.8909 97.0827C48.854 98.169 51.9387 98.889 55.0765 99.2266L55.153 99.1117C55.153 99.1117 42.9438 95.781 39.1854 92.3125Z" fill="#070400"/>
<path d="M9.96751 56.8618C9.96751 56.8618 6.20138 46.7319 6.6377 36.7474C7.07402 26.763 11.8429 21.4339 16.3285 18.2257C16.3285 18.2257 12.2792 23.4323 11.1234 26.6482C9.96752 29.864 4.47147 48.3551 17.7753 61.5171C17.7753 61.5171 13.0064 52.2601 12.7155 47.4823C12.4246 42.7044 10.4191 23.3251 29.64 15.653C29.64 15.653 37.5013 10.9594 55.1071 16.1431C54.7626 16.0282 54.4258 15.921 54.089 15.7985C29.9309 7.2612 16.5812 15.2166 11.9884 19.267C6.78318 23.8994 5.01495 26.028 3.56822 32.7276C3.11106 35.6675 2.92909 38.6435 3.02472 41.6172C3.30794 43.0949 5.05321 52.4745 9.96751 56.8618Z" fill="#070400"/>
<path d="M72.2995 78.4234C74.5117 76.1263 76.6627 73.8982 78.6069 71.5323C79.5576 70.3689 80.4151 69.1323 81.1713 67.834C81.53 67.2119 81.8371 66.5615 82.0898 65.8892C82.3218 65.2328 82.4785 64.552 82.5568 63.8602C82.7253 62.3924 82.7253 60.91 82.5568 59.4422C82.4107 57.9294 82.1781 56.4262 81.8602 54.94C81.531 53.4087 81.156 51.9539 80.689 50.4761C80.2537 48.9806 79.6663 47.5335 78.9361 46.1577C80.0718 47.2915 81.0154 48.6027 81.7301 50.0397C82.4691 51.4646 83.0911 52.9473 83.5901 54.473C84.1007 56.0097 84.4772 57.5878 84.7154 59.1896C84.9826 60.833 85.0161 62.506 84.8149 64.1588C84.6965 65.0201 84.4809 65.8652 84.1719 66.6779C83.8675 67.4817 83.4801 68.2515 83.016 68.9749C82.132 70.3429 81.1057 71.6133 79.9542 72.765C77.6782 74.9982 75.1018 76.9027 72.2995 78.4234Z" fill="#070400"/>
<path d="M72.0239 86.9529C74.8791 84.1352 77.6424 81.2868 80.222 78.3084C82.8017 75.3299 85.2052 72.183 86.5907 68.7221C86.7285 68.2933 86.9275 67.8875 87.0271 67.4357L87.3103 66.0958C87.4306 65.1666 87.4894 64.2304 87.4864 63.2934C87.4699 61.3668 87.2674 59.4462 86.8816 57.5585C86.055 53.6835 84.9577 49.8713 83.5978 46.1499C85.803 49.5491 87.4974 53.2536 88.6269 57.145C89.214 59.1384 89.5609 61.1948 89.6603 63.2705C89.7967 65.4158 89.4785 67.5659 88.7264 69.5796C87.9048 71.5045 86.8481 73.3202 85.5803 74.9853C84.3354 76.6083 82.9798 78.1433 81.5233 79.5794C78.6511 82.3947 75.4635 84.8689 72.0239 86.9529Z" fill="#070400"/>
</svg>
