<svg width="100" height="100" viewBox="0 0 100 100" fill="none" xmlns="http://www.w3.org/2000/svg">
<path d="M53.3251 62.1043C61.9112 62.1043 68.8717 55.1419 68.8717 46.5534C68.8717 37.9648 61.9112 31.0024 53.3251 31.0024C44.7389 31.0024 37.7784 37.9648 37.7784 46.5534C37.7784 55.1419 44.7389 62.1043 53.3251 62.1043Z" fill="#F2CE1E"/>
<path d="M31.5554 45.0527C31.5202 48.0135 31.8284 50.9683 32.4739 53.858C33.068 56.6915 34.2265 59.3762 35.8803 61.7522C36.7087 62.9097 37.6839 63.9546 38.7814 64.8608C39.9017 65.7667 41.1246 66.5377 42.425 67.1578C45.1334 68.328 48.0032 69.0818 50.937 69.3936C47.8997 69.6776 44.8371 69.2908 41.9657 68.2604C40.5098 67.709 39.1368 66.9592 37.8858 66.0323C36.6516 65.0698 35.559 63.9382 34.6402 62.671C32.8696 60.1229 31.7261 57.1925 31.3028 54.1184C30.8269 51.1068 30.9126 48.0331 31.5554 45.0527Z" fill="#F2CE1E"/>
<path d="M35.459 56.0327C37.0868 58.1262 38.9866 59.9931 41.1081 61.5839C43.1513 63.1394 45.4984 64.248 47.9973 64.838C49.2526 65.1185 50.5399 65.2293 51.8247 65.1672C52.4654 65.1495 53.1044 65.0932 53.7383 64.9988C54.0598 64.9528 54.3737 64.8763 54.6875 64.815C55.0093 64.77 55.3268 64.6983 55.6367 64.6007C58.1888 63.8876 60.6419 62.8587 62.9393 61.5379C60.927 63.3978 58.5605 64.8327 55.9812 65.7568C53.329 66.7088 50.4657 66.9101 47.7065 66.3387C44.9725 65.7052 42.4441 64.388 40.358 62.5103C38.2918 60.716 36.6231 58.5097 35.459 56.0327Z" fill="#F2CE1E"/>
<path d="M63.6741 34.9766C66.3206 37.9361 67.7338 41.797 67.6234 45.7662C67.513 49.7354 65.8874 53.5116 63.0804 56.3194C60.2734 59.1271 56.4982 60.7532 52.5301 60.8637C48.562 60.9741 44.7022 59.5605 41.7435 56.9132C43.1517 58.488 44.8664 59.759 46.7825 60.6483C48.6986 61.5376 50.7759 62.0266 52.8875 62.0853C54.999 62.1441 57.1003 61.7714 59.0629 60.99C61.0255 60.2087 62.8081 59.0351 64.3017 57.541C65.7954 56.047 66.9686 54.2639 67.7498 52.3007C68.5309 50.3376 68.9035 48.2357 68.8448 46.1236C68.786 44.0115 68.2972 41.9336 67.4081 40.017C66.519 38.1003 65.2485 36.3852 63.6741 34.9766Z" fill="#BF9215"/>
<path d="M54.3354 33.3149C57.1301 33.3139 59.8734 34.0665 62.2765 35.4935C64.6797 36.9204 66.6539 38.9689 67.9914 41.4234C67.2829 39.3942 66.1615 37.534 64.6981 35.9601C63.2347 34.3862 61.461 33.1329 59.489 32.2792C57.5169 31.4255 55.3894 30.99 53.2407 31.0002C51.0919 31.0103 48.9686 31.4659 47.0047 32.3382C45.0408 33.2105 43.279 34.4806 41.8306 36.0683C40.3821 37.6559 39.2784 39.5267 38.5891 41.5625C37.8998 43.5982 37.6399 45.7548 37.8258 47.8962C38.0117 50.0375 38.6393 52.117 39.6691 54.0035C38.8484 51.6607 38.6009 49.1553 38.9473 46.6971C39.2938 44.2389 40.2241 41.8995 41.6604 39.875C43.0966 37.8505 44.997 36.1997 47.2023 35.061C49.4077 33.9223 51.8536 33.3288 54.3354 33.3302V33.3149Z" fill="#F8F4CF"/>
<path d="M43.4122 40.6958C44.0503 39.166 45.1127 37.8508 46.4741 36.9057C47.8444 35.9276 49.412 35.2612 51.0669 34.9532C51.8933 34.8111 52.7318 34.7521 53.5699 34.7771C53.991 34.7771 54.4043 34.7771 54.8177 34.8613C55.231 34.9455 55.6291 35.0068 56.0348 35.091C56.4378 35.1646 56.8326 35.2774 57.2136 35.4279C57.604 35.5581 57.979 35.7035 58.3541 35.8567C59.0852 36.2077 59.7866 36.6174 60.4515 37.0818C59.6248 37.0818 58.8517 36.9976 58.0862 36.9516L56.938 36.9133C56.5658 36.8905 56.1926 36.8905 55.8204 36.9133H54.7105C54.3431 36.9133 53.945 36.9669 53.6235 36.9899C53.2616 36.992 52.9005 37.0253 52.5442 37.0894C52.1921 37.143 51.8324 37.1736 51.4802 37.2426C50.0669 37.5041 48.6879 37.9254 47.3697 38.4983C45.9789 39.0936 44.6529 39.8299 43.4122 40.6958Z" fill="#BF9215"/>
</svg>
