<svg width="100" height="100" viewBox="0 0 100 100" fill="none" xmlns="http://www.w3.org/2000/svg">
<path d="M47.4206 69.5996C56.1293 69.5996 63.1892 62.5379 63.1892 53.8267C63.1892 45.1155 56.1293 38.0537 47.4206 38.0537C38.7118 38.0537 31.6519 45.1155 31.6519 53.8267C31.6519 62.5379 38.7118 69.5996 47.4206 69.5996Z" fill="#F2CE1E"/>
<path d="M72.734 63.5202C73.533 63.5202 74.1807 62.8723 74.1807 62.0731C74.1807 61.2738 73.533 60.626 72.734 60.626C71.935 60.626 71.2873 61.2738 71.2873 62.0731C71.2873 62.8723 71.935 63.5202 72.734 63.5202Z" fill="#F2CE1E"/>
<path d="M47.4206 38.0537C44.7681 38.0486 42.1573 38.714 39.8308 39.9884C37.5043 41.2628 35.5375 43.1046 34.1132 45.3429C32.6889 47.5812 31.8532 50.1433 31.6839 52.7911C31.5146 55.4389 32.017 58.0865 33.1446 60.4881C32.7313 57.7699 31.6673 46.0857 43.6621 43.4058C57.2568 40.3431 59.5762 51.6598 59.5762 51.6598C59.5762 51.6598 60.2957 45.5804 55.3814 42.1042C55.3814 42.1042 56.3459 41.4687 58.8031 42.9311C57.3355 41.3887 55.5696 40.161 53.6129 39.3225C51.6561 38.484 49.5493 38.0524 47.4206 38.0537Z" fill="#F8F4CF"/>
<path d="M62.8294 57.1655C57.785 66.5986 49.1888 67.1193 52.3425 65.9784C55.9555 64.6768 57.5477 60.0521 57.5477 60.0521C57.5477 60.0521 51.3321 66.7058 44.818 64.1025C38.3038 61.4992 35.1272 52.9619 35.1272 52.9619C34.9023 54.6393 34.8536 56.3355 34.9817 58.023C35.2421 61.4692 36.6926 64.7174 39.0846 67.2112C41.2269 68.5513 43.6603 69.3558 46.1791 69.5566C48.6979 69.7574 51.2279 69.3485 53.5554 68.3647C55.8829 67.3809 57.9394 65.851 59.5509 63.9043C61.1625 61.9577 62.2817 59.6515 62.8141 57.1808L62.8294 57.1655Z" fill="#070400"/>
<path d="M44.2436 31.6914C45.9613 31.2062 47.7406 30.9741 49.5253 31.0023C51.3316 31.0093 53.1305 31.233 54.8836 31.6684C56.6414 32.1295 58.3191 32.855 59.8591 33.82C61.3806 34.8087 62.6705 36.1146 63.6405 37.6484C62.2784 36.5871 60.8143 35.6637 59.2697 34.8919C57.7354 34.1767 56.1392 33.6026 54.5009 33.1768C52.842 32.76 51.1602 32.4405 49.4641 32.2197C47.7418 31.967 46.0118 31.8062 44.2436 31.6914Z" fill="#F2CE1E"/>
<path d="M35.5634 38.0537C34.3999 39.0491 33.3053 40.0368 32.2643 41.0705C31.2352 42.1013 30.269 43.1931 29.3708 44.3399C28.9116 44.8912 28.5212 45.5037 28.0925 46.0857C27.6639 46.6676 27.327 47.2955 26.9519 47.9386C26.1865 49.1943 25.6583 50.5496 25 51.9431C25.0112 50.399 25.307 48.8701 25.8726 47.4333C25.994 47.0632 26.1477 46.7045 26.3319 46.3613L26.8601 45.32C28.0353 43.3036 29.6115 41.5498 31.4912 40.167C32.7162 39.2323 34.094 38.5172 35.5634 38.0537Z" fill="#F2CE1E"/>
</svg>
