<svg width="100" height="100" viewBox="0 0 100 100" fill="none" xmlns="http://www.w3.org/2000/svg">
<path d="M43.1336 18.2891C43.1336 18.2891 25.4803 25.6483 12.4788 42.5731C12.4788 42.5731 8.31365 47.6025 9.88369 57.6613C11.4537 67.7201 15.275 75.566 24.2282 76.5459C33.1813 77.5259 56.2259 68.8169 63.9464 63.6707C71.6668 58.5244 80.2566 51.4054 83.9352 43.9229C87.6138 36.4405 79.8868 22.2153 70.3109 17.4325C60.7349 12.6497 46.0725 16.0827 43.1336 18.2891Z" fill="#F2CE1E"/>
<path d="M32.5908 40.2568C32.5908 40.2568 40.9276 32.041 50.7566 28.5756C50.7566 28.5756 58.8534 27.1024 61.429 26.6287C64.0047 26.1549 64.6145 22.3391 59.9563 22.4624C55.298 22.5857 37.3983 26.2653 25.5062 41.1004C23.6182 43.4561 21.9509 46.2531 21.9509 52.6324C21.9509 59.0116 21.7044 52.1392 21.7044 52.1392C21.7044 52.1392 22.9305 57.1686 24.6433 60.1084C24.2369 56.4011 24.7493 52.6507 26.1354 49.1885C27.5215 45.7263 29.7386 42.6587 32.5908 40.2568Z" fill="#977514"/>
<path d="M38.2287 14C38.2287 14 22.7813 25.5255 17.9998 30.4316C13.2183 35.3377 8.19026 45.5198 6.471 45.6431C4.75174 45.7664 7.94374 35.461 12.7252 29.4517C17.5067 23.4423 27.8093 14 38.2287 14Z" fill="#F8F4CF"/>
<path d="M70.3498 17.4325C60.7868 12.6497 46.0725 16.0827 43.1011 18.2891C43.1011 18.2891 25.4478 25.6483 12.4463 42.5731C12.4463 42.5731 8.28117 47.6025 9.85121 57.6613C10.2592 60.3541 10.8885 63.0087 11.7327 65.598L11.4407 63.7875C11.4407 63.7875 8.37847 45.1494 34.6151 26.3881C52.2878 13.7464 72.893 17.6791 79.4846 26.6282C80.1791 27.5893 80.9704 28.4766 81.8461 29.276C79.225 24.3374 75.008 19.7623 70.3498 17.4325Z" fill="#F8F4CF"/>
<path d="M30.5343 85.0865C33.817 85.1856 37.101 84.9354 40.3308 84.3402C43.5562 83.7799 46.7436 83.0192 49.8744 82.0624C56.1076 80.078 62.1381 77.5052 67.8845 74.3787C73.6162 71.3266 78.7328 67.2384 82.975 62.3211C87.231 57.3955 90.6046 51.7107 93.615 45.8052L93.9199 45.9285C91.8493 52.3372 88.7056 58.3476 84.6229 63.7034C82.5394 66.3898 80.1729 68.844 77.5642 71.0236C74.9401 73.1771 72.1159 75.0743 69.1301 76.689C67.6444 77.4937 66.1392 78.2335 64.6276 78.9474L62.3244 79.9728C61.5524 80.3102 60.7998 80.6736 60.0018 80.9591C56.879 82.2047 53.6806 83.2516 50.4258 84.0936C47.1672 84.9181 43.8479 85.4802 40.4995 85.7744C38.8252 85.9139 37.1447 85.9659 35.465 85.9302C33.7857 85.9083 32.1118 85.7368 30.463 85.4175L30.5343 85.0865Z" fill="#F2CE1E"/>
<path d="M64.0955 51.4059C64.0955 51.4059 69.37 47.3565 69.4933 41.4704C69.6166 35.5844 63.7322 34.2345 57.1082 35.5844C50.4841 36.9342 48.1615 39.264 46.6888 37.3041C45.2161 35.3443 43.7433 32.6381 44.9695 31.6582C46.1957 30.6783 54.0524 26.9987 59.314 26.3887C51.6255 27.3694 44.298 30.2339 37.9822 34.7277C27.9326 42.0869 30.5018 46.0066 30.9949 47.2332C31.4879 48.4597 34.6734 50.426 39.0851 51.1269C43.4968 51.8278 45.5729 52.8466 46.4423 55.5398C47.3116 58.233 48.3886 60.6925 44.8462 61.4258C41.3039 62.1592 34.0571 60.9391 34.0571 60.9391C34.0571 60.9391 36.0034 65.352 38.8386 67.4287C38.8386 67.4287 36.5094 63.7491 38.352 63.6323C40.1945 63.5155 45.0928 63.9957 47.5451 62.9833C49.9975 61.971 52.0866 58.9339 49.1412 53.898C49.1412 53.898 47.915 50.8284 41.9073 49.232C35.8996 47.6355 32.3443 45.4356 32.7141 43.5925C33.0839 41.7495 36.0229 36.3566 40.5578 34.3968C40.5578 34.3968 43.0102 39.4262 44.3597 40.4061C45.7091 41.386 48.2523 40.776 51.1005 39.7572C53.9486 38.7383 61.0332 35.4676 63.4856 37.3041C65.938 39.1407 68.2671 42.3335 65.5682 45.8898C62.8693 49.4461 63.1158 50.3027 64.0955 51.4059Z" fill="#1C1C04"/>
<path d="M79.0563 40.7368C79.0563 40.7368 71.2061 54.2221 56.4984 61.8279C41.7906 69.4337 38.8386 67.4673 38.8386 67.4673L35.7764 62.6845C35.7764 62.6845 44.2105 62.8078 44.8593 62.8078C45.5081 62.8078 49.524 61.458 49.524 61.458C49.524 61.458 68.1439 52.0157 79.0563 40.7368Z" fill="#F8F4CF"/>
<path d="M63.4857 37.421C61.0333 35.5844 53.9227 38.8941 51.1005 39.874C48.2783 40.8539 45.7092 41.4705 44.3597 40.523C43.0102 39.5755 40.5579 34.5137 40.5579 34.5137C40.2361 34.6524 39.9221 34.8083 39.6171 34.9809C40.7201 35.5325 41.9073 37.9466 41.9073 40.523C41.9073 43.8327 42.5172 44.3259 44.9696 44.8126C47.4219 45.2993 52.3267 42.2168 58.8274 41.0097C65.3282 39.8026 63.1159 47.0191 62.7201 48.6155C62.5449 49.3748 62.9602 49.6019 63.4338 49.6344C63.596 48.8751 64.2058 47.8043 65.5423 46.0391C68.2672 42.4504 65.9381 39.264 63.4857 37.421Z" fill="#F8F4CF"/>
<path d="M32.7206 43.6764C32.4351 45.0976 34.4982 46.7394 38.2222 48.1477L38.1119 48.0958C38.1119 48.0958 34.8031 45.8828 35.7828 42.4498C36.5029 39.9384 37.4242 36.6092 39.3057 35.1426C35.4844 37.4529 33.045 42.015 32.7206 43.6764Z" fill="#F8F4CF"/>
<path d="M22.165 49.8096C22.165 49.8096 23.0279 59.0053 25.4803 60.8418C25.4803 60.8483 20.4522 59.7256 22.165 49.8096Z" fill="#1C1C04"/>
</svg>
