<svg width="100" height="100" viewBox="0 0 100 100" fill="none" xmlns="http://www.w3.org/2000/svg">
<path d="M70.3943 42.7494C70.3943 42.7494 64.1022 30.7053 51.7322 28.6456C46.5653 27.7804 39.148 26.2566 31.5545 34.9394C31.5545 34.9394 23.1956 44.4874 32.8558 59.6861C35.8105 64.3338 42.8069 69.0121 52.3829 69.885C52.3829 69.885 62.6937 69.5557 67.0263 63.0475C67.0263 63.0475 72.5606 53.2774 68.1132 44.6712C68.1132 44.6712 64.4237 38.6989 61.9283 36.0956C61.9283 36.0956 70.8306 43.0403 72.2391 46.4016L70.3943 42.7494Z" fill="#F2CE1E"/>
<path d="M27 35.8582C28.5466 32.9646 30.6514 30.4064 33.1926 28.3316C35.7469 26.2003 38.7236 24.6346 41.9266 23.7375C45.1531 22.8782 48.5333 22.7682 51.8088 23.4159C55.0254 24.0691 58.0914 25.3182 60.8489 27.0989C57.8882 25.8901 54.7905 25.0492 51.6251 24.5951C50.0686 24.4041 48.4978 24.358 46.9328 24.4573C45.3788 24.547 43.839 24.8037 42.34 25.2229C39.311 26.0702 36.459 27.4552 33.9198 29.3117C31.3307 31.1742 29.0033 33.376 27 35.8582Z" fill="#F2CE1E"/>
<path d="M41.4291 46.7385C42.8664 46.7385 44.0317 45.2576 44.0317 43.4308C44.0317 41.604 42.8664 40.123 41.4291 40.123C39.9917 40.123 38.8265 41.604 38.8265 43.4308C38.8265 45.2576 39.9917 46.7385 41.4291 46.7385Z" fill="#553713"/>
<path d="M71.9712 45.9498L70.3637 42.7186C70.3637 42.7186 64.0716 30.6745 51.7016 28.6148C46.5347 27.7496 39.1173 26.2259 31.5239 34.9087C31.5239 34.9087 27 40.0924 28.462 48.8976C28.9213 45.3755 30.3451 34.4263 43.4116 31.7618C52.7503 29.8552 59.9763 34.1124 65.0437 40.1C64.084 38.6979 63.0303 37.3626 61.89 36.1032C61.89 36.1032 70.0575 42.4506 71.9712 45.9498Z" fill="#FFFFAA"/>
<path d="M52.3829 69.8542C52.3829 69.8542 62.6937 69.5249 67.0263 63.0167C67.0263 63.0167 71.0144 55.9801 69.4987 48.6143C69.4987 48.7751 69.4987 48.9435 69.4987 49.1273C69.3533 63.0167 59.9457 69.234 48.6627 67.7869C42.539 67.0212 36.1856 61.96 31.5928 57.4885C31.9832 58.2006 32.3583 58.9127 32.8635 59.6554C35.8105 64.303 42.8375 68.9813 52.3829 69.8542Z" fill="#FFFFAA"/>
<path d="M32.8558 72.3502C35.1434 73.4403 37.5863 74.1687 40.0972 74.5095C42.5768 74.8563 45.0857 74.9436 47.5834 74.7698L49.4588 74.632L51.3266 74.364C52.5819 74.2568 53.799 73.9046 55.0544 73.7132C56.3097 73.5218 57.5115 73.1083 58.7592 72.825C60.007 72.5417 61.2087 72.1053 62.4718 71.8066C61.3389 72.4192 60.1754 72.9781 59.0042 73.5371C57.833 74.096 56.6006 74.4865 55.3529 74.8694C52.8639 75.6343 50.2957 76.1121 47.6982 76.2935C45.0768 76.4712 42.4435 76.2623 39.8828 75.6733C37.3129 75.1305 34.9062 73.9923 32.8558 72.3502Z" fill="#F2CE1E"/>
</svg>
