<svg width="100" height="100" viewBox="0 0 100 100" fill="none" xmlns="http://www.w3.org/2000/svg">
<path d="M85.0495 33.4707C88.4252 40.247 89.2443 50.3998 81.7197 67.1605C74.1952 83.9212 54.9284 88.5995 45.85 87.9946C36.7715 87.3897 14.4658 81.6318 11.4039 57.758C8.34208 33.8841 23.5136 19.1755 29.0556 15.3624C35.5774 10.8985 69.8627 2.94313 85.0495 33.4707Z" fill="#FBD021"/>
<path d="M45.8499 88.0176C54.959 88.5995 74.1722 83.9672 81.7197 67.1835C85.7154 58.2787 87.3535 51.2421 87.5143 45.5837C83.7405 36.9009 78.4818 29.5811 77.4943 29.4279C76.9508 29.359 85.5164 47.2223 75.1979 60.3537C75.1979 60.3537 63.9149 72.727 54.2624 72.727C44.6099 72.727 28.4356 64.0442 23.881 57.8575C23.881 57.8575 23.5519 68.7072 40.484 74.7025C57.4161 80.6977 72.5035 72.3059 72.5035 72.3059C72.5035 72.3059 66.9692 89.1508 35.3936 81.2031C35.3936 81.2031 20.5359 74.6948 17.3899 68.5081C16.0744 66.1927 14.3557 64.1313 12.3148 62.421C17.4588 82.4128 37.3609 87.4816 45.8499 88.0176Z" fill="#FFFDE4"/>
<path d="M46.2327 41.9316C46.2327 41.9316 49.5931 45.6221 52.4177 46.0586C55.2423 46.495 55.4795 44.3205 56.4287 43.8917C57.3779 43.4629 58.2735 39.1139 57.4085 38.0266C56.5435 36.9393 53.497 35.8598 53.497 35.8598C53.497 35.8598 58.8553 34.6653 59.3605 39.4431C59.8657 44.221 59.3605 44.5425 61.3124 45.3005C63.2643 46.0586 67.6045 48.3633 65.9741 49.8563C64.3437 51.3494 58.595 51.8088 58.595 51.8088C58.595 51.8088 44.9467 45.737 46.2327 41.9316Z" fill="#FFFDE4"/>
<path d="M81.7198 67.1832C87.6904 53.8681 88.4023 44.7259 86.7565 38.1334C84.5673 33.7997 74.1569 16.5949 47.5799 17.9884C47.5799 17.9884 36.2587 18.1339 28.4433 29.129C20.6278 40.1242 30.2268 50.9815 32.5385 52.5664C32.5385 52.5664 26.1775 43.3094 29.0709 34.1902C31.9644 25.0709 42.9565 20.8827 51.9201 21.1736C60.8838 21.4646 71.7381 24.4967 76.0859 29.129C79.067 32.4883 81.1902 36.5198 82.274 40.8787C83.3578 45.2377 83.3698 49.7944 82.3092 54.1591C82.3092 54.1591 79.4157 64.1129 70.299 67.0378C70.299 67.0378 77.5327 61.9766 79.2703 53.1484C79.2703 53.1484 73.4833 64.1435 62.2004 67.3287C50.9174 70.5139 30.6631 65.0317 25.0216 48.2327C25.0216 48.2327 21.1177 37.8119 22.7252 31.7324C22.7252 31.7324 18.385 38.2483 25.3278 56.1881C25.3278 56.1881 17.6731 46.9234 17.6731 38.5316C17.6731 38.5316 13.1186 51.6247 32.217 67.2215L32.7069 67.6197C52.3794 83.3926 72.5112 70.514 75.818 68.9213C79.1248 67.3287 76.683 71.984 75.2363 73.6992C73.7895 75.4143 67.1147 81.8 53.3669 82.5198C39.6191 83.2395 26.7516 76.7312 21.9827 72.252C17.2139 67.7728 11.2662 59.3733 12.866 47.3598C12.866 47.3598 13.5932 38.1028 14.4582 40.1242C15.3232 42.1456 13.1569 58.2095 34.7507 72.8263C34.7507 72.8263 45.0156 77.1677 49.3558 77.1677C49.3558 77.1677 36.1974 73.5537 31.4209 69.3578C31.4209 69.3578 15.5069 59.6566 15.6523 37.3754C15.6523 37.3754 17.5354 26.8167 25.3431 19.4356C28.2371 16.7556 31.5263 14.5372 35.0952 12.8584C32.9869 13.403 30.9701 14.2543 29.1092 15.3851C23.5672 19.2135 8.44161 33.9069 11.4575 57.7807C11.8572 61.057 12.7153 64.2608 14.0066 67.2981C19.1352 73.1709 26.897 80.797 34.3144 83.1017C46.1868 86.7846 53.8185 86.6085 67.6428 82.4432C73.8422 78.9886 78.7747 73.6415 81.7198 67.1832Z" fill="#070400"/>
<path d="M46.6613 42.4447C46.6382 42.3896 46.6072 42.338 46.5695 42.2916L46.5159 42.2227L46.5771 42.2992L46.7073 42.4601L46.9675 42.774L47.511 43.3942C47.8784 43.8076 48.2765 44.2135 48.6286 44.6116C49.3941 45.3773 50.1595 46.1889 50.9939 46.9086C51.7942 47.6308 52.6461 48.2936 53.5429 48.8917C54.4245 49.4717 55.3762 49.9374 56.3751 50.2776C57.3751 50.6309 58.4176 50.8498 59.4753 50.9284C60.5075 51.0122 61.5463 50.9005 62.5371 50.5992C62.7272 50.5358 62.9096 50.451 63.0806 50.3465C63.1208 50.3158 63.1515 50.2743 63.1691 50.2269C63.1867 50.1795 63.1905 50.128 63.1801 50.0785C63.1 49.6392 62.8861 49.2354 62.5677 48.9224C62.2297 48.54 61.8284 48.2188 61.3813 47.9729C60.8891 47.744 60.3766 47.5621 59.8503 47.4293C58.6941 47.2356 57.5587 46.9331 56.4593 46.5258C56.2937 46.4551 56.137 46.3651 55.9924 46.2578C55.7861 46.0997 55.6316 45.8838 55.5484 45.6376C55.5177 45.4731 55.5177 45.3044 55.5484 45.1399L55.6403 44.8796L55.8163 44.4508C56.0536 43.9225 56.2756 43.4248 56.4746 42.9194C56.8813 41.993 57.0523 40.9802 56.9722 39.9716C56.8907 39.5778 56.7027 39.2139 56.4287 38.9195C56.1547 38.6252 55.8052 38.4118 55.4183 38.3024C53.6424 37.7129 51.4608 38.2258 49.7079 39.1753C48.8354 39.6242 48.0561 40.2348 47.4115 40.9746C47.1504 41.2835 46.9457 41.636 46.8068 42.0159C46.7643 42.1577 46.7411 42.3045 46.7379 42.4524C46.7297 42.5134 46.7297 42.5752 46.7379 42.6361C46.7416 42.6133 46.7416 42.59 46.7379 42.5672C46.7209 42.5216 46.6949 42.48 46.6613 42.4447ZM44.0205 43.8229C43.9579 43.6452 43.9067 43.4636 43.8674 43.2793L43.8215 43.0037C43.8181 42.9424 43.8181 42.8811 43.8215 42.8199C43.8021 42.5983 43.8021 42.3754 43.8215 42.1538C43.8729 41.7369 43.9838 41.3295 44.1506 40.944C44.4505 40.2753 44.8679 39.6659 45.383 39.1447C46.3051 38.2236 47.3934 37.4857 48.5903 36.9701C49.7425 36.4549 50.9703 36.1292 52.2263 36.0054C53.5268 35.8617 54.8426 36.046 56.0536 36.5413C56.3598 36.7021 56.6583 36.8629 56.9492 37.0467C57.2356 37.2687 57.4928 37.5259 57.7147 37.8124C58.1885 38.3796 58.4723 39.0813 58.5261 39.8185C58.574 41.0854 58.2946 42.3434 57.7147 43.4708C57.4621 44.0067 57.1789 44.5197 56.9109 45.0021L56.7272 45.3466L56.666 45.4844C56.666 45.4844 56.666 45.4156 56.666 45.4079C56.7489 45.5072 56.8537 45.5858 56.9722 45.6376C57.9713 46.0959 59.0119 46.4575 60.08 46.7172C60.6653 46.8205 61.2395 46.9794 61.7946 47.1919C62.3615 47.4441 62.8797 47.794 63.3256 48.2256C63.5615 48.4556 63.7696 48.7126 63.9456 48.9913C64.1626 49.29 64.3044 49.6367 64.3589 50.002C64.395 50.2325 64.3778 50.4683 64.3088 50.6912C64.2399 50.9142 64.1208 51.1184 63.9609 51.2883C63.8767 51.3649 63.7925 51.4415 63.7006 51.5104C63.6291 51.5601 63.555 51.6061 63.4786 51.6482C63.3362 51.7328 63.1878 51.807 63.0347 51.8702C60.723 52.7256 58.1975 52.8142 55.8316 52.1229C54.6526 51.8221 53.5159 51.3745 52.4483 50.7906C51.4039 50.2144 50.4035 49.5617 49.4553 48.8381C48.5138 48.1337 47.6182 47.3833 46.7455 46.6024C46.3092 46.2119 45.8806 45.8367 45.4596 45.4156L44.8319 44.7954L44.518 44.4814L44.3649 44.3206L44.2884 44.244L44.1965 44.1369L44.0205 43.8229Z" fill="#070400"/>
<path d="M85.5547 72.6122C86.5144 72.6122 87.2923 71.2992 87.2923 69.6796C87.2923 68.06 86.5144 66.7471 85.5547 66.7471C84.5951 66.7471 83.8171 68.06 83.8171 69.6796C83.8171 71.2992 84.5951 72.6122 85.5547 72.6122Z" fill="#E1CA46"/>
<path d="M96.1871 86.3561C96.8677 86.3561 97.4195 85.8042 97.4195 85.1234C97.4195 84.4425 96.8677 83.8906 96.1871 83.8906C95.5064 83.8906 94.9547 84.4425 94.9547 85.1234C94.9547 85.8042 95.5064 86.3561 96.1871 86.3561Z" fill="#E1CA46"/>
<path d="M29.0709 15.3854C25.9469 17.6618 23.1676 20.3773 20.8192 23.448C23.4448 21.4802 37.9351 11.3733 54.6682 14.5126C68.6609 17.1771 77.1116 23.3025 81.8499 27.9885C65.5072 3.96915 35.1564 11.1895 29.0709 15.3854Z" fill="#FFFDE4"/>
<path d="M53.9486 27.1307C53.9486 27.1307 33.5489 27.7126 32.8294 45.507C32.8294 45.507 30.3493 35.8365 37.4605 30.1934C40.7367 27.5289 47.978 24.627 53.9486 27.1307Z" fill="#AE8400"/>
</svg>
