<svg width="100" height="100" viewBox="0 0 100 100" fill="none" xmlns="http://www.w3.org/2000/svg">
<path d="M40.7382 31.1486C35.7857 32.6799 28.5826 38.5297 29.0189 47.6489C29.7155 62.281 42.7973 73.8351 60.4031 67.9011C70.5761 64.4862 73.1098 50.3364 66.9095 40.4132C64.1931 36.1833 60.1473 32.9773 55.4092 31.3C50.6712 29.6228 45.5099 29.5695 40.7382 31.1486Z" fill="#F2CE1E"/>
<path d="M40.7382 33.0323C45.5108 31.4499 50.6742 31.5016 55.4143 33.179C60.1543 34.8565 64.2013 38.0644 66.9172 42.297C68.9375 45.5546 70.0843 49.2782 70.247 53.1083C70.4322 48.6387 69.2722 44.2163 66.9172 40.4134C64.2004 36.1819 60.1533 32.9748 55.4136 31.2974C50.6739 29.62 45.5109 29.5677 40.7382 31.1487C35.7857 32.6801 28.5826 38.5298 29.0189 47.649C29.0189 47.695 29.0189 47.7486 29.0189 47.7945C29.5165 39.6783 36.1071 34.487 40.7382 33.0323Z" fill="#F9FCAF"/>
<path d="M40.1565 61.1018C47.9719 67.6177 59.829 64.4325 62.0029 56.1861C62.0029 56.1861 54.3482 63.8429 46.3797 58.7894C38.4112 53.7359 35.6632 41.8603 36.8267 37.9553C36.8267 37.9553 39.7201 30.1378 47.681 31.2939C55.6418 32.4501 59.829 36.7991 59.829 36.7991C59.829 36.7991 59.1477 33.6599 53.8889 30.8192C49.5661 29.6518 44.9973 29.7662 40.7382 31.1485C38.2957 31.9833 36.0666 33.3452 34.2088 35.1376C32.6974 36.6051 31.6064 38.4506 31.0491 40.4824C30.4918 42.5142 30.4886 44.6582 31.0397 46.6917C32.429 52.3599 35.63 57.4195 40.1565 61.1018Z" fill="#070400"/>
</svg>
