<svg width="100" height="100" viewBox="0 0 100 100" fill="none" xmlns="http://www.w3.org/2000/svg">
<path d="M64.8638 90.7652C57.7761 92.3697 50.3927 91.8412 43.586 89.2421C31.8762 84.4597 20.218 71.3231 16.6705 60.6387C16.6705 60.6387 9.16325 39.803 16.9869 23.5061C16.9869 23.5061 29.8154 -0.0178138 57.467 3.32534C57.467 3.32534 83.757 5.80796 95.3343 36.5665C95.3343 36.5665 102.532 56.8615 90.9183 72.2979C86.0607 78.8167 77.685 87.4982 64.8638 90.7652Z" fill="#F2CE1E"/>
<path d="M95.3269 36.5821C91.5512 26.5527 86.2079 19.5389 80.7246 14.627C81.8728 15.655 83.0136 16.7745 84.1397 18.0006C78.7197 12.6557 72.1664 8.69688 65.0037 6.44043C69.3755 8.25289 75.661 11.3295 79.157 15.2134C80.2633 16.6511 81.274 18.165 82.1819 19.7445C82.9179 21.2676 75.0869 17.4599 74.1522 17.8026C74.1522 17.8026 87.4002 25.4637 91.8824 36.3689C95.5624 45.2332 96.4162 57.9433 93.7666 67.7824C101.215 53.1913 95.3269 36.5821 95.3269 36.5821Z" fill="#F2CE1E"/>
<path d="M58.0484 22.0823C55.6039 22.1733 53.1675 22.4277 50.7547 22.8438C48.373 23.2285 46.0319 23.8455 43.7626 24.6867C42.6358 25.0975 41.5388 25.5912 40.4801 26.1641C39.411 26.7187 38.385 27.3577 37.4109 28.0756C35.4351 29.5414 33.6728 31.293 32.178 33.2769C33.2268 30.908 34.7731 28.8111 36.7044 27.1389C38.6485 25.4493 40.8695 24.1339 43.2622 23.255C44.4514 22.8235 45.6658 22.4699 46.898 22.1965C48.1269 21.9352 49.3709 21.7572 50.6222 21.6634C53.1042 21.4361 55.605 21.5772 58.0484 22.0823Z" fill="#6B4600"/>
<path d="M37.882 17.9849L35.4238 20.2695C34.6142 21.031 33.7972 21.7926 33.0244 22.5541C32.2496 23.3225 31.5127 24.1307 30.8164 24.9758C30.1021 25.821 29.4732 26.7396 28.9396 27.7173C29.2059 26.5917 29.6781 25.5293 30.3306 24.5874C30.9776 23.6379 31.7175 22.76 32.5387 21.9677C33.3332 21.1676 34.1817 20.427 35.0779 19.7516C35.9612 19.0796 36.8995 18.4884 37.882 17.9849Z" fill="#CE970F"/>
<path d="M62.5748 67.4927C64.0984 66.7311 64.724 67.7744 66.3285 68.2085C67.9329 68.6426 69.5227 67.9191 70.9873 65.1624C72.452 62.4056 69.4565 59.6945 68.3451 58.7578C67.2337 57.8211 61.596 53.5794 61.8756 52.2086C62.4154 50.7649 63.096 49.3819 63.907 48.0811C63.6126 48.0811 62.9796 48.2562 62.0155 49.4061C60.6244 51.0587 58.9758 54.4094 62.987 58.3314C66.586 61.8421 69.4417 64.2104 66.8142 65.0938C64.1867 65.9772 61.7358 64.5912 61.3163 66.1676C61.044 67.2185 59.8443 69.5641 57.9601 70.2647C58.4941 70.3676 59.0362 70.4186 59.5793 70.417C61.5297 70.3941 61.044 68.2771 62.5748 67.4927Z" fill="#F8F4CF"/>
<path d="M71.7528 44.502C72.7243 45.6519 74.8808 45.6519 75.8523 45.0732C76.8238 44.4944 77.523 41.9813 77.2433 40.6867C76.9636 39.3921 73.004 35.9347 72.0913 35.1503C70.9891 34.2133 69.9535 33.1953 68.9928 32.1042C68.2298 31.8087 67.4113 31.6993 66.6008 31.7843C66.0703 31.9229 65.5764 32.1821 65.155 32.543C64.7336 32.904 64.3952 33.3576 64.1646 33.8709C63.8849 34.6325 66.3211 34.1603 67.3662 34.2365C68.4113 34.3126 70.3544 35.5996 72.0913 37.6863C73.2984 39.1408 75.6389 42.0803 74.0417 43.4435C73.0187 44.3192 71.5246 43.8166 70.5678 43.3369C70.9937 43.6901 71.3901 44.0799 71.7528 44.502Z" fill="#F8F4CF"/>
<path d="M9.9949 74.6816C11.7758 77.4298 13.7435 80.0434 15.8829 82.5026C17.9942 84.9143 20.3069 87.1288 22.794 89.1204C23.3948 89.6372 24.0239 90.1177 24.6781 90.5597L26.6138 91.9305C27.9681 92.7453 29.2929 93.6211 30.7281 94.3065C33.5972 95.7566 36.5636 96.9909 39.6042 97.9999C36.3301 97.9001 33.0956 97.2307 30.0362 96.0199C28.4811 95.4225 26.9707 94.7072 25.5172 93.88C24.0851 93.0195 22.7106 92.0604 21.4029 91.009C18.7839 88.9128 16.4646 86.4438 14.514 83.6754C12.5356 80.9578 11.0084 77.9183 9.9949 74.6816Z" fill="#A8A239"/>
<path d="M55.2663 93.7888C55.2663 93.7888 40.2445 93.5755 27.9386 80.4085C19.999 72.9347 14.2827 63.2741 11.4595 52.5591C11.4595 52.5591 8.32417 39.9327 11.7687 30.543C11.7687 30.543 7.69857 36.6886 7.07297 47.807C7.07297 47.807 7.91201 66.3734 15.3162 75.984C15.3162 75.984 24.5972 90.4532 40.3402 94.8778C45.3226 95.8614 50.4666 95.4861 55.2663 93.7888Z" fill="#D9C936"/>
<path d="M5.29922 42.522C5.08578 46.3297 4.75458 50.0536 4.56322 53.8004C4.43074 55.6661 4.37186 57.5319 4.30562 59.4053C4.23938 61.2787 4.23938 63.1597 4.15106 65.0788C3.62973 63.2416 3.2967 61.3527 3.15746 59.4434C3.04706 58.4838 3.06178 57.5319 3.01762 56.5724C2.97346 55.6128 3.01762 54.6609 3.09122 53.709C3.2002 51.8015 3.43132 49.9037 3.78306 48.0279C4.11799 46.1469 4.62568 44.3032 5.29922 42.522Z" fill="#A8A239"/>
<path d="M18.7092 25.3033C18.7092 25.3033 31.5376 1.77172 59.1892 5.12249C59.1892 5.12249 72.3489 6.37902 84.147 18.0001C71.9368 4.71887 57.4596 3.37856 57.4596 3.37856C29.8154 0.0354093 16.9796 23.5593 16.9796 23.5593C9.15586 39.8563 16.6631 60.692 16.6631 60.692C18.6576 66.6853 23.1988 73.4554 28.8733 79.0831C24.0084 73.8437 20.1738 67.8504 18.3853 62.474C18.3927 62.4359 10.8855 41.6002 18.7092 25.3033Z" fill="#FFFFD3"/>
<path d="M38.0586 61.6211C38.0586 61.6211 37.3226 61.8419 37.433 63.5706C37.5434 65.2993 46.611 71.879 52.2414 73.3869C57.8718 74.8947 61.3163 72.6253 61.2132 72.1989C61.2132 72.1989 47.6561 69.3964 44.1086 65.939C40.561 62.4816 38.0586 61.6211 38.0586 61.6211Z" fill="#FFEDC3"/>
<path d="M45.2567 38.958C45.2567 38.958 42.3127 37.3359 41.9153 38.7447C41.5178 40.1536 44.0055 42.0879 43.4829 44.5705C42.9604 47.0531 38.7873 58.1716 38.1617 59.8013C37.5361 61.431 37.8452 62.7104 41.8417 65.6271C45.8382 68.5437 53.6177 72.1001 57.9086 72.6408C62.1995 73.1815 61.2427 71.5594 61.6622 71.2396C62.0817 70.9197 61.8683 70.3714 64.4811 70.5923C67.0939 70.8131 68.3377 70.6989 70.634 68.8636C72.9304 67.0283 74.3876 65.0559 74.3876 63.6851C74.3876 62.3144 70.634 57.4253 69.1694 56.0164C67.7048 54.6076 64.7902 51.3787 65.3127 50.1907C65.8353 49.0027 67.403 46.383 68.3377 46.0936C69.2724 45.8042 70.8401 47.9213 71.7822 48.2487C72.4368 48.6944 73.2099 48.9164 73.9928 48.8836C74.7758 48.8509 75.5291 48.5649 76.1467 48.066C76.1467 48.066 78.4577 46.0555 79.2894 44.3268C80.1211 42.5981 79.5028 39.5063 78.0382 38.1355C76.5736 36.7647 69.5521 29.8652 68.5143 30.4363C67.4766 31.0075 71.2228 34.3278 72.1281 35.1198C73.0334 35.9118 76.9931 39.3616 77.2801 40.6562C77.5672 41.9508 76.868 44.4639 75.8891 45.0427C74.9102 45.6214 72.7611 45.6214 71.7896 44.4715C70.818 43.3216 69.2871 41.8823 67.8961 42.5981C66.5051 43.314 62.1921 50.876 61.9124 52.2392C61.6327 53.6024 67.2705 57.8517 68.3819 58.7884C69.4932 59.7251 72.4814 62.459 71.0241 65.193C69.5668 67.9269 67.9623 68.6504 66.3652 68.2391C64.7681 67.8279 64.1572 66.716 62.6116 67.5233C61.066 68.3305 61.5665 70.3943 59.6161 70.4704C57.6657 70.5466 53.2202 69.0997 52.521 68.7417C51.8218 68.3838 49.8788 67.805 50.3719 66.2972C50.865 64.7894 53.3601 61.0426 52.315 61.4005C51.2698 61.7584 49.187 65.2082 48.9073 65.5052C48.6276 65.8022 47.3764 66.5866 45.2273 64.9264C43.0781 63.2663 41.5473 61.9793 42.2833 59.748C43.0193 57.5167 45.4849 49.1702 45.9633 46.1469C46.4417 43.1236 47.3396 41.0827 45.2567 38.958Z" fill="#2D0D00"/>
<path d="M63.8923 27.8394C63.8923 27.8394 58.468 36.1173 58.0485 36.9779C57.6289 37.8384 56.1717 39.5671 54.3684 39.5671C52.5652 39.5671 49.3563 38.2725 49.2164 37.7013C49.0766 37.1302 52.3518 37.054 53.3896 36.6199C54.4273 36.1859 57.6363 31.0759 58.8139 29.3549C59.9915 27.6338 60.7643 25.1816 62.7809 25.3949C64.7976 25.6081 63.8923 27.8394 63.8923 27.8394Z" fill="#2D0D00"/>
<path d="M90.6312 73.2806C103.776 56.2297 95.3269 36.582 95.3269 36.582C95.0619 35.8738 94.7823 35.2036 94.4952 34.5259C95.2312 38.5239 96.1586 44.1365 95.4299 50.1831C94.9993 53.8478 94.0881 57.4346 92.7215 60.8447L93.1336 53.3968L92.3976 43.9004C92.3976 43.9004 92.1915 56.085 90.7269 60.5248C89.2623 64.9646 82.8002 73.6918 82.8002 73.6918C76.4411 87.1863 55.4724 86.2115 55.4724 86.2115C63.8187 86.1049 70.3912 80.3857 70.3912 80.3857C60.8232 85.884 52.3591 83.1577 47.0231 80.7056C24.4868 70.341 22.1978 47.137 22.1978 47.137C19.6954 24.702 32.8698 13.812 32.8698 13.812C32.8698 13.812 22.2346 21.039 18.6871 32.1575C18.0215 29.9484 17.9831 27.5879 18.5767 25.3569C18.5767 25.3569 12.9463 36.9095 17.1047 55.4758C17.1047 55.4758 22.1095 77.926 44.8519 87.3157C52.6419 90.4598 61.2054 90.9139 69.2651 88.6103C79.5691 85.6251 86.355 78.8322 90.6312 73.2806Z" fill="#070400"/>
<path d="M22.2051 47.1597C22.2051 47.1597 24.4941 70.3638 47.0305 80.7284C47.7665 81.0634 48.5466 81.4061 49.3857 81.726C41.0468 78.1544 37.6097 72.3134 37.6097 72.3134L37.1901 71.8869C23.5447 58.0193 22.8307 38.9351 23.3459 30.147C21.8855 35.6846 21.4978 41.4665 22.2051 47.1597Z" fill="#F8EFB6"/>
<path d="M77.5893 75.9078C80.7108 73.584 83.3676 70.6565 85.4129 67.2871C86.4439 65.6464 87.3307 63.9133 88.0626 62.1087C88.4211 61.2222 88.7355 60.3173 89.0046 59.3976C89.1445 58.9407 89.2402 58.4837 89.3506 58.0192L89.6229 56.5799C89.956 54.6694 90.1698 52.7387 90.2632 50.7998C90.3414 48.8807 90.2453 46.9583 89.9762 45.0578C89.4288 41.2573 88.1794 37.6014 86.2961 34.2897C82.7695 27.3869 77.406 21.6735 70.8401 17.8252C64.0837 14.055 56.493 12.1754 48.819 12.3726C56.6779 10.9543 64.7689 12.1236 71.9515 15.7157C73.7489 16.6257 75.4719 17.6852 77.1035 18.8837C78.7313 20.0986 80.2712 21.4348 81.7109 22.8818C84.5365 25.8202 86.9518 29.1524 88.8869 32.7818C90.902 36.4389 92.2024 40.4703 92.7141 44.6466C93.1475 48.7971 92.8533 52.9945 91.8456 57.0368L91.4702 58.5599C91.323 59.0625 91.1832 59.588 90.9992 60.083C90.6578 61.0649 90.252 62.0216 89.7848 62.9464C88.8722 64.7804 87.7954 66.5218 86.5685 68.1477C84.1774 71.4001 81.1082 74.0526 77.5893 75.9078Z" fill="#070400"/>
</svg>
