<svg width="35" height="35" viewBox="0 0 35 35" fill="none" xmlns="http://www.w3.org/2000/svg">
<path fillRule="evenodd" clipRule="evenodd" d="M33.7695 10.1298C34.6901 9.20919 34.6901 7.71651 33.7695 6.79586L28.0664 1.09276C27.1457 0.172102 25.6531 0.172101 24.7324 1.09276L19.0293 6.79586C18.1086 7.71651 16.616 7.71651 15.6953 6.79586L9.99221 1.09276C9.07155 0.172102 7.57888 0.172101 6.65822 1.09276L0.955119 6.79586C0.0344637 7.71651 0.0344615 9.20919 0.955118 10.1298L6.65822 15.8329C7.57887 16.7536 7.57888 18.2463 6.65822 19.1669L0.955121 24.87C0.0344637 25.7907 0.0344617 27.2834 0.955118 28.204L6.65822 33.9071C7.57887 34.8278 9.07155 34.8278 9.99221 33.9071L15.6953 28.204C16.616 27.2834 18.1086 27.2834 19.0293 28.204L24.7324 33.9071C25.6531 34.8278 27.1457 34.8278 28.0664 33.9071L33.7695 28.204C34.6901 27.2834 34.6901 25.7907 33.7695 24.87L28.0664 19.1669C27.1457 18.2463 27.1457 16.7536 28.0664 15.8329L33.7695 10.1298Z" fill="black"/>
</svg>
