<svg width="93" height="72" viewBox="0 0 93 72" fill="none" xmlns="http://www.w3.org/2000/svg">
<path d="M10.5282 3.50928H8.77344V10.5281H10.5282V3.50928Z" fill="black"/>
<path d="M52.6414 0H50.8867V14.0377H52.6414V0Z" fill="black"/>
<path d="M31.5848 3.50928H29.8301V10.5281H31.5848V3.50928Z" fill="black"/>
<path d="M73.6981 3.50928H71.9434V10.5281H73.6981V3.50928Z" fill="black"/>
<path d="M21.0565 0H19.3018V14.0377H21.0565V0Z" fill="black"/>
<path d="M63.1698 3.50928H61.415V10.5281H63.1698V3.50928Z" fill="black"/>
<path d="M42.1131 3.50928H40.3584V10.5281H42.1131V3.50928Z" fill="black"/>
<path d="M15.7928 3.50928H14.0381V10.5281H15.7928V3.50928Z" fill="black"/>
<path d="M57.9061 3.50928H56.1514V10.5281H57.9061V3.50928Z" fill="black"/>
<path d="M36.8494 0H35.0947V14.0377H36.8494V0Z" fill="black"/>
<path d="M78.9617 3.50928H77.207V10.5281H78.9617V3.50928Z" fill="black"/>
<path d="M26.3211 3.50928H24.5664V10.5281H26.3211V3.50928Z" fill="black"/>
<path d="M68.4344 0H66.6797V14.0377H68.4344V0Z" fill="black"/>
<path d="M47.3778 3.50928H45.623V10.5281H47.3778V3.50928Z" fill="black"/>
<mask id="mask0_294_10566" style="mask-type:alpha" maskUnits="userSpaceOnUse" x="0" y="22" width="93" height="26">
<path d="M0 22.8115H93V47.3776H0V22.8115Z" fill="white"/>
</mask>
<g mask="url(#mask0_294_10566)">
<path d="M29.8301 40.207V31.585H35.8558V32.5112H31.047V35.4245H35.4043V36.3507H31.047V40.207H29.8301Z" fill="black"/>
<path d="M44.5349 31.585H45.7518V37.2937C45.7518 37.8831 45.5899 38.4093 45.266 38.8724C44.9455 39.3327 44.4924 39.6962 43.9068 39.9628C43.3213 40.2266 42.6343 40.3585 41.8459 40.3585C41.0575 40.3585 40.3706 40.2266 39.785 39.9628C39.1994 39.6962 38.7447 39.3327 38.4209 38.8724C38.1003 38.4093 37.94 37.8831 37.94 37.2937V31.585H39.1569V37.2095C39.1569 37.6305 39.2649 38.0052 39.4808 38.3335C39.6967 38.6591 40.0042 38.9159 40.4033 39.104C40.8056 39.2892 41.2865 39.3818 41.8459 39.3818C42.4053 39.3818 42.8862 39.2892 43.2886 39.104C43.6909 38.9159 43.9984 38.6591 44.2111 38.3335C44.427 38.0052 44.5349 37.6305 44.5349 37.2095V31.585Z" fill="black"/>
<path d="M56.1508 31.585V40.207H54.9732L49.497 33.4373H49.3989V40.207H48.182V31.585H49.3596L54.8554 38.3714H54.9535V31.585H56.1508Z" fill="black"/>
<path fillRule="evenodd" clipRule="evenodd" d="M66.8464 36.9138L65.9847 40.1296L66.8392 40.3585L67.7042 37.1304L69.3852 40.042L70.1513 39.5997L68.4718 36.6908L71.7146 37.5597L71.9435 36.7052L68.7089 35.8385L71.6083 34.1645L71.166 33.3984L68.2536 35.0799L69.1287 31.8139L68.2743 31.585L67.4025 34.8386L65.7283 31.9388L64.9622 32.3811L66.6379 35.2836L63.3989 34.4157L63.1699 35.2702L66.4171 36.1402L63.5051 37.8214L63.9474 38.5875L66.8464 36.9138Z" fill="black"/>
<path fillRule="evenodd" clipRule="evenodd" d="M19.3022 29.8301C19.3022 32.7374 16.9454 35.0942 14.0381 35.0942C16.9454 35.0942 19.3022 37.4511 19.3022 40.3584C19.3022 37.4511 21.6591 35.0942 24.5664 35.0942C21.6591 35.0942 19.3022 32.7374 19.3022 29.8301Z" fill="black"/>
</g>
<path fillRule="evenodd" clipRule="evenodd" d="M78.0848 25.4433H9.6508V44.7452H78.0848V25.4433ZM8.77344 24.5659V45.6225H78.9621V24.5659H8.77344Z" fill="black"/>
<path d="M18.9692 64.1376C19.6544 64.8229 19.6544 65.9339 18.9692 66.6192L15.7323 69.8561C15.047 70.5414 13.936 70.5414 13.2507 69.8561L10.0138 66.6192C9.32856 65.9339 9.32856 64.8229 10.0138 64.1376L13.2507 60.9007C13.936 60.2155 15.047 60.2155 15.7323 60.9007L18.9692 64.1376Z" fill="black"/>
<path d="M50.8867 68.4338C50.8867 69.4029 50.1011 70.1885 49.132 70.1885L42.1131 70.1885C41.144 70.1885 40.3584 69.4029 40.3584 68.4338L40.3584 61.4149C40.3584 60.4458 41.144 59.6602 42.1131 59.6602L49.132 59.6602C50.1011 59.6602 50.8867 60.4458 50.8867 61.4149L50.8867 68.4338Z" fill="black"/>
<path d="M78.9619 65.3506C78.9619 68.2579 76.6051 70.6147 73.6978 70.6147C70.7905 70.6147 68.4336 68.2579 68.4336 65.3506C68.4336 62.4433 70.7905 60.0864 73.6978 60.0864C76.6051 60.0864 78.9619 62.4433 78.9619 65.3506Z" fill="black"/>
</svg>
