<svg width="608" height="609" viewBox="0 0 608 609" fill="none" xmlns="http://www.w3.org/2000/svg">
<path fillRule="evenodd" clipRule="evenodd" d="M3.86956 1.52699C2.5873 1.52699 1.54782 2.55248 1.54782 3.81749V19.3603H0V3.81749C0 1.70915 1.73246 0 3.86956 0H20.4359V1.52699H3.86956Z" fill="#F1D51A"/>
<path fillRule="evenodd" clipRule="evenodd" d="M3.86956 606.833C2.5873 606.833 1.54782 605.808 1.54782 604.543V589H0V604.543C0 606.651 1.73246 608.36 3.86956 608.36H20.4359V606.833H3.86956Z" fill="#F1D51A"/>
<path fillRule="evenodd" clipRule="evenodd" d="M603.566 606.833C604.848 606.833 605.888 605.808 605.888 604.543V589H607.436V604.543C607.436 606.651 605.703 608.36 603.566 608.36H587V606.833H603.566Z" fill="#F1D51A"/>
<path fillRule="evenodd" clipRule="evenodd" d="M603.566 1.52699C604.848 1.52699 605.888 2.55248 605.888 3.81749V19.3603H607.436V3.81749C607.436 1.70915 605.703 0 603.566 0H587V1.52699H603.566Z" fill="#F1D51A"/>
<path d="M12.3691 14.8427C12.3691 13.1794 13.7175 11.8311 15.3807 11.8311H19.8981V19.3601H12.3691V14.8427Z" fill="#F1D51A"/>
<path d="M12.3691 589H19.8981V596.529H15.3807C13.7175 596.529 12.3691 595.181 12.3691 593.518V589Z" fill="#F1D51A"/>
<path d="M587 11.8311H591.517C593.181 11.8311 594.529 13.1794 594.529 14.8427V19.3601H587V11.8311Z" fill="#F1D51A"/>
<path d="M587 589H594.529V593.518C594.529 595.181 593.181 596.529 591.517 596.529H587V589Z" fill="#F1D51A"/>
</svg>
