<svg width="487" height="534" viewBox="0 0 487 534" fill="none" xmlns="http://www.w3.org/2000/svg">
<path d="M362.44 313.914C362.44 313.914 361.866 315.07 358.972 316.211C356.079 317.351 350.146 321.708 348.256 321.854C346.365 321.999 343.663 320.843 344.788 326.05C345.913 331.256 351.586 349.64 353.897 353.836C356.209 358.032 356.791 358.752 356.959 362.519C357.128 366.286 357.25 384.945 358.551 385.665C359.853 386.385 359.853 378.008 360.289 375.826C360.725 373.644 361.59 346.309 361.881 345.008C362.172 343.706 363.335 312.03 362.44 313.914Z" fill="#F2CE1E"/>
<path d="M469.022 125.304C469.022 125.304 469.244 138.543 474.664 141.582C480.083 144.622 480.956 142.67 482.479 146.789C484.002 150.908 484.867 160.464 482.915 159.162C480.964 157.861 481.385 151.567 476.401 152.218C471.418 152.869 466.856 153.956 465.118 152.432C463.381 150.908 461 137.241 463.817 132.249C466.634 127.257 467.292 121.828 469.022 125.304Z" fill="#F2CE1E"/>
<path fillRule="evenodd" clipRule="evenodd" d="M484.456 153.43C484.704 154.014 484.431 154.688 483.848 154.936C482.824 155.371 481.632 156.225 480.384 157.334C479.149 158.432 477.922 159.723 476.829 160.969C475.737 162.211 474.79 163.394 474.116 164.267C473.779 164.703 473.511 165.06 473.328 165.308C473.236 165.431 473.166 165.527 473.119 165.592L473.066 165.665L473.054 165.683L473.05 165.687C473.05 165.687 473.05 165.687 473.05 165.687C472.682 166.204 471.964 166.323 471.448 165.954C470.932 165.586 470.813 164.868 471.181 164.352L472.116 165.02C471.181 164.352 471.181 164.353 471.181 164.352L471.188 164.344L471.203 164.323C471.216 164.304 471.236 164.277 471.261 164.242C471.312 164.172 471.386 164.071 471.482 163.941C471.673 163.682 471.951 163.312 472.299 162.862C472.994 161.963 473.972 160.741 475.104 159.452C476.233 158.166 477.529 156.799 478.858 155.618C480.173 154.448 481.585 153.402 482.95 152.822C483.534 152.574 484.208 152.846 484.456 153.43Z" fill="#1C1C04"/>
<path d="M308.222 379.915C308.222 379.915 310.97 377.893 312.562 378.468C314.154 379.042 314.437 383.391 311.796 383.536C309.156 383.682 306.048 381.63 308.222 379.915Z" fill="#F2CE1E"/>
<path d="M304.027 505.348C304.558 505.15 305.124 505.06 305.69 505.084C306.257 505.108 306.813 505.244 307.326 505.486C308.773 506.359 309.355 507.951 307.908 507.951C306.461 507.951 302.435 507.37 304.027 505.348Z" fill="#F2CE1E"/>
<path d="M297.084 521.259C297.084 521.259 298.669 521.113 301.562 520.968C304.456 520.822 306.775 520.83 306.92 522.997C307.066 525.164 304.456 527.338 300.843 527.047C297.23 526.756 294.313 522.277 297.084 521.259Z" fill="#F2CE1E"/>
<path d="M469.673 139.844C469.673 139.844 467.507 140.388 468.701 142.991C469.895 145.594 470.653 144.186 472.168 146.054C473.684 147.922 474.342 144.316 473.699 142.693C473.056 141.069 470.109 139.492 469.673 139.844Z" fill="#070C00"/>
<path d="M388.542 292.206C388.542 292.206 387.999 291.556 391.902 288.301C395.806 285.047 397.98 285.484 397.651 287.98C397.322 290.476 393.533 313.584 392.01 317.076C390.486 320.567 387.999 322.719 384.738 322.719C381.477 322.719 380.512 315.23 380.405 311.234C380.298 307.237 376.93 297.229 374.871 301.678C372.812 306.126 369.336 326.945 369.122 335.322C368.908 343.698 369.122 372.258 369.122 377.319C369.122 382.38 366.366 392.51 365.356 395.55C364.346 398.59 363.909 407.563 363.618 414.363C363.328 421.162 364.055 440.396 364.055 446.919C364.055 453.443 366.948 476.727 363.764 477.883C360.58 479.039 358.406 478.029 358.122 471.804C357.839 465.579 358.704 409.294 358.704 409.294C358.704 409.294 358.559 397.724 360.87 391.5C363.182 385.275 363.335 360.681 363.335 360.681L363.909 334.778C363.909 334.778 365.356 314.809 367.239 310.039C369.122 305.269 368.104 299.036 371.87 295.131C375.636 291.226 385.756 286.165 385.756 289.197C385.756 292.229 384.99 304.679 384.738 309.312C384.485 313.944 385.174 318.285 386.184 317.734C387.195 317.183 390.961 311.662 389.805 310.215C388.649 308.768 386.743 308.332 387.509 304.71C388.274 301.088 389.874 291.196 388.542 292.206Z" fill="#F2CE1E"/>
<path d="M344.673 312.466C345.439 311.984 363.619 302.918 365.211 303.209C366.803 303.5 364.782 307.543 360.296 310.154C355.811 312.765 347.896 320.276 344.834 320.276C341.772 320.276 341.504 317.213 337.746 320.422C333.987 323.63 334.416 333.591 329.326 335.184C324.235 336.777 321.51 335.475 315.295 338.943C309.079 342.412 302.994 345.605 301.838 358.085C300.682 370.566 303.139 391.362 301.401 394.838C299.664 398.314 297.352 395.412 297.352 394.072C297.352 392.732 297.207 375.696 294.03 367.013C290.853 358.33 282.066 340.1 279.869 339.962C277.672 339.824 283.046 351.102 284.638 353.851C286.23 356.6 294.765 374.394 294.765 382.641C294.765 390.887 296.648 410.427 294.045 411.736C291.443 413.046 291.443 404.355 291.58 402.617C291.718 400.879 292.162 382.503 290.279 375.818C288.396 369.134 280.328 353.392 279.433 353.392C278.537 353.392 276.975 354.402 276.539 367.174C276.103 379.945 277.121 408.413 277.305 415.067C277.488 421.721 280.481 434.745 276.286 436.338C272.092 437.93 269.635 435.472 270.216 423.03C270.798 410.588 269.925 385.55 269.635 371.515C269.344 357.48 267.338 344.717 264.858 342.144C262.378 339.571 258.933 336.501 256.178 340.842C253.422 345.184 254.302 388.314 254.302 388.314C254.302 388.314 255.022 441.996 255.167 448.221C255.313 454.446 255.458 459.943 251.845 460.227C248.232 460.51 246.632 457.049 247.788 447.21C248.944 437.371 249.097 413.206 249.097 413.206L249.526 372.832L250.682 344.877C250.682 344.877 251.845 338.798 250.398 337.787C248.952 336.777 221.9 334.893 220.744 336.486C219.588 338.078 218.57 339.089 218.134 346.179C217.698 353.269 218.279 375.987 215.838 378.736C213.396 381.484 207.884 379.746 208.03 376.278C208.175 372.809 205.856 350.811 204.968 347.182C204.08 343.553 200.015 336.922 196.257 337.037C192.498 337.152 190.47 337.902 188.304 341.371C186.137 344.839 184.392 349.188 181.79 347.45C179.187 345.712 180.779 339.028 178.46 335.59C176.14 332.152 175.398 331.532 171.953 328.645C168.509 325.758 160.816 320.988 172.39 322.42C183.964 323.852 268.586 329.219 284.913 322.711C301.241 316.203 337.585 317.129 344.673 312.466Z" fill="#F2CE1E"/>
<path d="M484.682 144.018C481.078 143.444 483.623 156.459 482.137 161.091C480.652 165.723 480.658 165.723 479.385 169.191C478.113 172.659 478.965 179.91 477.479 182.206C475.994 184.503 471.756 185.391 470.697 182.788C469.637 180.185 474.06 181.632 475.36 179.312C476.661 176.993 476.207 167.737 476.207 164.559C476.207 161.382 475.573 157.324 471.123 156.452C466.672 155.579 460.954 163.687 460.954 163.687C454.172 172.659 454.172 187.42 453.106 190.306C452.041 193.193 449.082 190.888 449.508 185.713C449.934 180.537 453.319 144.623 451.84 159.682C450.36 174.742 430.023 232.873 424.305 242.114C418.588 251.355 421.979 253.973 422.186 256.576C422.394 259.179 423.868 266.996 423.868 270.181C423.868 273.366 428.952 273.075 432.131 269.599C435.309 266.123 431.705 277.416 431.918 280.884C432.131 284.352 431.284 314.164 430.858 326.896C430.432 339.628 433.403 345.699 436.155 346.863C438.908 348.027 440.606 341.649 440.606 332.967C440.606 324.285 441.24 289.857 441.24 277.416C441.24 264.975 442.299 264.102 445.477 258.605C448.656 253.108 448.869 244.717 448.656 239.511C448.443 234.305 450.988 233.723 452.68 228.509C454.373 223.296 455.646 215.494 456.072 207.678C456.498 199.861 459.435 178.746 460.097 175.27C460.758 171.794 462.849 180.193 462.002 183.952C461.156 187.711 462.002 252.243 461.576 261.499C461.15 270.755 464.121 273.649 466.453 272.784C468.785 271.919 467.933 264.975 467.087 258.023C466.24 251.072 466.464 237.773 466.907 232.873C467.35 227.974 467.12 205.098 467.12 199.892C467.12 194.685 469.873 192.657 471.778 190.628C473.684 188.599 477.076 187.734 479.626 184.84C482.177 181.946 481.958 176.158 482.378 173.846C482.799 171.534 485.136 163.717 485.983 158.534C486.829 153.351 488.281 144.6 484.682 144.018ZM469.217 179.611C467.944 179.029 468.37 169.482 468.791 164.85C469.211 160.218 470.063 159.353 470.063 159.353C474.727 157.332 474.727 168.617 473.667 174.114C472.608 179.611 470.489 180.193 469.217 179.611Z" fill="#F2CE1E"/>
<path d="M310.679 373.958C310.679 373.958 309.378 376.133 307.617 374.976C305.856 373.82 305.321 361.96 306.316 357.902C307.311 353.844 310.074 345.888 315.432 343.576C320.791 341.264 326.57 342.129 329.892 341.983C333.214 341.838 334.814 335.621 335.105 334.893C335.396 334.166 338.863 322.451 340.746 322.16C342.629 321.869 342.048 325.636 342.048 327.948C342.048 330.261 342.331 337.068 343.778 338.515C345.224 339.962 346.074 342.129 346.074 347.052C346.074 351.975 346.794 355.298 348.24 357.465C349.687 359.632 352.29 362.098 353.308 366.148C354.326 370.199 355.91 401.163 355.91 401.163L356.347 463.948C356.347 463.948 355.329 480.877 356.775 483.626C358.222 486.375 361.552 484.062 362.853 482.615C364.154 481.168 364.154 485.219 361.116 486.375C358.077 487.531 354.027 488.396 353.162 477.401C352.297 466.406 353.736 426.759 353.736 426.759L351.325 377.618C351.325 377.618 350.169 367.343 346.84 362.304C343.51 357.266 342.79 355.069 342.354 349.862C341.918 344.656 342.645 342.045 340.915 339.587C339.185 337.129 337.585 336.524 336.575 338.431C335.564 340.337 334.11 345.23 328.92 345.23C323.73 345.23 320.094 343.783 317.055 345.666C314.016 347.55 311.154 353.882 310.824 360.36C310.495 366.837 312.271 372.947 310.679 373.958Z" fill="#F2CE1E"/>
<path d="M54.34 232.493C54.34 232.493 56.9374 245.087 54.8919 249.859C52.8465 254.631 57.2815 263.977 57.6516 265.946C58.0218 267.914 62.2555 298.517 61.3334 312.413C60.4113 326.309 57.84 339.554 63.1775 341.729C68.5151 343.905 68.6969 339.776 69.2489 336.298C69.8008 332.82 68.3268 308.506 69.4307 301.995C70.5345 295.484 68.6969 285.487 71.0865 280.929C73.4761 276.371 74.0345 263.992 74.0345 261.779C74.0345 259.565 75.8721 253.965 77.8981 257.006C79.924 260.047 84.7096 278.938 84.7096 292.619C84.7096 306.3 88.7615 329.097 87.8395 342.342C86.9174 355.587 84.8914 367.529 86.1836 373.826C87.4758 380.123 93.3588 378.169 93.3588 378.169C93.856 381.324 94.1641 384.516 94.2809 387.722C94.651 394.455 92.9822 404.008 97.4107 402.491C101.839 400.974 101.092 382.727 101.092 379.908C101.092 377.089 100.911 311.731 100.911 311.731C100.911 311.731 102.93 292.404 105.878 293.278C108.826 294.151 113.975 306.951 114.32 317.592C114.664 328.232 113.768 335.838 115.423 341.262C117.079 346.685 119.319 344.74 120.027 348.21C120.735 351.68 115.605 355.809 115.975 358.636C116.345 361.462 118.573 370.126 118.573 373.405C118.573 376.683 115.443 391.023 117.651 397.504C119.858 403.985 124.092 401.633 124.28 396.853C124.469 392.073 123.358 368.41 125.196 367.973C127.034 367.537 138.637 362.328 139.553 358.421C140.468 354.514 142.871 359.723 142.15 367.1C141.429 374.477 139.761 386.427 142.52 391.858C145.28 397.289 148.78 397.067 149.696 403.586C150.611 410.105 150.247 418.348 150.247 425.518C150.247 432.688 146.384 450.483 151.722 455.263C157.059 460.043 158.533 455.477 158.533 455.477C158.533 455.477 154.118 455.048 153.566 452.658C153.014 450.268 155.403 452.222 157.429 450.268C159.455 448.315 158.351 437.023 158.351 437.023V376.423C158.351 376.423 159.819 350.585 162.033 350.378C164.247 350.171 167.923 352.982 169.948 349.29C171.974 345.598 171.786 340.389 172.89 338.435C173.994 336.482 177.305 334.092 178.598 337.562C179.89 341.032 180.987 354.499 181.195 359.716C181.403 364.932 181.007 374.914 185.059 378.82C189.11 382.727 190.214 378.384 191.87 380.123C193.526 381.862 196.468 429.631 196.468 429.631C196.468 429.631 193.156 473.716 193.156 481.315C193.156 488.914 191.682 499.984 195.552 503.676C199.422 507.368 202.915 502.81 202.727 496.513C202.539 490.217 201.071 423.741 201.071 423.741C201.071 423.741 201.993 375.749 201.993 373.581C201.993 371.413 202.364 354.43 205.305 351.649C208.247 348.869 211.013 349.474 213.746 358.383C216.48 367.292 217.584 394.693 217.584 405.769C217.584 416.846 216.11 435.3 215.194 441.382C214.279 447.464 217.792 455.492 218.136 458.319C218.48 461.146 219.058 467.872 223.474 466.569C227.889 465.267 228.811 458.97 227.37 457.017C225.928 455.064 219.818 453.539 218.714 444.852C217.61 436.166 220.188 419.236 220.74 411.415C221.292 403.594 220.558 367.751 217.428 358.651C214.298 349.55 214.831 349.964 212.272 347.36C209.714 344.755 200.123 346.708 199.76 355.824C199.396 364.94 199.571 371.244 196.63 374.722C193.688 378.2 184.851 374.722 184.481 369.505C184.111 364.289 183.377 344.992 182.273 339.538C181.169 334.084 179.513 330.423 175.643 331.288C171.773 332.154 170.494 335.417 169.754 340.189C169.013 344.962 164.968 346.272 163.864 343.882C162.76 341.492 158.897 322.172 158.897 322.172C158.897 322.172 151.533 312.612 145.261 305.45C138.988 298.288 104.599 278.309 93.3588 262.675C82.1188 247.04 62.0737 223.155 59.1451 212.293C56.2166 201.431 32.4573 113.475 33.743 99.1653C35.0287 84.8558 41.4766 33.1564 43.6843 23.5963C45.8921 14.0362 32.6456 16.8705 29.5093 30.9808C26.3729 45.0911 18.1004 73.9782 17.9121 83.3161C17.7237 92.654 17.3601 98.9508 11.6589 103.723C5.95771 108.496 0.405852 108.503 0.0552082 113.927C-0.295435 119.35 0.970778 128.045 5.39278 126.091C9.81479 124.138 12.016 118.492 14.4121 119.358C16.8082 120.224 17.5419 126.306 17.5419 128.91C17.5419 131.515 16.0679 149.762 16.2432 155.836C16.4186 161.911 21.0289 165.611 22.1328 164.309C23.2366 163.006 28.0223 158.448 29.1262 165.611C30.23 172.773 26.9184 181.031 31.7235 184.938C36.5286 188.845 38.165 192.751 38.9052 197.96C39.6455 203.169 38.5351 212.285 40.3792 219.455C42.2233 226.625 45.8986 228.793 46.8207 231.834C47.7427 234.875 42.9246 241.387 42.9246 242.689C42.9246 243.991 42.0091 250.502 46.2428 250.502C50.4764 250.502 52.3141 249.637 52.3141 249.637C52.3141 249.637 56.1777 245.952 54.34 232.493Z" fill="#F2CE1E"/>
<path d="M414.905 269.313C414.905 269.313 413.711 269.313 413.711 271.48C413.711 273.646 414.683 274.198 414.905 277.015C415.127 279.833 416.528 279.512 417.201 280.492C417.875 281.472 418.503 279.19 418.181 291.448C417.86 303.707 417.638 315.759 419.375 318.798C421.113 321.838 425.667 320.965 426.211 314.128C426.754 307.29 425.017 283.309 425.56 280.92C426.104 278.532 424.366 275.607 423.493 273.761C422.621 271.916 420.891 269.527 420.998 267.575C421.105 265.622 421.871 262.912 419.589 264.749C417.92 266.156 416.355 267.681 414.905 269.313Z" fill="#F2CE1E"/>
<path d="M410.565 272.238C410.565 272.238 400.797 278.968 401.012 281.143C401.226 283.317 404.074 280.055 404.38 284.397C404.686 288.738 404.487 307.834 404.38 311.417C404.273 315.001 407.633 316.624 409.263 313.584C410.894 310.545 410.029 298.83 410.029 298.83C410.029 298.83 408.835 284.067 410.136 282.75C411.437 281.433 410.572 278.156 411.001 276.679C411.43 275.201 411.759 271.48 410.565 272.238Z" fill="#F2CE1E"/>
<path fillRule="evenodd" clipRule="evenodd" d="M463.826 42.2937C464.838 41.9893 465.905 42.5633 466.21 43.5757L464.377 44.1269L462.545 44.6781C462.24 43.6657 462.814 42.5982 463.826 42.2937ZM440.728 306.06C440.767 306.029 440.839 305.977 440.963 305.901C441.06 305.842 441.188 305.77 441.34 305.684C441.96 305.337 442.989 304.761 443.998 303.848C445.148 302.807 445.356 301.453 445.119 300.277C444.907 299.225 444.34 298.237 443.82 297.456C443.377 296.789 442.858 296.118 442.418 295.548C442.328 295.433 442.242 295.321 442.16 295.215C441.619 294.509 441.325 294.084 441.212 293.839C441.217 293.848 441.216 293.844 441.211 293.823C441.199 293.768 441.161 293.594 441.127 293.245C441.083 292.793 441.059 292.194 441.057 291.459C441.054 289.992 441.138 288.103 441.286 286.008C441.581 281.823 442.119 276.93 442.657 273.175C443.14 269.8 444.9 266.456 446.845 263.416C447.531 262.346 448.208 261.357 448.85 260.422C449.118 260.031 449.38 259.648 449.634 259.273C450.445 258.075 451.232 256.861 451.648 255.821C453.066 252.279 454.452 244.814 453.952 238.87C453.791 236.956 454.817 235.461 456.759 233.322C456.96 233.101 457.171 232.873 457.388 232.638C459.116 230.77 461.277 228.433 462.287 225.299C462.608 224.302 462.864 223.537 463.077 222.9C463.189 222.563 463.29 222.262 463.382 221.981C463.638 221.199 463.83 220.573 463.95 219.938C464.137 218.946 464.131 217.967 464.122 216.304C464.119 215.895 464.117 215.444 464.117 214.942C464.117 209.656 465.41 194.792 467.565 182.054C468.596 175.964 470.863 171.353 472.946 167.504C473.189 167.056 473.434 166.61 473.675 166.17C474.45 164.758 475.196 163.399 475.775 162.143C476.539 160.485 477.137 158.759 477.137 156.988C477.137 155.536 477.076 152.102 476.998 147.761C476.93 143.951 476.849 139.442 476.786 134.959C476.719 130.146 476.672 125.349 476.682 121.435C476.693 117.461 476.763 114.542 476.908 113.382C477.581 108 477.781 98.5285 476.693 86.7144C476.136 80.661 473.484 69.8073 471.026 60.6177C469.788 55.9898 468.585 51.731 467.691 48.6298C467.244 47.0788 466.874 45.8166 466.616 44.9416C466.486 44.504 466.385 44.1632 466.316 43.9315L466.21 43.5757C466.21 43.5754 466.21 43.5757 464.377 44.1269C462.545 44.6781 462.544 44.6779 462.545 44.6781L462.648 45.0252C462.716 45.2538 462.817 45.5914 462.945 46.0255C463.201 46.8938 463.569 48.1482 464.013 49.6904C464.903 52.7756 466.099 57.0096 467.329 61.6072C469.806 70.8685 472.36 81.3963 472.882 87.0655C473.953 98.6964 473.739 107.877 473.111 112.908C472.93 114.351 472.865 117.536 472.855 121.425C472.844 125.372 472.892 130.194 472.959 135.013C473.023 139.563 473.104 144.099 473.173 147.908C473.25 152.195 473.31 155.56 473.31 156.988C473.31 157.927 472.986 159.049 472.299 160.539C471.781 161.663 471.127 162.856 470.372 164.233C470.119 164.694 469.855 165.175 469.581 165.682C467.433 169.651 464.927 174.702 463.792 181.415C461.615 194.281 460.29 209.371 460.29 214.942C460.29 215.58 460.292 216.108 460.294 216.551C460.3 218.111 460.302 218.627 460.189 219.228C460.119 219.596 459.999 220.015 459.745 220.787C459.665 221.034 459.57 221.319 459.46 221.645C459.243 222.297 458.97 223.115 458.644 224.125C457.91 226.403 456.354 228.099 454.573 230.04C454.361 230.272 454.144 230.507 453.926 230.748C452.029 232.837 449.825 235.461 450.139 239.191C450.588 244.533 449.295 251.401 448.095 254.398C447.857 254.992 447.314 255.871 446.464 257.128C446.236 257.465 445.989 257.825 445.73 258.203C445.077 259.156 444.342 260.227 443.622 261.352C441.612 264.494 439.472 268.412 438.868 272.632C438.319 276.473 437.77 281.457 437.468 285.739C437.317 287.877 437.226 289.869 437.23 291.468C437.232 292.266 437.258 292.996 437.317 293.613C437.371 294.169 437.468 294.842 437.714 295.392C438.042 296.125 438.642 296.918 439.124 297.546C439.223 297.674 439.32 297.801 439.417 297.926C439.856 298.494 440.273 299.034 440.634 299.577C441.09 300.261 441.308 300.739 441.367 301.032C441.369 301.043 441.371 301.052 441.372 301.061C440.743 301.62 440.237 301.906 439.671 302.225C439.447 302.351 439.214 302.483 438.96 302.638C438.543 302.895 437.987 303.277 437.56 303.889C437.101 304.546 436.91 305.29 436.897 306.079C436.881 306.98 436.793 308.402 436.681 310.219C436.612 311.35 436.533 312.633 436.455 314.039C436.258 317.644 436.081 321.938 436.15 326.119C436.218 330.275 436.529 334.435 437.349 337.73C437.758 339.375 438.32 340.914 439.119 342.15C439.926 343.398 441.061 344.462 442.621 344.863C443.645 345.126 444.688 344.509 444.951 343.485C445.214 342.461 444.597 341.418 443.573 341.155C443.233 341.068 442.805 340.801 442.333 340.071C441.853 339.328 441.42 338.24 441.063 336.805C440.349 333.94 440.043 330.127 439.977 326.056C439.91 322.01 440.081 317.822 440.277 314.249C440.348 312.954 440.424 311.723 440.492 310.607C440.61 308.697 440.707 307.124 440.724 306.145L440.724 306.141C440.725 306.107 440.726 306.08 440.728 306.06Z" fill="#1C1C04"/>
<path fillRule="evenodd" clipRule="evenodd" d="M468.521 172.03C469.525 172.362 470.07 173.444 469.738 174.448L467.909 179.991L467.892 180.035L466.107 179.346C467.892 180.035 467.892 180.035 467.892 180.035L467.553 180.916C467.337 181.478 467.028 182.281 466.657 183.248C465.916 185.182 464.927 187.767 463.939 190.375C462.95 192.985 461.964 195.611 461.226 197.63C460.856 198.641 460.553 199.49 460.343 200.104C460.237 200.413 460.161 200.647 460.113 200.806C460.105 200.831 460.099 200.852 460.094 200.87C460.076 201.096 460.04 201.358 460.008 201.579C459.954 201.957 459.877 202.446 459.78 203.013C459.586 204.149 459.31 205.625 458.979 207.198C458.332 210.273 457.427 213.953 456.459 216.086C455.532 218.129 452.792 222.946 449.84 227.558C448.356 229.88 446.791 232.19 445.344 234.111C443.942 235.973 442.515 237.654 441.307 238.543C437.717 241.186 433.262 246.533 431.76 248.561C431.37 249.087 431.245 249.347 431.208 249.446C431.211 249.459 431.216 249.476 431.222 249.498C431.244 249.573 431.279 249.673 431.34 249.832C431.361 249.888 431.385 249.95 431.412 250.018C431.525 250.311 431.682 250.714 431.831 251.183C432.085 251.98 432.165 253.103 432.195 254.111C432.227 255.192 432.205 256.409 432.164 257.535C432.122 258.666 432.06 259.727 432.009 260.505C431.983 260.895 431.959 261.214 431.943 261.438C431.934 261.549 431.927 261.637 431.922 261.697L431.917 261.766L431.915 261.791C431.915 261.791 431.915 261.792 430.008 261.633L431.915 261.791C431.827 262.844 430.902 263.628 429.849 263.541C428.796 263.453 428.013 262.528 428.101 261.474C428.101 261.474 428.101 261.475 428.101 261.474L428.102 261.455L428.107 261.393C428.112 261.337 428.118 261.254 428.126 261.148C428.142 260.935 428.165 260.628 428.19 260.252C428.24 259.498 428.3 258.476 428.339 257.395C428.379 256.308 428.398 255.186 428.369 254.225C428.338 253.191 428.256 252.569 428.184 252.344C428.075 252 427.971 251.733 427.861 251.45C427.829 251.367 427.797 251.283 427.763 251.195C427.632 250.851 427.448 250.355 427.392 249.79C427.261 248.464 427.869 247.384 428.684 246.283C430.244 244.176 434.974 238.452 439.039 235.459C439.745 234.94 440.876 233.681 442.287 231.807C443.655 229.992 445.161 227.77 446.617 225.495C449.546 220.916 452.164 216.287 452.974 214.503C453.744 212.807 454.577 209.527 455.234 206.409C455.554 204.886 455.821 203.458 456.007 202.369C456.1 201.823 456.172 201.37 456.22 201.036C456.25 200.826 456.265 200.701 456.272 200.64C456.278 200.585 456.278 200.582 456.278 200.616C456.278 200.343 456.34 200.096 456.354 200.04C456.355 200.037 456.356 200.034 456.356 200.032C456.383 199.924 456.416 199.809 456.449 199.699C456.517 199.474 456.611 199.19 456.721 198.866C456.945 198.213 457.259 197.334 457.632 196.315C458.378 194.275 459.37 191.632 460.36 189.018C461.351 186.404 462.341 183.813 463.084 181.877C463.455 180.909 463.764 180.104 463.981 179.541L464.305 178.701L466.104 173.248C466.435 172.244 467.517 171.699 468.521 172.03ZM431.195 249.494C431.194 249.494 431.195 249.485 431.201 249.464C431.2 249.482 431.196 249.493 431.195 249.494ZM460.073 200.945C460.074 200.942 460.075 200.939 460.076 200.935C460.069 200.971 460.065 200.978 460.073 200.945Z" fill="#1C1C04"/>
<path fillRule="evenodd" clipRule="evenodd" d="M440.935 233.875C441.985 233.751 442.936 234.501 443.061 235.551C443.702 240.961 443.849 246.419 443.499 251.856L443.497 251.877L443.496 251.899C443.177 255.563 443.07 260.328 443.044 264.213C443.032 266.148 443.039 267.85 443.049 269.069C443.055 269.678 443.061 270.166 443.066 270.501C443.068 270.668 443.07 270.798 443.071 270.885L443.074 271.015C443.094 272.072 442.253 272.945 441.196 272.965C440.14 272.985 439.267 272.144 439.247 271.087L441.16 271.051C439.247 271.087 439.247 271.087 439.247 271.087L439.245 270.948C439.243 270.858 439.241 270.726 439.239 270.555C439.234 270.214 439.228 269.719 439.222 269.102C439.212 267.869 439.204 266.146 439.217 264.187C439.243 260.292 439.35 255.41 439.681 251.589C440.014 246.391 439.873 241.174 439.26 236.002C439.136 234.952 439.885 234 440.935 233.875Z" fill="#1C1C04"/>
<path d="M307.64 386.117C307.64 386.117 312.125 385.535 312.7 386.836C313.274 388.138 312.271 392.916 310.533 395.09C308.796 397.265 306.193 398.85 306.048 401.017C305.902 403.184 306.048 446.452 306.048 446.452C306.048 446.452 306.92 500.57 306.193 501.581C305.466 502.592 301.998 501.726 301.853 504.475C301.838 505.709 302.136 506.927 302.718 508.016C303.3 509.104 304.148 510.028 305.183 510.7C306.92 511.856 307.058 515.761 306.92 517.063C306.783 518.365 306.048 519.092 303.009 519.237C299.97 519.383 297.367 519.666 297.513 517.499C297.658 515.333 298.959 490.877 298.959 490.877L298.385 451.659C298.385 451.659 297.367 445.296 296.939 443.412C296.51 441.529 297.222 437.341 298.669 435.602C300.115 433.864 300.115 423.015 300.115 423.015L298.959 406.231C298.959 406.231 297.222 401.162 300.697 398.704C304.172 396.247 306.193 394.654 306.484 392.77C306.775 390.887 305.03 386.262 307.64 386.117Z" fill="#F2CE1E"/>
<path d="M292.782 509.253C292.782 509.253 291.481 510.7 291.619 514.023C291.757 517.346 291.19 526.757 291.336 528.495C291.481 530.233 294.658 533.854 300.299 533.992C305.941 534.13 306.086 531.389 305.076 531.389C304.065 531.389 294.512 530.815 294.084 528.786C293.655 526.757 294.512 515.907 294.803 515.042C295.094 514.176 295.079 509.253 292.782 509.253Z" fill="#F2CE1E"/>
<path d="M292.162 416.79C292.162 416.79 295.224 415.925 295.775 417.226C296.326 418.528 296.066 426.774 296.066 428.803C296.066 430.832 295.637 431.552 293.9 434.301C292.162 437.05 291.603 437.769 292.017 440.089C292.43 442.409 294.91 448.336 295.775 456.437C296.64 464.538 297.084 502.017 295.347 502.454C293.609 502.89 293.318 497.385 293.318 496.52C293.318 495.655 293.027 462.225 293.027 460.778C293.027 459.331 291.297 449.928 290.57 444.576C289.843 439.224 290.861 427.211 290.861 425.036C290.861 422.862 291.297 415.902 292.162 416.79Z" fill="#F2CE1E"/>
<path fillRule="evenodd" clipRule="evenodd" d="M147.984 359.31C148.001 359.311 148.019 359.312 148.036 359.313C148.331 359.328 148.607 359.408 148.85 359.54C149.714 359.741 151.088 360.116 152.566 360.789C155.634 362.184 159.6 365.102 159.69 370.75C159.737 373.669 159.533 377.19 159.333 380.641C159.217 382.634 159.103 384.604 159.04 386.42C158.95 388.975 158.954 391.266 159.151 393.1C159.36 395.044 159.749 396.051 160.084 396.436C161.272 397.798 162.377 398.231 163.532 398.593C163.651 398.63 163.779 398.668 163.914 398.708C165.021 399.036 166.632 399.512 167.8 400.997C168.264 401.587 168.537 402.374 168.72 403.025C168.922 403.741 169.088 404.582 169.23 405.47C169.513 407.252 169.718 409.379 169.865 411.396C170.013 413.421 170.106 415.372 170.162 416.814C170.19 417.536 170.209 418.133 170.221 418.55C170.227 418.758 170.231 418.922 170.234 419.034L170.237 419.162L170.238 419.207C170.238 419.207 170.238 419.208 168.325 419.248C170.237 419.328 170.237 419.328 170.237 419.329L170.218 419.79C170.205 420.092 170.187 420.535 170.165 421.099C170.119 422.229 170.056 423.844 169.984 425.787C169.839 429.675 169.658 434.873 169.513 440.119C169.369 445.369 169.26 450.652 169.26 454.715C169.26 456.751 169.287 458.455 169.348 459.688C169.378 460.308 169.416 460.774 169.457 461.089C169.469 461.18 169.479 461.246 169.488 461.292C169.854 462.102 169.615 463.086 168.867 463.629C168.012 464.25 166.815 464.06 166.194 463.204C165.923 462.831 165.822 462.424 165.785 462.273C165.73 462.052 165.692 461.813 165.662 461.584C165.601 461.119 165.557 460.536 165.525 459.876C165.459 458.549 165.433 456.77 165.433 454.715C165.433 450.598 165.543 445.273 165.688 440.014C165.833 434.751 166.014 429.54 166.159 425.645C166.232 423.697 166.295 422.078 166.34 420.946C166.363 420.38 166.381 419.936 166.394 419.632L166.41 419.229L166.408 419.127C166.405 419.02 166.401 418.861 166.395 418.659C166.384 418.253 166.365 417.67 166.338 416.963C166.283 415.548 166.192 413.643 166.048 411.675C165.904 409.699 165.708 407.696 165.45 406.072C165.32 405.258 165.181 404.578 165.036 404.061C164.914 403.627 164.82 403.429 164.794 403.374C164.785 403.356 164.784 403.354 164.792 403.364C164.409 402.877 163.999 402.749 162.69 402.341C162.594 402.311 162.494 402.28 162.388 402.246C160.904 401.781 159.043 401.066 157.2 398.952C156.019 397.598 155.56 395.512 155.345 393.509C155.119 391.396 155.123 388.885 155.215 386.286C155.286 384.262 155.406 382.198 155.525 380.17C155.719 376.845 155.908 373.616 155.863 370.811C155.808 367.339 153.482 365.411 150.982 364.274C149.752 363.714 148.588 363.405 147.875 363.244C147.699 363.204 147.55 363.173 147.432 363.149C147.422 363.147 147.41 363.145 147.397 363.142C147.313 363.125 147.174 363.097 147.082 363.073C147.082 363.073 147.082 363.073 147.081 363.073C147.068 363.07 146.92 363.032 146.755 362.958C146.704 362.934 146.603 362.886 146.487 362.809C146.405 362.754 146.128 362.566 145.91 362.209C145.622 361.735 145.469 360.978 145.888 360.254C146.19 359.73 146.638 359.521 146.754 359.468C147.029 359.344 147.273 359.315 147.311 359.311C147.313 359.311 147.314 359.31 147.315 359.31C147.393 359.301 147.456 359.298 147.487 359.296C147.551 359.294 147.606 359.295 147.633 359.295C147.72 359.297 147.852 359.304 147.984 359.31ZM169.502 461.36C169.501 461.358 169.5 461.355 169.5 461.352C169.511 461.388 169.51 461.396 169.502 461.36ZM168.325 419.248L170.237 419.329L170.239 419.268L170.238 419.208L168.325 419.248Z" fill="#1C1C04"/>
<path fillRule="evenodd" clipRule="evenodd" d="M90.1699 272.348C90.262 272.46 90.3369 272.57 90.3935 272.659C90.3885 272.651 90.3888 272.652 90.3962 272.661C90.4124 272.682 90.4629 272.748 90.5681 272.871C90.7037 273.029 90.8882 273.234 91.1211 273.485C91.5858 273.984 92.2067 274.624 92.9366 275.362C94.3945 276.834 96.2507 278.656 98.083 280.435C99.9137 282.213 101.714 283.942 103.057 285.227C103.728 285.869 104.284 286.4 104.673 286.77C104.868 286.955 105.02 287.1 105.124 287.199L105.281 287.349C105.282 287.349 105.282 287.35 103.965 288.738C102.647 290.126 102.647 290.126 102.647 290.126L102.487 289.974C102.382 289.874 102.229 289.729 102.034 289.543C101.643 289.171 101.084 288.638 100.411 287.993C99.064 286.704 97.2568 284.968 95.417 283.182C94.1106 281.913 92.7843 280.616 91.5934 279.433C92.0115 281.397 92.4438 283.529 92.6931 285.283C92.7608 285.759 92.8525 286.383 92.9623 287.13C93.4298 290.31 94.2255 295.721 94.8887 301.445C95.7007 308.453 96.3467 316.177 95.8875 320.898C95.4639 325.254 95.5322 336.437 95.6419 347.173C95.6539 348.347 95.6664 349.514 95.6786 350.663C95.722 354.732 95.7631 358.585 95.7738 361.767C95.7806 363.809 95.775 365.587 95.749 366.979C95.7241 368.317 95.6794 369.433 95.5831 370.055C95.3171 371.774 95.1404 375.236 95.4181 378.327C95.5575 379.879 95.8014 381.213 96.1438 382.151C96.2016 382.309 96.2569 382.442 96.3085 382.554C96.6158 381.764 96.8632 380.599 97.0426 379.263C97.2302 377.866 97.3254 376.432 97.373 375.334C97.3968 374.789 97.4085 374.333 97.4142 374.015C97.4171 373.857 97.4185 373.733 97.4192 373.65C97.4195 373.608 97.4197 373.577 97.4197 373.557L97.4198 373.535L97.4198 373.531M99.3335 373.529C101.247 373.528 101.247 373.528 101.247 373.528L101.247 373.529L101.247 373.541L101.247 373.571C101.247 373.597 101.247 373.634 101.246 373.681C101.246 373.776 101.244 373.912 101.241 374.085C101.235 374.429 101.222 374.918 101.197 375.501C101.146 376.661 101.044 378.22 100.836 379.773C100.633 381.286 100.309 382.952 99.7539 384.239C99.4803 384.874 99.0782 385.592 98.4577 386.128C97.7592 386.73 96.803 387.072 95.7307 386.827C93.9041 386.41 93.0064 384.716 92.5491 383.465C92.04 382.071 91.7576 380.357 91.6061 378.67C91.302 375.283 91.4851 371.51 91.8008 369.469C91.85 369.151 91.8962 368.309 91.9224 366.907C91.9475 365.558 91.9533 363.813 91.9465 361.78C91.9359 358.613 91.895 354.78 91.8516 350.714C91.8393 349.562 91.8268 348.392 91.8148 347.212C91.7064 336.607 91.6291 325.145 92.0782 320.527C92.4917 316.275 91.9052 308.949 91.0868 301.886C90.4314 296.23 89.6481 290.901 89.1793 287.712C89.0677 286.953 88.9739 286.314 88.9039 285.822C88.6066 283.731 88.025 281.035 87.5178 278.685C87.4318 278.286 87.3479 277.898 87.268 277.524C87.0019 276.279 86.767 275.141 86.6692 274.409C86.6441 274.221 86.6221 274.019 86.615 273.826C86.6148 273.823 86.6147 273.819 86.6146 273.815C86.61 273.699 86.594 273.29 86.7491 272.868C86.8273 272.656 87.11 271.999 87.8972 271.7C88.7368 271.381 89.4198 271.735 89.6619 271.89C89.9244 272.06 90.094 272.255 90.1699 272.348M97.4198 373.531L96.9903 325.692L97.0012 325.586L98.9048 325.781C97.0012 325.586 97.0011 325.586 97.0012 325.586L97.0029 325.569L97.0076 325.524C97.0117 325.485 97.0178 325.428 97.0258 325.353C97.0419 325.204 97.0659 324.986 97.0976 324.708C97.1612 324.151 97.2559 323.35 97.3813 322.374C97.632 320.421 98.0063 317.755 98.5005 314.906C98.9937 312.062 99.6113 309.008 100.352 306.288C101.078 303.625 101.975 301.077 103.1 299.39C104.379 297.473 105.083 295.981 105.679 294.717C105.933 294.177 106.168 293.679 106.42 293.206C106.764 292.561 107.341 291.56 108.395 291.083C109.62 290.529 110.8 290.936 111.653 291.386C112.589 291.878 112.948 293.036 112.455 293.971C111.971 294.892 110.842 295.254 109.915 294.796C109.88 294.856 109.841 294.926 109.797 295.008C109.655 295.275 109.484 295.637 109.277 296.074C108.665 297.372 107.735 299.341 106.283 301.516C105.526 302.651 104.758 304.679 104.045 307.294C103.348 309.853 102.754 312.777 102.271 315.56C101.79 318.338 101.423 320.946 101.177 322.861C101.055 323.818 100.962 324.6 100.9 325.141C100.869 325.412 100.846 325.623 100.831 325.765C100.826 325.807 100.823 325.843 100.819 325.873L101.247 373.52L101.247 373.528L99.3335 373.529M109.56 294.638C109.56 294.638 109.564 294.638 109.572 294.641C109.564 294.639 109.56 294.638 109.56 294.638ZM90.4397 273.684C90.4382 273.644 90.4416 273.653 90.4405 273.699C90.44 273.692 90.4398 273.687 90.4397 273.684ZM87.1621 274.711C87.1603 274.708 87.1602 274.708 87.1621 274.711ZM105.352 290.056C104.625 290.823 103.413 290.854 102.647 290.126L103.965 288.738L105.282 287.35C106.049 288.077 106.08 289.289 105.352 290.056Z" fill="#1C1C04"/>
<path fillRule="evenodd" clipRule="evenodd" d="M45.9833 1.0465C46.801 1.71626 46.9211 2.92229 46.2515 3.74024C43.3709 7.25925 40.7186 13.1164 38.6462 18.6054C37.0486 22.8369 35.8675 26.6433 35.2005 28.7927C35.0073 29.4151 34.8573 29.8986 34.7528 30.2133C34.5891 30.7058 34.2966 32.099 33.9361 34.0993C33.5876 36.0331 33.2018 38.378 32.8414 40.6518C32.4813 42.9235 32.148 45.1154 31.9046 46.7398C31.783 47.5519 31.6838 48.2217 31.6152 48.6883C31.5808 48.9216 31.5541 49.104 31.536 49.228L31.5085 49.4163C31.5085 49.4165 31.5085 49.417 29.6146 49.142C31.4986 49.4781 31.4986 49.4782 31.4985 49.4783L31.4566 49.7141C31.4291 49.8693 31.3885 50.0985 31.3364 50.3939C31.2323 50.9846 31.0821 51.8399 30.8983 52.8971C30.5306 55.0118 30.0283 57.9336 29.49 61.1622C28.4111 67.6335 27.1957 75.2896 26.6239 80.1608C26.063 84.939 26.0244 96.4025 26.0619 107.881C26.068 109.741 26.0761 111.601 26.084 113.43C26.1245 122.748 26.1614 131.247 25.9127 134.772C25.6376 138.672 26.4724 147.843 27.6174 157.028C28.7573 166.174 30.156 174.963 30.9199 178.015C31.2731 179.427 32.4088 182.358 34.0846 186.203C35.7369 189.994 37.8537 194.539 40.095 199.103C42.3365 203.668 44.6948 208.237 46.829 212.078C48.9851 215.959 50.8492 218.981 52.1071 220.537C54.8852 223.974 57.5121 227.514 59.4411 230.188C60.4065 231.527 61.1994 232.652 61.7515 233.444C62.0276 233.84 62.2436 234.152 62.3911 234.366C62.4417 234.44 62.4842 234.502 62.5183 234.551L62.6035 234.676L62.618 234.697L62.6188 234.698C62.6189 234.699 62.6192 234.699 61.0371 235.776C62.6702 234.778 62.6702 234.778 62.6702 234.778L62.6715 234.78L62.7586 234.923C62.8167 235.018 62.9025 235.157 63.0122 235.336C63.2318 235.693 63.5474 236.206 63.9313 236.825C64.6993 238.065 65.7388 239.731 66.827 241.441C67.9168 243.153 69.048 244.898 70.0012 246.298C70.4785 247 70.9019 247.601 71.2476 248.063C71.4205 248.295 71.5659 248.48 71.6829 248.621C71.7411 248.69 71.7875 248.743 71.8228 248.782C71.86 248.822 71.8746 248.835 71.8694 248.831C72.9047 249.772 73.0231 251.022 72.9296 251.941C72.8393 252.829 72.5222 253.762 72.234 254.546C72.1246 254.843 72.0174 255.125 71.913 255.399C71.7109 255.929 71.5194 256.431 71.3429 256.971C71.084 257.761 70.9273 258.438 70.9021 259.014C70.8594 259.988 70.498 262.364 70.0244 265.248C69.5906 267.89 69.0375 271.099 68.4735 274.373L68.2736 275.533C67.6408 279.207 67.0102 282.887 66.5288 285.891C66.0375 288.957 65.7284 291.163 65.6974 291.994C65.554 295.845 65.7067 331.973 65.8425 335.25C65.8951 336.518 65.5057 337.684 65.0355 338.663C64.565 339.643 63.9419 340.577 63.3909 341.382C63.3011 341.513 63.2135 341.641 63.1283 341.765C62.66 342.445 62.2644 343.02 61.9564 343.569C61.5813 344.237 61.504 344.587 61.504 344.732C61.504 344.874 61.5355 344.893 61.5535 344.911C61.6116 344.971 61.7681 345.081 62.0762 345.167C62.3759 345.25 62.7116 345.28 62.9934 345.264C63.1151 345.257 63.2037 345.243 63.2566 345.231C64.1206 344.752 65.2218 345.01 65.7776 345.848C66.362 346.729 66.122 347.917 65.2414 348.501C64.5956 348.93 63.7847 349.054 63.2078 349.086C62.5474 349.123 61.7889 349.061 61.0485 348.855C60.3165 348.65 59.4871 348.272 58.8191 347.59C58.1111 346.867 57.6767 345.891 57.6767 344.732C57.6767 343.575 58.1591 342.514 58.6193 341.694C59.0209 340.979 59.5337 340.235 59.9972 339.562C60.0776 339.445 60.1566 339.331 60.2332 339.219C60.7845 338.414 61.2551 337.694 61.5855 337.005C61.9161 336.317 62.0348 335.803 62.0185 335.409C61.8788 332.04 61.7253 295.811 61.8727 291.852C61.9145 290.731 62.2742 288.252 62.7498 285.285C63.2352 282.255 63.8696 278.554 64.5018 274.883L64.7013 273.725C65.266 270.448 65.8165 267.254 66.2477 264.628C66.7409 261.624 67.0484 259.533 67.0784 258.846C67.1259 257.761 67.4036 256.702 67.7057 255.779C67.9101 255.155 68.1592 254.5 68.3786 253.923C68.474 253.673 68.5638 253.437 68.6419 253.224C68.9326 252.434 69.0858 251.909 69.122 251.553C69.124 251.534 69.1255 251.516 69.1266 251.5C68.8191 251.186 68.4882 250.765 68.1827 250.356C67.7887 249.83 67.3296 249.176 66.8374 248.453C65.8515 247.004 64.6959 245.221 63.5984 243.497C62.4992 241.77 61.451 240.089 60.678 238.842C60.2913 238.218 59.9732 237.701 59.7516 237.341C59.6408 237.16 59.5541 237.019 59.495 236.922L59.4274 236.812L59.4012 236.774C59.3647 236.721 59.3102 236.641 59.2386 236.537C59.0954 236.329 58.884 236.023 58.6127 235.634C58.0703 234.857 57.2891 233.748 56.3371 232.428C54.4311 229.785 51.849 226.307 49.131 222.945C47.6409 221.101 45.6355 217.811 43.4835 213.938C41.3096 210.025 38.921 205.396 36.6597 200.791C34.3981 196.185 32.256 191.587 30.5762 187.733C28.9197 183.932 27.65 180.715 27.2071 178.945C26.3789 175.635 24.9568 166.626 23.8194 157.502C22.6872 148.419 21.7882 138.849 22.0948 134.503C22.3323 131.136 22.2968 122.841 22.2567 113.504C22.2488 111.665 22.2408 109.785 22.2346 107.894C22.1975 96.5461 22.2277 84.7827 22.8227 79.7143C23.4067 74.7389 24.637 66.9972 25.7148 60.5324C26.2549 57.2929 26.7587 54.362 27.1276 52.2411C27.312 51.1805 27.4627 50.3222 27.5673 49.7289C27.6196 49.4322 27.6604 49.2017 27.6882 49.0453L27.7253 48.8363L27.7489 48.6744C27.7672 48.5492 27.7941 48.3654 27.8286 48.1307C27.8977 47.6613 27.9973 46.9882 28.1195 46.1724C28.3639 44.5414 28.699 42.3382 29.0613 40.0523C29.4233 37.7683 29.814 35.3928 30.1695 33.4202C30.5129 31.5142 30.8519 29.8149 31.1208 29.0058C31.205 28.7524 31.336 28.3299 31.5099 27.7689C32.1612 25.6684 33.4143 21.6268 35.0657 17.2529C37.146 11.7429 39.9783 5.36071 43.2903 1.31482C43.9598 0.496867 45.1655 0.376734 45.9833 1.0465ZM61.0371 235.776L62.6702 234.778L62.6457 234.738L62.6188 234.698L61.0371 235.776ZM29.6146 49.142L31.4985 49.4783L31.504 49.4476L31.5085 49.4163L29.6146 49.142Z" fill="#1C1C04"/>
<path fillRule="evenodd" clipRule="evenodd" d="M53.709 224.315C54.7653 224.28 55.6502 225.108 55.6854 226.164L53.7728 226.228L51.8602 226.292C51.825 225.235 52.6527 224.35 53.709 224.315ZM63.7545 294.925C61.9174 295.461 61.9174 295.461 61.9173 295.46L61.9156 295.455L61.9114 295.44L61.8964 295.388C61.8834 295.342 61.8645 295.276 61.8401 295.189C61.7914 295.015 61.7206 294.759 61.6305 294.424C61.4504 293.754 61.1934 292.767 60.8821 291.491C60.2595 288.938 59.4196 285.223 58.5439 280.554C58.0114 277.715 57.3195 274.348 56.599 270.842C56.1463 268.639 55.6823 266.382 55.2394 264.166C54.1072 258.499 53.1026 253.054 52.8743 249.8C52.6536 246.656 52.4 240.765 52.2022 235.69C52.1031 233.146 52.0176 230.797 51.9569 229.084C51.9265 228.227 51.9024 227.529 51.8858 227.046L51.8602 226.293C51.8602 226.293 51.8602 226.292 53.7728 226.228C55.6854 226.164 55.6854 226.164 55.6854 226.164L55.7109 226.915C55.7274 227.397 55.7515 228.093 55.7818 228.948C55.8424 230.658 55.9277 233.003 56.0266 235.541C56.225 240.63 56.4765 246.458 56.6922 249.532C56.9001 252.495 57.8475 257.685 58.9926 263.415C59.4253 265.581 59.8849 267.817 60.3362 270.014C61.063 273.551 61.7685 276.984 62.3056 279.848C63.1675 284.443 63.9925 288.091 64.6004 290.583C64.9043 291.83 65.1539 292.787 65.3267 293.43C65.413 293.752 65.4802 293.994 65.5253 294.155C65.5478 294.236 65.5649 294.296 65.576 294.335L65.5883 294.377L65.5911 294.387L65.5916 294.389C65.8876 295.404 65.305 296.466 64.2904 296.762C63.2758 297.058 62.2133 296.475 61.9173 295.46L63.7545 294.925Z" fill="#1C1C04"/>
<path fillRule="evenodd" clipRule="evenodd" d="M166.155 325.342C167.197 325.162 168.187 325.861 168.366 326.903L166.48 327.228C168.366 326.903 168.366 326.903 168.366 326.903L168.375 326.955L168.4 327.101C168.421 327.228 168.453 327.416 168.493 327.658C168.573 328.142 168.687 328.844 168.823 329.718C169.096 331.466 169.46 333.905 169.824 336.672C170.549 342.182 171.287 349.086 171.287 354.425C171.287 358.405 170.632 370.634 169.983 381.778C169.657 387.37 169.332 392.718 169.088 396.666C168.966 398.641 168.864 400.266 168.793 401.398C168.757 401.963 168.729 402.406 168.71 402.707L168.681 403.167C168.681 403.168 168.681 403.168 166.771 403.046C164.861 402.924 164.861 402.924 164.861 402.924L164.891 402.465C164.91 402.164 164.938 401.722 164.973 401.157C165.044 400.027 165.146 398.403 165.268 396.43C165.512 392.484 165.837 387.142 166.162 381.556C166.815 370.345 167.46 358.263 167.46 354.425C167.46 349.352 166.752 342.657 166.03 337.172C165.671 334.442 165.311 332.034 165.042 330.309C164.907 329.447 164.795 328.756 164.717 328.282C164.677 328.045 164.647 327.862 164.626 327.738L164.602 327.599L164.595 327.554C164.415 326.512 165.114 325.522 166.155 325.342ZM166.649 404.956C165.595 404.889 164.794 403.979 164.861 402.924L166.771 403.046L168.681 403.167C168.614 404.222 167.704 405.023 166.649 404.956Z" fill="#1C1C04"/>
<path fillRule="evenodd" clipRule="evenodd" d="M120.504 302.648C120.907 303.226 121.317 303.827 121.727 304.447C124.517 308.669 127.539 314.107 127.866 319.141C127.997 321.161 128.14 323.533 128.291 326.051C128.481 329.216 128.685 332.613 128.897 335.833C129.087 338.696 129.279 341.361 129.469 343.495C129.663 345.679 129.842 347.156 129.983 347.76C130.293 349.018 130.88 350.192 131.699 351.196C132.513 352.193 133.537 352.998 134.697 353.553C135.694 353.985 136.785 354.86 136.768 356.367C136.755 357.521 136.033 358.419 135.635 358.872C135.2 359.366 134.666 359.843 134.266 360.2C134.233 360.23 134.2 360.26 134.168 360.288C133.945 360.488 133.772 360.645 133.636 360.78C133.52 360.895 133.48 360.946 133.479 360.945C133.479 360.945 133.479 360.945 133.479 360.945C133.397 361.073 133.295 361.221 133.18 361.389C132.64 362.177 131.809 363.391 131.297 364.829C130.69 366.535 130.739 367.954 131.907 369.08C133.098 370.227 135.343 370.509 138.119 369.628C140.829 368.769 143.302 367.005 144.449 365.225C144.665 364.891 144.947 364.031 145.18 362.602C145.398 361.264 145.536 359.691 145.62 358.162C145.704 356.64 145.733 355.199 145.741 354.135C145.745 353.604 145.744 353.17 145.742 352.87C145.741 352.72 145.739 352.603 145.738 352.525L145.737 352.466L143.587 325.601L141.337 315.534C141.224 315.466 141.098 315.39 140.96 315.306C140.273 314.89 139.289 314.293 138.1 313.569C135.722 312.12 132.521 310.163 129.233 308.128C126.211 306.258 123.11 304.319 120.504 302.648ZM143.026 314.319L144.015 312.68L144.716 313.103L147.38 325.028L149.562 352.278L149.563 352.336L147.65 352.373C149.563 352.336 149.563 352.336 149.563 352.336L149.563 352.337L149.563 352.347L149.564 352.373L149.565 352.472C149.566 352.558 149.568 352.682 149.569 352.841C149.571 353.158 149.573 353.611 149.569 354.164C149.56 355.267 149.53 356.772 149.442 358.373C149.354 359.966 149.207 361.69 148.957 363.219C148.723 364.657 148.354 366.233 147.666 367.3C145.92 370.007 142.606 372.221 139.276 373.278C136.012 374.313 131.966 374.45 129.253 371.838C126.517 369.203 126.853 365.903 127.691 363.546C128.399 361.556 129.615 359.806 130.102 359.105C130.179 358.993 130.238 358.909 130.274 358.853C130.481 358.533 130.745 358.256 130.944 358.059C131.157 357.847 131.399 357.63 131.615 357.436L131.665 357.391C131.953 357.133 132.209 356.904 132.428 356.69C131.013 355.914 129.758 354.871 128.734 353.617C127.553 352.17 126.71 350.478 126.264 348.665L126.262 348.657L126.261 348.649C126.043 347.728 125.844 345.951 125.656 343.834C125.463 341.656 125.268 338.957 125.078 336.085C124.868 332.905 124.66 329.439 124.467 326.231C124.315 323.702 124.173 321.333 124.047 319.389C123.792 315.457 121.314 310.766 118.534 306.558C117.215 304.563 115.886 302.758 114.794 301.276C114.759 301.228 114.723 301.179 114.688 301.132C114.139 300.386 113.64 299.707 113.252 299.145C112.899 298.634 112.515 298.051 112.315 297.549C112.185 297.224 112.065 296.869 112.009 296.517C111.974 296.296 111.849 295.46 112.437 294.727C113.194 293.784 114.263 293.948 114.587 294.029C114.965 294.124 115.27 294.301 115.432 294.403C115.792 294.628 116.135 294.92 116.343 295.106C116.457 295.208 116.554 295.3 116.624 295.366C116.654 295.395 116.679 295.419 116.699 295.438C117.283 295.947 119.176 297.236 121.907 298.998C124.612 300.743 127.968 302.844 131.247 304.873C134.524 306.901 137.717 308.853 140.09 310.298C141.277 311.021 142.258 311.617 142.943 312.032C143.286 312.239 143.554 312.401 143.736 312.512L144.014 312.68L144.015 312.68C144.015 312.68 144.015 312.68 143.026 314.319Z" fill="#1C1C04"/>
<path fillRule="evenodd" clipRule="evenodd" d="M421.84 299.848C422.474 299.844 422.991 300.354 422.996 300.988L423.103 316.402C423.107 317.036 422.597 317.554 421.963 317.558C421.329 317.562 420.811 317.052 420.807 316.418L420.699 301.004C420.695 300.37 421.206 299.852 421.84 299.848Z" fill="#1C1C04"/>
<path d="M355.551 334.028C355.551 334.028 353.094 333.591 353.675 335.184C354.257 336.777 357.143 337.068 358.008 336.34C358.873 335.613 356.967 334.028 355.551 334.028Z" fill="#1C1C04"/>
<path d="M357.977 350.957C357.977 350.957 355.52 351.248 356.53 352.978C357.541 354.709 360.442 354.28 361.016 353.56C361.59 352.841 361.016 351.248 357.977 350.957Z" fill="#1C1C04"/>
<path d="M294.045 348.346C295.242 348.346 296.211 347.376 296.211 346.179C296.211 344.982 295.242 344.012 294.045 344.012C292.849 344.012 291.879 344.982 291.879 346.179C291.879 347.376 292.849 348.346 294.045 348.346Z" fill="#1C1C04"/>
<path d="M274.947 348.782C274.947 348.782 274.511 344.012 273.355 345.72C272.199 347.427 272.49 362.511 273.209 364.241C273.929 365.972 274.947 358.912 274.947 348.782Z" fill="#1C1C04"/>
<path fillRule="evenodd" clipRule="evenodd" d="M272.344 412.984C272.767 412.984 273.11 413.327 273.11 413.75H272.344H271.579C271.579 413.327 271.922 412.984 272.344 412.984ZM272.344 413.75C271.579 413.75 271.579 413.75 271.579 413.75L271.579 413.762L271.579 413.796C271.579 413.826 271.579 413.87 271.58 413.927C271.58 414.041 271.582 414.208 271.584 414.421C271.59 414.847 271.601 415.456 271.622 416.193C271.665 417.664 271.752 419.649 271.925 421.692C272.098 423.729 272.359 425.85 272.758 427.585C272.957 428.451 273.195 429.248 273.487 429.898C273.768 430.527 274.145 431.127 274.679 431.469C275.035 431.697 275.509 431.594 275.737 431.238C275.965 430.882 275.861 430.408 275.505 430.18C275.353 430.082 275.128 429.818 274.884 429.272C274.649 428.749 274.437 428.059 274.25 427.242C273.875 425.611 273.621 423.573 273.451 421.562C273.28 419.557 273.195 417.602 273.152 416.148C273.131 415.421 273.12 414.82 273.115 414.402C273.112 414.193 273.111 414.029 273.11 413.918C273.11 413.862 273.11 413.82 273.11 413.792L273.11 413.76L273.11 413.75H272.344Z" fill="#1C1C04"/>
<path d="M29.1097 193.495C29.1097 193.495 35.1798 212.155 36.4811 219.107C37.7824 226.06 37.1318 231.259 38.2187 237.116C39.3057 242.973 46.2485 245.148 46.8991 247.751C47.5498 250.355 47.1134 259.236 45.8121 260.768C44.5109 262.299 51.4536 262.506 51.4536 257.077C51.4536 251.649 52.5406 238.196 52.3263 235.807C52.1119 233.418 46.8991 225.394 45.1615 220.616C43.4239 215.838 37.3537 206.941 37.3537 206.941C37.3537 206.941 28.237 185.647 29.1097 193.495Z" fill="#C4A20D"/>
<path fillRule="evenodd" clipRule="evenodd" d="M227.632 342.023C227.62 342.019 227.608 342.016 227.596 342.012C227.367 341.945 227.048 341.86 226.666 341.781C225.923 341.625 224.858 341.473 223.743 341.567C222.636 341.661 221.282 342.017 220.215 343.074C219.111 344.168 218.602 345.723 218.647 347.611C218.695 349.588 218.421 352.42 218.134 355.39C217.998 356.795 217.859 358.231 217.749 359.622C217.588 361.683 217.49 363.693 217.641 365.156C217.711 365.835 217.859 366.705 218.298 367.401C218.541 367.786 218.947 368.236 219.586 368.474C220.242 368.718 220.875 368.638 221.366 368.458C222.69 367.971 223.547 366.808 224.112 365.969C224.353 365.612 224.599 365.218 224.834 364.842C224.899 364.737 224.964 364.633 225.027 364.532C225.33 364.051 225.631 363.585 225.958 363.137C227.212 361.414 228.765 360.03 231.698 360.03C237.949 360.03 240.381 364.591 241.647 367.672C241.918 368.33 242.162 369.199 242.405 370.163C242.468 370.41 242.531 370.668 242.595 370.928C242.764 371.616 242.937 372.322 243.107 372.886C243.225 373.277 243.372 373.712 243.563 374.089C243.658 374.277 243.799 374.522 244.003 374.755C244.198 374.978 244.568 375.324 245.143 375.473C246.566 375.842 247.405 374.734 247.607 374.433C247.899 373.998 248.117 373.45 248.297 372.903C248.732 371.582 248.884 369.458 248.934 367.275C248.986 365.001 248.929 362.368 248.837 359.856C248.75 357.513 248.631 355.25 248.537 353.457C248.53 353.324 248.523 353.195 248.516 353.068C248.467 352.139 248.428 351.363 248.404 350.784C248.393 350.494 248.386 350.268 248.383 350.103C248.383 350.046 248.383 350.005 248.383 349.976C248.392 349.944 248.409 349.89 248.437 349.807C248.467 349.719 248.501 349.622 248.543 349.503L248.547 349.492C248.589 349.372 248.638 349.235 248.687 349.09C248.873 348.538 249.126 347.716 249.154 346.838C249.184 345.914 248.966 344.785 248.064 343.85C247.203 342.958 245.97 342.508 244.544 342.334C242.021 342.027 237.666 341.957 234.044 341.957C232.211 341.957 230.53 341.975 229.307 341.993C228.695 342.002 228.198 342.011 227.852 342.018C227.77 342.02 227.696 342.021 227.632 342.023ZM227.404 345.857L227.051 345.866L226.724 345.75C226.724 345.749 226.723 345.749 226.722 345.749C226.717 345.747 226.705 345.743 226.688 345.738C226.655 345.727 226.599 345.709 226.524 345.687C226.373 345.643 226.152 345.584 225.884 345.528C225.331 345.413 224.669 345.331 224.066 345.382C223.455 345.434 223.102 345.602 222.908 345.795C222.751 345.95 222.446 346.368 222.474 347.519C222.527 349.733 222.213 352.984 221.914 356.088C221.785 357.425 221.658 358.734 221.565 359.922C221.47 361.137 221.408 362.218 221.395 363.121C221.45 363.033 221.507 362.943 221.565 362.849C221.636 362.736 221.71 362.618 221.788 362.494C222.102 361.994 222.459 361.439 222.864 360.882C224.537 358.585 227.107 356.202 231.698 356.202C240.363 356.202 243.733 362.724 245.124 366.064C245.138 364.171 245.088 362.063 245.012 359.998C244.926 357.686 244.809 355.451 244.714 353.654C244.707 353.523 244.701 353.395 244.694 353.269C244.646 352.345 244.604 351.544 244.58 350.939C244.568 350.636 244.559 350.369 244.556 350.153C244.554 349.982 244.552 349.714 244.581 349.488C244.626 349.136 244.741 348.789 244.811 348.581C244.85 348.467 244.892 348.346 244.931 348.236L244.938 348.216C244.981 348.095 245.022 347.98 245.061 347.863C245.228 347.369 245.32 346.997 245.329 346.715C245.333 346.59 245.318 346.53 245.313 346.514C245.311 346.508 245.314 346.513 245.31 346.509C245.295 346.493 245.045 346.252 244.082 346.135C241.828 345.86 237.706 345.785 234.044 345.785C232.235 345.785 230.574 345.803 229.364 345.821C228.759 345.83 228.268 345.839 227.929 345.846C227.759 345.849 227.627 345.852 227.538 345.854L227.404 345.857Z" fill="#1C1C04"/>
<path fillRule="evenodd" clipRule="evenodd" d="M128.58 387.457C129.002 387.469 129.336 387.821 129.324 388.244L128.888 404.307C128.876 404.73 128.524 405.063 128.102 405.052C127.679 405.041 127.346 404.689 127.357 404.266L127.794 388.202C127.805 387.779 128.157 387.446 128.58 387.457Z" fill="#1C1C04"/>
<path fillRule="evenodd" clipRule="evenodd" d="M100.265 398.745C100.687 398.778 101.002 399.147 100.969 399.568L100.206 399.509L99.4431 399.45C99.4758 399.028 99.844 398.713 100.265 398.745ZM100.206 399.509C99.4431 399.45 99.4431 399.449 99.4431 399.45L99.4401 399.489L99.4319 399.6C99.4248 399.697 99.4147 399.839 99.4025 400.02C99.378 400.383 99.3451 400.902 99.311 401.531C99.243 402.787 99.1702 404.485 99.1518 406.245C99.1336 408 99.1692 409.836 99.3219 411.362C99.3981 412.124 99.5054 412.83 99.6569 413.419C99.8011 413.98 100.012 414.546 100.362 414.927C100.648 415.238 101.132 415.259 101.444 414.973C101.755 414.687 101.775 414.202 101.489 413.891C101.407 413.802 101.271 413.549 101.139 413.037C101.015 412.554 100.918 411.933 100.845 411.21C100.701 409.766 100.665 407.995 100.683 406.261C100.701 404.531 100.772 402.856 100.84 401.614C100.873 400.993 100.906 400.48 100.93 400.123C100.942 399.945 100.952 399.806 100.959 399.711L100.967 399.604L100.969 399.568L100.206 399.509Z" fill="#1C1C04"/>
<path d="M126.752 334.105C126.752 334.105 131.085 344.058 134.124 345.176C137.163 346.294 138.035 337.581 136.726 334.327C135.418 331.073 128.704 320.215 131.958 321.31C135.211 322.405 140.202 333.247 141.717 338.454C143.233 343.66 143.026 357.121 143.677 360.811C144.328 364.502 144.978 368.193 139.084 369.923C133.19 371.653 131.054 369.272 134.744 367.971C138.433 366.669 141.909 359.724 139.957 357.557C138.005 355.39 130.84 352.779 129.753 350.613C128.666 348.446 126.752 334.105 126.752 334.105Z" fill="#C4A20D"/>
<path d="M144.542 320.001C144.542 320.001 143.455 320.43 144.328 324.771C145.2 329.112 146.708 327.834 151.921 330.636C157.134 333.438 164.72 335.628 164.505 344.74C164.291 353.851 165.156 376.646 164.283 381.638C163.411 386.63 161.903 397.916 164.283 394.448C166.664 390.979 168.195 375.995 168.409 372.955C168.624 369.915 166.243 338.009 166.457 334.755C166.672 331.501 166.457 330.161 162.331 327.811C158.206 325.46 143.026 314.786 144.542 320.001Z" fill="#C4A20D"/>
<path d="M308.796 337.144C305.734 338.01 302.289 344.089 301.202 347.343C300.115 350.597 294.474 359.931 295.775 361.455C296.541 362.327 299.289 367.848 301.539 372.603C301.539 369.18 301.593 365.896 301.853 363.047C303.009 350.605 309.087 347.42 315.31 343.905C321.533 340.391 324.274 341.738 329.341 340.146C332.747 339.074 333.666 334.189 335.051 330.146C330.506 331.975 325.872 333.575 321.166 334.939C317.913 335.843 311.835 336.279 308.796 337.144Z" fill="#C4A20D"/>
</svg>
