<svg width="35" height="35" viewBox="0 0 35 35" fill="none" xmlns="http://www.w3.org/2000/svg">
<path fillRule="evenodd" clipRule="evenodd" d="M33.7695 10.13C34.6901 9.20931 34.6901 7.71664 33.7695 6.79598L28.0664 1.09288C27.1457 0.172224 25.6531 0.172223 24.7324 1.09288L19.0293 6.79598C18.1086 7.71664 16.616 7.71664 15.6953 6.79598L9.99221 1.09288C9.07155 0.172224 7.57888 0.172223 6.65822 1.09288L0.955119 6.79598C0.0344631 7.71664 0.0344615 9.20931 0.955118 10.13L6.65822 15.8331C7.57887 16.7537 7.57888 18.2464 6.65822 19.1671L0.955121 24.8702C0.0344645 25.7908 0.0344618 27.2835 0.955118 28.2042L6.65822 33.9073C7.57887 34.8279 9.07155 34.8279 9.99221 33.9073L15.6953 28.2042C16.616 27.2835 18.1086 27.2835 19.0293 28.2042L24.7324 33.9072C25.6531 34.8279 27.1457 34.8279 28.0664 33.9073L33.7695 28.2042C34.6901 27.2835 34.6901 25.7908 33.7695 24.8702L28.0664 19.1671C27.1457 18.2464 27.1457 16.7537 28.0664 15.8331L33.7695 10.13Z" fill="white"/>
</svg>
