<svg width="71" height="71" viewBox="0 0 71 71" fill="none" xmlns="http://www.w3.org/2000/svg">
<g clipPath="url(#clip0_101_3984)">
<path d="M24.819 58.4322C37.4068 64.3822 52.4966 58.8704 58.5229 46.1212C64.5493 33.3721 59.2301 18.2133 46.6423 12.2633C34.0545 6.31322 18.9648 11.825 12.9385 24.5742C6.91211 37.3234 12.2312 52.4821 24.819 58.4322Z" fill="#F1D51A"/>
<path d="M45.219 15.2742C57.2592 20.9654 62.9844 34.1175 58.0063 44.6491L58.9725 45.1058C61.5021 39.047 61.6288 32.2616 59.3263 26.1591C57.0238 20.0565 52.469 15.1059 46.608 12.3355C40.7471 9.56517 34.0305 9.18799 27.8534 11.2824C21.6763 13.3767 16.5136 17.7816 13.4375 23.5821L14.4037 24.0389C19.3818 13.5073 33.1787 9.58297 45.219 15.2742Z" fill="#FFEB65"/>
<path d="M58.0063 44.6492C53.0283 55.1807 39.2313 59.1051 27.1911 53.4138C15.1509 47.7226 9.42572 34.5705 14.4038 24.039L13.4376 23.5823C13.2662 23.9089 13.0974 24.238 12.9384 24.5742C10.0445 30.6966 9.67037 37.7033 11.8984 44.0529C14.1265 50.4025 18.7741 55.5749 24.819 58.4322C30.8639 61.2895 37.8108 61.5977 44.1315 59.289C50.4522 56.9802 55.6289 52.2437 58.5229 46.1213C58.6818 45.785 58.8289 45.4457 58.9725 45.1059L58.0063 44.6492Z" fill="#F1D51A"/>
<path d="M56.1493 27.5764C56.6213 27.4038 56.8161 26.7289 56.5843 26.069C56.3525 25.4091 55.7819 25.0141 55.3098 25.1867C54.8378 25.3593 54.643 26.0342 54.8748 26.6941C55.1066 27.354 55.6772 27.749 56.1493 27.5764Z" fill="#F6FAFD"/>
<path d="M51.8762 19.5325C52.1125 19.4461 52.2101 19.1086 52.0942 18.7786C51.9783 18.4487 51.6928 18.2513 51.4565 18.3377C51.2201 18.4241 51.1225 18.7616 51.2384 19.0916C51.3543 19.4215 51.6399 19.6189 51.8762 19.5325Z" fill="#F6FAFD"/>
<path d="M54.5449 25.3599C55.489 25.0147 55.8784 23.6645 55.4146 22.3441C54.9508 21.0238 53.8094 20.2333 52.8653 20.5785C51.9211 20.9237 51.5318 22.274 51.9956 23.5943C52.4594 24.9147 53.6008 25.7051 54.5449 25.3599Z" fill="#F6FAFD"/>
<path d="M38.5238 55.0869C39.8332 52.3168 36.4663 47.9748 30.9863 45.3844C25.5062 42.7941 20.0139 42.9485 18.7045 45.7187L18.5437 45.8023C17.5178 44.1257 16.9259 42.2133 16.8219 40.2385C16.7179 38.2637 17.1051 36.2892 17.9483 34.4941C18.1668 33.9436 18.5912 33.5001 19.1291 33.26C19.6671 33.02 20.2753 33.0028 20.8214 33.2121C22.172 35.1767 26.6793 37.209 33.3584 40.3661C40.0375 43.5232 44.4688 45.716 46.8343 45.508C47.3454 45.7957 47.721 46.2766 47.8789 46.8459C48.0369 47.4152 47.9644 48.0265 47.6773 48.5465C46.8254 50.3375 45.5454 51.89 43.9534 53.0631C42.3615 54.2363 40.508 54.9929 38.5613 55.2643L38.5238 55.0869Z" fill="#273941"/>
<path d="M38.5239 55.0868L38.5613 55.2641C34.6617 55.8101 30.7008 55.1655 27.1909 53.4137C23.6094 51.8135 20.5971 49.162 18.5438 45.8022L18.7045 45.7185C20.0139 42.9484 25.5063 42.794 30.9863 45.3843C36.4663 47.9746 39.8333 52.3167 38.5239 55.0868Z" fill="#FF7C9C"/>
<path d="M35.4147 16.7794C36.0308 17.0625 36.5806 17.4722 37.0291 17.9825C37.4777 18.4928 37.8153 19.0925 38.0204 19.7436C38.2256 20.3948 38.2939 21.0831 38.221 21.765C38.148 22.4469 37.9355 23.1075 37.5968 23.7049C34.181 30.9313 24.8511 31.4329 23.3646 30.7303C22.6511 30.393 16.8157 23.0914 19.4049 16.1004C19.5131 15.8201 19.6313 15.5444 19.7594 15.2734C20.1939 14.1456 21.0217 13.2134 22.0864 12.6532C23.151 12.0929 24.3786 11.9435 25.5368 12.2331C25.8684 12.3059 26.1902 12.4168 26.496 12.5637C28.7257 13.6176 29.453 15.9261 29.0577 18.6862C30.9395 16.6287 33.185 15.7255 35.4147 16.7794Z" fill="#FF7C9C"/>
<path d="M61.3799 34.9469C61.2534 35.2145 61.1154 35.4808 60.9659 35.7458C57.2668 42.2121 48.5747 42.6468 47.1477 41.9723C46.4045 41.621 40.1267 33.7419 43.5425 26.5154C43.7892 25.8745 44.1647 25.291 44.6453 24.8018C45.126 24.3126 45.7012 23.9285 46.3346 23.6737C46.968 23.4189 47.6456 23.2991 48.3247 23.3218C49.0037 23.3445 49.6692 23.5093 50.2791 23.8057C52.5088 24.8596 53.2361 27.1681 52.8408 29.9282C54.7226 27.8707 56.9681 26.9675 59.1978 28.0214C59.5054 28.1645 59.7953 28.3427 60.062 28.5527C61.021 29.2639 61.6848 30.3073 61.9276 31.4856C62.1705 32.6639 61.9756 33.8953 61.3799 34.9469Z" fill="#FF7C9C"/>
<path d="M19.8726 35.2195C21.2232 37.1841 25.7304 39.2163 32.4095 42.3734C39.0887 45.5305 43.52 47.7234 45.8854 47.5154C46.2987 47.7362 46.6259 48.09 46.8157 48.5212C47.0054 48.9524 47.0469 49.4363 46.9335 49.8969C47.2092 49.4626 47.4576 49.0116 47.6773 48.5465C47.9644 48.0265 48.0369 47.4152 47.8789 46.8459C47.721 46.2766 47.3454 45.7957 46.8343 45.508C44.4688 45.716 40.0375 43.5232 33.3584 40.3661C26.6793 37.209 22.172 35.1767 20.8214 33.2121C20.2753 33.0028 19.6671 33.02 19.1291 33.26C18.5912 33.5001 18.1668 33.9436 17.9483 34.4941C17.7285 34.9588 17.5378 35.4367 17.3774 35.9249C17.6595 35.5458 18.0578 35.2707 18.5095 35.143C18.9612 35.0153 19.4407 35.0422 19.8726 35.2195Z" fill="#14242C"/>
<path d="M38.7774 53.3475C35.1122 53.7027 31.4309 53.0309 28.1398 51.4063C24.7955 49.8944 21.9396 47.4762 19.8876 44.4186C19.3788 44.7297 18.9681 45.1809 18.7046 45.7185L18.5438 45.8021C20.5972 49.162 23.6094 51.8135 27.191 53.4137C30.7008 55.1655 34.6617 55.8101 38.5613 55.2641L38.5239 55.0868C38.772 54.5419 38.86 53.9382 38.7774 53.3475Z" fill="#FF7C9C"/>
<path d="M47.1477 41.9724C46.4441 41.6398 40.7933 34.5605 43.0899 27.6756C42.9041 27.9456 42.7383 28.2287 42.5936 28.5229C39.1778 35.7493 45.4556 43.6284 46.1988 43.9797C47.6258 44.6542 56.3179 44.2196 60.017 37.7533C60.1665 37.4883 60.3045 37.222 60.431 36.9543C60.5744 36.6493 60.6951 36.334 60.792 36.0112C57.0063 42.2119 48.5539 42.6371 47.1477 41.9724Z" fill="#F1D51A"/>
<path d="M23.3645 30.7304C22.6609 30.3979 17.0101 23.3186 19.3067 16.4337C19.1209 16.7036 18.9551 16.9868 18.8104 17.2809C15.3946 24.5074 21.6724 32.3865 22.4156 32.7378C23.8426 33.4123 32.5347 32.9776 36.2338 26.5113C36.3833 26.2463 36.5213 25.98 36.6478 25.7124C36.7912 25.4073 36.9119 25.0921 37.0088 24.7693C33.2231 30.9699 24.7706 31.3951 23.3645 30.7304Z" fill="#F1D51A"/>
<path d="M59.1979 28.0213C56.9682 26.9674 54.7227 27.8706 52.8409 29.9281C54.2725 28.3946 55.9983 27.7369 57.7325 28.5566C58.2065 28.7641 58.6316 29.069 58.9809 29.452C59.3301 29.835 59.5959 30.2878 59.7614 30.7816C59.927 31.2754 59.9886 31.7995 59.9423 32.3207C59.8961 32.8419 59.7431 33.3488 59.493 33.8093C56.9311 39.2291 49.7275 39.5078 48.5711 38.9612C48.0161 38.6989 43.4285 33.1229 45.3543 27.8715C45.4343 27.6637 45.5236 27.4542 45.6194 27.2515C45.961 26.3971 46.602 25.6968 47.4197 25.2846C48.2373 24.8724 49.1741 24.7773 50.0506 25.0176C50.3081 25.076 50.558 25.1633 50.7957 25.2777C52.5299 26.0974 53.1171 27.8485 52.8409 29.9281C53.2362 27.168 52.5089 24.8595 50.2792 23.8056C49.9734 23.6587 49.6516 23.5478 49.3201 23.475C48.1618 23.1854 46.9342 23.3349 45.8696 23.8951C44.8049 24.4554 43.9771 25.3876 43.5426 26.5154C43.4161 26.783 43.2979 27.0587 43.1881 27.3424C40.5989 34.3333 46.4343 41.6349 47.1478 41.9722C48.6343 42.6748 57.9642 42.1732 61.38 34.9468C61.7187 34.3494 61.9312 33.6889 62.0042 33.007C62.0771 32.325 62.0088 31.6367 61.8036 30.9856C61.5985 30.3344 61.2609 29.7347 60.8123 29.2244C60.3638 28.7141 59.814 28.3045 59.1979 28.0213Z" fill="#FF7C9C"/>
<path d="M35.4147 16.7794C33.185 15.7255 30.9395 16.6287 29.0577 18.6862C30.4893 17.1527 32.2151 16.4949 33.9493 17.3146C34.4233 17.5221 34.8484 17.827 35.1977 18.21C35.5469 18.593 35.8127 19.0458 35.9782 19.5396C36.1438 20.0335 36.2054 20.5576 36.1591 21.0788C36.1129 21.6 35.9599 22.1068 35.7098 22.5673C33.1479 27.9871 25.9443 28.2659 24.7879 27.7192C24.2329 27.4569 19.6453 21.8809 21.5711 16.6295C21.652 16.4197 21.7414 16.2102 21.8362 16.0095C22.1778 15.1552 22.8188 14.4548 23.6365 14.0426C24.4541 13.6304 25.3909 13.5353 26.2674 13.7756C26.5249 13.8341 26.7748 13.9213 27.0125 14.0357C28.7467 14.8555 29.3339 16.6065 29.0577 18.6862C29.453 15.9261 28.7257 13.6176 26.496 12.5637C26.1902 12.4168 25.8684 12.3059 25.5368 12.2331C24.3786 11.9435 23.151 12.0929 22.0864 12.6532C21.0217 13.2134 20.1939 14.1456 19.7594 15.2734C19.6329 15.5411 19.5147 15.8167 19.4049 16.1004C16.8157 23.0914 22.6511 30.393 23.3646 30.7303C24.8511 31.4329 34.181 30.9313 37.5968 23.7049C37.9355 23.1075 38.148 22.4469 38.221 21.765C38.2939 21.0831 38.2256 20.3948 38.0204 19.7436C37.8153 19.0925 37.4777 18.4928 37.0291 17.9825C36.5806 17.4722 36.0308 17.0625 35.4147 16.7794Z" fill="#FF7C9C"/>
<path d="M59.2064 33.9328C59.6785 33.7602 59.8732 33.0853 59.6414 32.4254C59.4096 31.7656 58.839 31.3705 58.367 31.5432C57.8949 31.7158 57.7001 32.3907 57.9319 33.0505C58.1637 33.7104 58.7343 34.1054 59.2064 33.9328Z" fill="#F6FAFD"/>
<path d="M58.4646 31.243C58.7009 31.1565 58.7985 30.819 58.6826 30.4891C58.5667 30.1591 58.2812 29.9617 58.0448 30.0481C57.8085 30.1345 57.7109 30.4721 57.8268 30.802C57.9427 31.1319 58.2282 31.3294 58.4646 31.243Z" fill="#F6FAFD"/>
<path d="M35.4232 22.6914C35.8953 22.5187 36.09 21.8439 35.8582 21.184C35.6264 20.5241 35.0558 20.1291 34.5838 20.3017C34.1117 20.4743 33.9169 21.1492 34.1487 21.8091C34.3805 22.469 34.9511 22.864 35.4232 22.6914Z" fill="#F6FAFD"/>
<path d="M34.6821 20.0008C34.9184 19.9144 35.016 19.5768 34.9001 19.2469C34.7842 18.9169 34.4987 18.7195 34.2624 18.8059C34.026 18.8924 33.9284 19.2299 34.0443 19.5598C34.1602 19.8898 34.4458 20.0872 34.6821 20.0008Z" fill="#F6FAFD"/>
<path d="M62.0845 35.9673C62.1822 35.7838 62.2828 35.6018 62.371 35.4151C63.02 34.2178 63.2527 32.8393 63.0318 31.5011C62.8108 30.163 62.149 28.9432 61.1529 28.0378C60.1511 24.3789 58.3794 20.9872 55.9578 18.092C53.5362 15.1969 50.5211 12.8658 47.1163 11.2564C43.7115 9.64702 39.9963 8.79681 36.2221 8.76327C32.4479 8.72974 28.7025 9.51366 25.2393 11.062C23.9078 10.869 22.5462 11.1329 21.3728 11.8116C20.1994 12.4904 19.2823 13.5444 18.7685 14.8049C18.6817 14.9885 18.6039 15.1839 18.5241 15.3758C15.7536 17.7947 13.5129 20.769 11.9475 24.1055C8.9277 30.4941 8.53733 37.8054 10.8622 44.431C13.1872 51.0567 18.0369 56.454 24.3446 59.4355C30.6523 62.4171 37.9012 62.7387 44.4968 60.3296C51.0923 57.9204 56.4941 52.9779 59.5139 46.5894C61.0984 43.2622 61.9742 39.6432 62.0845 35.9673ZM60.3891 34.4783C60.2733 34.7232 60.1482 34.9648 60.0146 35.2013C56.7507 40.9033 49.0555 41.458 47.6841 40.9915C46.8878 40.2627 41.55 33.2957 44.5336 26.9836C44.7161 26.4736 45.0032 26.0073 45.376 25.6153C45.7489 25.2232 46.199 24.9143 46.6969 24.709C47.1948 24.5036 47.7291 24.4063 48.2648 24.4236C48.8004 24.4408 49.3253 24.5722 49.8048 24.8091C51.865 25.783 52.0014 28.0491 51.7522 29.7818C51.7182 30.016 51.7594 30.2542 51.8696 30.4618C51.9798 30.6693 52.1534 30.8351 52.3649 30.9351C52.5763 31.0351 52.8147 31.0639 53.045 31.0173C53.2753 30.9708 53.4855 30.8514 53.6449 30.6764C54.8247 29.3861 56.6633 28.051 58.7235 29.0249C58.9672 29.1387 59.1966 29.2809 59.407 29.4486C60.1621 30.0083 60.6808 30.8333 60.8624 31.7629C61.0439 32.6926 60.8752 33.6604 60.3891 34.4783ZM25.2603 13.308L25.3017 13.3178C25.5506 13.3727 25.7922 13.4564 26.0216 13.5672C28.0818 14.541 28.2182 16.8072 27.969 18.5398C27.935 18.774 27.9762 19.0123 28.0864 19.2198C28.1966 19.4273 28.3702 19.5932 28.5817 19.6932C28.7931 19.7931 29.0314 19.8219 29.2618 19.7754C29.4921 19.7289 29.7023 19.6094 29.8617 19.4345C31.0415 18.1441 32.8801 16.8091 34.9403 17.7829C35.4277 18.0031 35.8624 18.3253 36.2158 18.7282C36.5691 19.1311 36.8331 19.6058 36.9904 20.1209C37.1477 20.6359 37.1948 21.1798 37.1285 21.7168C37.0623 22.2538 36.8841 22.7716 36.6059 23.2363C33.4676 29.8756 25.073 30.1194 23.8926 29.7518C22.8177 28.8274 18.2575 22.352 20.4256 16.4981C20.5264 16.2387 20.6342 15.9876 20.7504 15.7417C21.0738 14.847 21.7146 14.1022 22.5482 13.6524C23.3818 13.2026 24.3485 13.0798 25.2603 13.308ZM25.2934 57.4282C21.9139 55.8286 18.9572 53.4554 16.6566 50.4959C14.356 47.5363 12.7745 44.0714 12.0369 40.3747C11.2993 36.6779 11.4259 32.8504 12.4065 29.1943C13.3872 25.5382 15.1951 22.1536 17.6876 19.3076C17.4377 25.5022 21.7635 31.2012 22.8902 31.7338C25.0119 32.7367 34.9068 31.9606 38.5878 24.1731C38.9879 23.4435 39.2357 22.6402 39.3158 21.8132C39.396 20.9861 39.3067 20.153 39.0537 19.3654C38.8006 18.5779 38.3891 17.8529 37.8447 17.2353C37.3003 16.6178 36.6347 16.1209 35.8891 15.7756C34.9843 15.351 33.9827 15.1739 32.9838 15.2619C31.985 15.3499 31.0239 15.7 30.1963 16.2773C30.0552 14.7236 29.3137 13.294 28.1316 12.2966C34.0647 10.2538 40.5297 10.6015 46.1679 13.2666C51.8061 15.9317 56.1784 20.7066 58.366 26.5879C56.8449 26.3076 55.2696 26.6421 53.9795 27.5192C53.9002 26.5132 53.5607 25.5484 52.9947 24.7207C52.4287 23.893 51.6561 23.2314 50.7536 22.8018C50.0136 22.4449 49.2071 22.2459 48.3844 22.2173C47.5616 22.1886 46.7402 22.3308 45.971 22.6352C45.2018 22.9395 44.5014 23.3994 43.9132 23.9863C43.3249 24.5732 42.8615 25.2745 42.5517 26.0468C38.7729 34.0411 45.6131 42.4745 46.6734 42.9757C48.2808 43.7355 55.0508 43.3992 59.5596 39.2238C58.9259 42.9436 57.447 46.4731 55.239 49.5354C53.031 52.5977 50.1541 55.1094 46.8339 56.8732C43.5138 58.6371 39.8408 59.6052 36.1034 59.7015C32.366 59.7978 28.6659 59.0196 25.2934 57.4282Z" fill="#141E21"/>
<path d="M47.3087 44.5043C47.1347 44.4221 46.9419 44.3877 46.7496 44.4046C44.8347 44.5726 40.7631 42.6395 35.1275 39.9756L32.5371 38.7512C26.8985 36.0859 22.8223 34.1678 21.7262 32.5752C21.617 32.4162 21.4678 32.2894 21.2938 32.2075C20.4849 31.8748 19.5752 31.8792 18.7629 32.2198C17.9506 32.5603 17.3016 33.2095 16.9573 34.0257C16.0367 35.9826 15.6126 38.1353 15.7234 40.2889C15.8342 42.4425 16.4764 44.5289 17.5918 46.3592C19.759 49.9107 22.9367 52.717 26.7165 54.4175C30.429 56.2599 34.6144 56.9348 38.7342 56.3553C40.8569 56.0554 42.8771 55.2271 44.6117 53.9453C46.3463 52.6636 47.7406 50.9689 48.6682 49.0149C49.0804 48.2286 49.1688 47.3129 48.914 46.4678C48.6593 45.6226 48.0822 44.9168 47.3087 44.5043ZM19.8945 45.8686C21.1464 44.2537 25.5659 44.0502 30.5119 46.3881C35.4578 48.726 38.1048 52.2697 37.6531 54.2615C34.2098 54.5749 30.7562 53.9347 27.6653 52.4101C24.5253 50.9899 21.8383 48.7279 19.8945 45.8686ZM39.8839 53.8204C39.8938 50.6497 36.5909 46.8057 31.4607 44.3808C26.3305 41.9558 21.2637 41.8435 18.8199 43.8638C18.1986 42.4664 17.8875 40.9465 17.9081 39.4095C17.9287 37.8725 18.2806 36.3551 18.9393 34.9625C19.0356 34.7203 19.2031 34.513 19.4192 34.3687C19.6353 34.2244 19.8895 34.1501 20.1474 34.1558C21.7323 36.1096 25.5181 37.888 31.5903 40.7595L34.1767 41.982C40.2424 44.8492 44.0261 46.6475 46.5358 46.6292C46.7058 46.8244 46.8114 47.0682 46.8383 47.3274C46.8652 47.5867 46.8122 47.8488 46.6863 48.0781C46.0282 49.471 45.079 50.706 43.9044 51.6975C42.7299 52.6891 41.358 53.4134 39.8839 53.8204Z" fill="#141E21"/>
</g>
<defs>
<clipPath id="clip0_101_3984">
<rect width="52.6126" height="53.2871" fill="white" transform="translate(23.3335 0.0175781) rotate(25.2994)"/>
</clipPath>
</defs>
</svg>
