<svg width="75" height="75" viewBox="0 0 75 75" fill="none" xmlns="http://www.w3.org/2000/svg">
<g clipPath="url(#clip0_101_3906)">
<path d="M22.3924 57.1417C34.0018 65.1467 49.9024 62.2247 57.9074 50.6153C65.9124 39.0059 62.9905 23.1053 51.381 15.1003C39.7716 7.09529 23.871 10.0172 15.866 21.6267C7.86101 33.2361 10.783 49.1367 22.3924 57.1417Z" fill="#F1D51A"/>
<path d="M24.7546 43.9373C26.7448 41.051 33.5953 44.6392 37.3288 47.2136L36.0684 49.0415C30.7136 45.3492 25.2387 43.5227 24.7546 43.9373Z" fill="#273941"/>
<path d="M55.8157 38.2774C55.8239 38.1833 55.8193 38.0884 55.8226 37.9936L55.0071 39.1762C54.6729 39.661 54.1597 39.9932 53.5805 40.0996C53.0014 40.206 52.4036 40.078 51.9189 39.7437C51.4341 39.4095 51.1019 38.8963 50.9955 38.3171C50.8891 37.738 51.0171 37.1403 51.3514 36.6555L52.6117 34.8276L47.6216 31.3868C46.0232 31.7609 44.6223 32.7186 43.6934 34.072C42.6906 35.5264 42.3065 37.3196 42.6258 39.057C42.9451 40.7945 43.9415 42.334 45.3959 43.3368C46.8503 44.3397 48.6434 44.7237 50.3809 44.4044C52.1184 44.0851 53.6579 43.0887 54.6607 41.6343C55.3489 40.6438 55.7487 39.4817 55.8157 38.2774Z" fill="#F6FAFD"/>
<path d="M51.9189 39.7438C52.4037 40.0781 53.0015 40.2061 53.5806 40.0996C54.1598 39.9932 54.6729 39.6611 55.0072 39.1763L55.8227 37.9936C55.835 37.6643 55.8187 37.3346 55.7741 37.0081L52.6118 34.8276L51.3514 36.6555C51.0172 37.1403 50.8892 37.738 50.9956 38.3172C51.102 38.8964 51.4342 39.4095 51.9189 39.7438Z" fill="#273941"/>
<path d="M37.5369 25.6736C37.5451 25.5795 37.5404 25.4846 37.5438 25.3898L36.7283 26.5725C36.394 27.0573 35.8809 27.3894 35.3017 27.4958C34.7226 27.6023 34.1248 27.4743 33.6401 27.14C33.1553 26.8057 32.8231 26.2925 32.7167 25.7134C32.6103 25.1342 32.7383 24.5365 33.0725 24.0517L34.3329 22.2238L29.3428 18.783C27.7444 19.1571 26.3434 20.1148 25.4146 21.4683C24.4117 22.9226 24.0277 24.7158 24.347 26.4533C24.6663 28.1908 25.6627 29.7303 27.1171 30.7331C28.5714 31.7359 30.3646 32.1199 32.1021 31.8006C33.8396 31.4813 35.3791 30.4849 36.3819 29.0305C37.0701 28.04 37.4699 26.8779 37.5369 25.6736Z" fill="#F6FAFD"/>
<path d="M33.6401 27.14C34.1249 27.4743 34.7226 27.6023 35.3018 27.4959C35.881 27.3894 36.3941 27.0573 36.7284 26.5725L37.5439 25.3899C37.5562 25.0606 37.5399 24.7308 37.4953 24.4043L34.333 22.2239L33.0726 24.0518C32.7384 24.5365 32.6104 25.1343 32.7168 25.7134C32.8232 26.2926 33.1554 26.8058 33.6401 27.14Z" fill="#273941"/>
<path d="M49.4906 17.842C60.595 25.4988 64.2363 39.4811 57.6238 49.0711L58.5149 49.6855C61.986 44.1123 63.1768 37.416 61.8399 30.9878C60.503 24.5595 56.7411 18.8933 51.3357 15.1661C45.9303 11.4389 39.2969 9.93728 32.8133 10.9731C26.3297 12.0089 20.4943 15.5026 16.5192 20.7284L17.4103 21.3428C24.0228 11.7528 38.3862 10.1852 49.4906 17.842Z" fill="#FFEB65"/>
<path d="M57.6238 49.0711C51.0112 58.6611 36.6479 60.2287 25.5435 52.5719C14.439 44.9151 10.7977 30.9328 17.4103 21.3428L16.5192 20.7284C16.2972 21.023 16.0773 21.3204 15.8661 21.6266C12.022 27.2016 10.55 34.0754 11.7739 40.7358C12.9979 47.3961 16.8175 53.2975 22.3925 57.1416C27.9675 60.9858 34.8413 62.4578 41.5017 61.2338C48.162 60.0099 54.0634 56.1903 57.9075 50.6153C58.1187 50.3091 58.3185 49.9978 58.5149 49.6856L57.6238 49.0711Z" fill="#F1D51A"/>
<path d="M58.3098 31.0853C58.8073 30.9937 59.1072 30.3583 58.9798 29.6661C58.8523 28.9738 58.3457 28.4869 57.8482 28.5785C57.3508 28.6701 57.0508 29.3055 57.1783 29.9978C57.3057 30.69 57.8123 31.1769 58.3098 31.0853Z" fill="#F6FAFD"/>
<path d="M55.3145 22.4047C55.5635 22.3589 55.7138 22.0411 55.65 21.695C55.5863 21.3489 55.3328 21.1055 55.0837 21.1514C54.8347 21.1972 54.6845 21.515 54.7482 21.8611C54.8119 22.2072 55.0655 22.4506 55.3145 22.4047Z" fill="#F6FAFD"/>
<path d="M57.0587 28.6215C58.0536 28.4383 58.6534 27.167 58.3984 25.782C58.1434 24.3969 57.1301 23.4226 56.1352 23.6058C55.1403 23.789 54.5405 25.0603 54.7955 26.4454C55.0505 27.8304 56.0638 28.8047 57.0587 28.6215Z" fill="#F6FAFD"/>
<path d="M45.3959 43.3367C44.104 42.4442 43.169 41.1241 42.7559 39.6093C42.3427 38.0944 42.478 36.4824 43.1378 35.0576C42.4551 35.7507 41.9326 36.5849 41.607 37.5017C41.2813 38.4184 41.1604 39.3953 41.2527 40.3637C41.3451 41.3322 41.6484 42.2686 42.1415 43.1073C42.6345 43.9459 43.3053 44.6664 44.1066 45.218C44.9079 45.7696 45.8203 46.139 46.7797 46.3002C47.7391 46.4615 48.7222 46.4106 49.6598 46.1511C50.5974 45.8917 51.4668 45.4301 52.2069 44.7987C52.9469 44.1672 53.5397 43.3814 53.9435 42.4963C52.8469 43.6224 51.3875 44.3244 49.8232 44.4782C48.259 44.632 46.6908 44.2277 45.3959 43.3367Z" fill="#F1D51A"/>
<path d="M27.1171 30.733C25.8252 29.8405 24.8902 28.5203 24.4771 27.0055C24.0639 25.4907 24.1992 23.8786 24.859 22.4538C24.1763 23.1469 23.6538 23.9812 23.3282 24.8979C23.0025 25.8146 22.8816 26.7915 22.9739 27.76C23.0663 28.7284 23.3696 29.6649 23.8627 30.5035C24.3557 31.3421 25.0265 32.0626 25.8278 32.6142C26.6291 33.1659 27.5415 33.5353 28.5009 33.6965C29.4603 33.8577 30.4434 33.8068 31.381 33.5474C32.3186 33.288 33.188 32.8263 33.928 32.1949C34.6681 31.5635 35.2609 30.7776 35.6647 29.8925C34.5681 31.0186 33.1087 31.7206 31.5444 31.8744C29.9802 32.0282 28.4119 31.6239 27.1171 30.733Z" fill="#F1D51A"/>
<path d="M52.6119 34.8275L55.7742 37.0079C55.8188 37.3344 55.8351 37.6642 55.8228 37.9935C55.8194 38.0883 55.8259 38.1844 55.8159 38.2773C55.7529 39.3198 55.4395 40.3318 54.9022 41.2275C55.0378 41.0661 55.1688 40.8975 55.2911 40.7202C55.9793 39.7297 56.3791 38.5676 56.4461 37.3633C56.4543 37.2692 56.4496 37.1743 56.453 37.0795C56.4653 36.7502 56.449 36.4205 56.4043 36.094L48.252 30.4727C46.6536 30.8468 45.2526 31.8045 44.3237 33.158C44.1905 33.3517 44.0675 33.5522 43.9553 33.7588C44.8718 32.5738 46.1652 31.7369 47.6218 31.3866L52.6119 34.8275Z" fill="#F1D51A"/>
<path d="M34.3329 22.2237L37.4951 24.4042C37.5398 24.7307 37.556 25.0604 37.5437 25.3897C37.5404 25.4845 37.5469 25.5807 37.5368 25.6735C37.4739 26.7161 37.1605 27.7281 36.6231 28.6237C36.7587 28.4623 36.8898 28.2938 37.012 28.1165C37.7002 27.1259 38.1 25.9639 38.167 24.7596C38.1752 24.6655 38.1706 24.5706 38.1739 24.4758C38.1862 24.1465 38.17 23.8167 38.1253 23.4902L29.9729 17.8689C28.3745 18.2431 26.9736 19.2007 26.0447 20.5542C25.9114 20.7479 25.7884 20.9485 25.6762 21.1551C26.5927 19.97 27.8861 19.1332 29.3427 18.7829L34.3329 22.2237Z" fill="#F1D51A"/>
<path d="M52.1837 15.1245C47.8454 12.1332 42.7175 10.4955 37.4485 10.4184C32.1795 10.3414 27.0059 11.8286 22.5821 14.6919C18.1583 17.5552 14.6828 21.666 12.5953 26.5045C10.5078 31.343 9.72954 35.7536 10.682 40.9364C11.6344 46.1193 14.2747 51.8415 17.946 55.6217C21.6173 59.4019 26.3272 62.0086 31.4799 63.112C36.6327 64.2155 41.997 63.7662 46.8944 61.821C51.7918 59.8758 56.0024 56.522 58.9938 52.1837C62.9969 46.3637 64.3556 38.2553 63.0789 31.3078C61.8022 24.3603 57.9943 19.1411 52.1837 15.1245ZM23.0226 56.2277C19.0458 53.4856 15.9715 49.6259 14.1884 45.1366C12.4053 40.6473 11.9934 35.7301 13.0049 31.0067C14.0165 26.2833 16.4059 21.966 19.8711 18.6006C23.3363 15.2352 27.7216 12.973 32.4726 12.0999C37.2235 11.2269 42.1266 11.7822 46.5619 13.6958C50.9971 15.6094 54.7654 18.7952 57.3901 22.8503C60.0147 26.9055 61.378 31.6479 61.3074 36.4779C61.2368 41.3078 59.7356 46.0084 56.9935 49.9851C53.3117 55.3117 47.6674 58.9604 41.2989 60.1307C34.9303 61.301 28.3575 59.8974 23.0226 56.2277Z" fill="#141E21"/>
<path d="M24.7546 43.9373C25.2387 43.5227 30.7136 45.3492 36.0684 49.0415L37.3288 47.2136C33.5953 44.6392 26.7448 41.051 24.7546 43.9373Z" fill="#141E21"/>
<path d="M56.9226 38.3676C56.9629 37.861 56.9456 37.3514 56.871 36.8487C56.8492 36.6975 56.7966 36.5525 56.7163 36.4227C56.636 36.2928 56.5297 36.1809 56.4042 36.094L48.2519 30.4727C48.1242 30.3848 47.9795 30.3245 47.8272 30.2959C47.6748 30.2672 47.5182 30.2708 47.3673 30.3064C45.9681 30.6397 44.6888 31.3547 43.6719 32.372C42.655 33.3892 41.9404 34.6687 41.6076 36.068C41.2748 37.4673 41.3369 38.9316 41.787 40.2977C42.2371 41.6638 43.0575 42.8782 44.1569 43.8057C45.2562 44.7332 46.5915 45.3373 48.0139 45.5509C49.4363 45.7645 50.8901 45.5791 52.2133 45.0154C53.5366 44.4517 54.6775 43.5318 55.509 42.3581C56.3404 41.1844 56.8298 39.8029 56.9226 38.3676ZM54.719 37.6384L54.0933 38.5459C53.9261 38.7883 53.6695 38.9544 53.38 39.0076C53.0904 39.0608 52.7915 38.9968 52.5491 38.8297C52.3067 38.6625 52.1407 38.406 52.0875 38.1164C52.0342 37.8268 52.0982 37.5279 52.2654 37.2855L52.8956 36.3716L54.7235 37.632L54.719 37.6384ZM46.0262 42.4228C44.8157 41.5859 43.9865 40.3032 43.7205 38.8558C43.4545 37.4084 43.7735 35.9146 44.6074 34.7021C45.2888 33.711 46.2766 32.9709 47.4192 32.5955L51.0677 35.1112L50.4375 36.0252C50.0711 36.5513 49.8652 37.1724 49.8446 37.8132C49.824 38.454 49.9898 39.087 50.3217 39.6356C50.6536 40.1841 51.1374 40.6246 51.7146 40.9038C52.2918 41.1829 52.9376 41.2886 53.5737 41.2082C52.7119 42.3406 51.4477 43.0982 50.0427 43.3243C48.6378 43.5504 47.1997 43.2276 46.0262 42.4228Z" fill="#141E21"/>
<path d="M38.6438 25.7639C38.6841 25.2572 38.6667 24.7477 38.5921 24.2449C38.5704 24.0938 38.5177 23.9488 38.4374 23.8189C38.3571 23.6891 38.2509 23.5772 38.1254 23.4903L29.973 17.869C29.8454 17.781 29.7007 17.7208 29.5483 17.6922C29.396 17.6635 29.2393 17.6671 29.0884 17.7027C27.8613 17.9951 26.7238 18.5817 25.7742 19.4121C24.8245 20.2425 24.0913 21.2915 23.6378 22.4687C23.1844 23.6458 23.0243 24.9157 23.1714 26.1686C23.3186 27.4214 23.7685 28.6196 24.4823 29.6597C25.1962 30.6998 26.1525 31.5504 27.2687 32.1382C28.3849 32.7259 29.6274 33.0331 30.8889 33.0332C32.1503 33.0333 33.3929 32.7263 34.5091 32.1387C35.6254 31.5511 36.5819 30.7006 37.2959 29.6607C38.0939 28.5098 38.5601 27.1618 38.6438 25.7639ZM36.4402 25.0347L35.8144 25.9422C35.6473 26.1846 35.3907 26.3507 35.1011 26.4039C34.8115 26.4571 34.5127 26.3931 34.2703 26.226C34.0279 26.0588 33.8618 25.8022 33.8086 25.5127C33.7554 25.2231 33.8194 24.9242 33.9865 24.6818L34.6167 23.7679L36.4446 25.0283L36.4402 25.0347ZM27.7473 29.8191C26.5368 28.9822 25.7076 27.6994 25.4416 26.2521C25.1757 24.8047 25.4946 23.3109 26.3285 22.0984C27.0099 21.1073 27.9977 20.3672 29.1404 19.9918L32.7888 22.5075L32.1586 23.4215C31.7922 23.9476 31.5863 24.5687 31.5657 25.2095C31.5452 25.8503 31.7109 26.4833 32.0428 27.0319C32.3747 27.5804 32.8586 28.0209 33.4358 28.3001C34.013 28.5792 34.6587 28.6849 35.2948 28.6045C34.433 29.7369 33.1688 30.4945 31.7639 30.7206C30.3589 30.9467 28.9208 30.6239 27.7473 29.8191Z" fill="#141E21"/>
</g>
<defs>
<clipPath id="clip0_101_3906">
<rect width="53.2871" height="53.2871" fill="white" transform="translate(30.249) rotate(34.5873)"/>
</clipPath>
</defs>
</svg>
