<svg width="62" height="60" viewBox="0 0 62 60" fill="none" xmlns="http://www.w3.org/2000/svg">
<path d="M44.0053 44.9828C51.9992 38.4609 43.2266 32.7855 43.2266 32.7855C49.3708 25.503 41.3119 21.2484 41.3119 21.2484C43.7607 18.409 38.3798 12.0734 40.1068 10.3892C40.7444 9.73998 40.282 9.5499 40.282 9.5499C32.5547 9.18484 28.8864 14.1641 27.8311 16.6187C27.5355 17.3003 21.5375 14.7577 18.8298 22.7731C18.6934 23.1803 18.4014 23.4773 17.9662 23.4839C12.7741 23.5275 10.4167 28.7367 10.4693 30.7506C10.4693 30.7506 10.6729 30.8189 10.3714 30.7258C6.43257 29.5239 3.82877 32.1762 2.77523 34.7393C1.66723 37.435 1.84983 42.2516 7.24078 44.4674C10.2269 45.6948 12.4152 46.0075 19.4711 48.9076C26.5268 51.8077 28.7253 53.2982 37.6838 56.9804C38.5162 57.3225 38.2388 57.2085 38.8598 57.4638C40.5379 58.1535 45.5359 58.4317 47.2684 54.2166C49.0008 50.0018 46.0135 45.8083 44.0053 44.9828Z" fill="url(#paint0_linear_101_3663)"/>
<path d="M44.0053 44.9828C51.9992 38.4609 43.2266 32.7855 43.2266 32.7855C49.3708 25.503 41.3119 21.2484 41.3119 21.2484C43.7607 18.409 38.3798 12.0734 40.1068 10.3892C40.7444 9.73998 40.282 9.5499 40.282 9.5499C32.5547 9.18484 28.8864 14.1641 27.8311 16.6187C27.5355 17.3003 21.5375 14.7577 18.8298 22.7731C18.6934 23.1803 18.4014 23.4773 17.9662 23.4839C12.7741 23.5275 10.4167 28.7367 10.4693 30.7506C10.4693 30.7506 10.6729 30.8189 10.3714 30.7258C6.43257 29.5239 3.82877 32.1762 2.77523 34.7393C1.66723 37.435 1.84983 42.2516 7.24078 44.4674C10.2269 45.6948 12.4152 46.0075 19.4711 48.9076C26.5268 51.8077 28.7253 53.2982 37.6838 56.9804C38.5162 57.3225 38.2388 57.2085 38.8598 57.4638C40.5379 58.1535 45.5359 58.4317 47.2684 54.2166C49.0008 50.0018 46.0135 45.8083 44.0053 44.9828Z" fill="url(#paint1_radial_101_3663)"/>
<path d="M43.2279 32.7833C49.372 25.5009 41.3131 21.2463 41.3131 21.2463C43.7621 18.407 38.4688 12.3082 40.1079 10.3871C40.7035 9.68972 40.2832 9.54783 40.2832 9.54783C32.556 9.18279 28.8876 14.162 27.8324 16.6166C27.5367 17.2983 21.5387 14.7557 18.8311 22.7709C18.6946 23.1783 18.405 23.5072 17.9675 23.4817C22.8828 25.502 20.5902 37.3176 43.9987 44.9622C52.0227 38.0665 43.2279 32.7833 43.2279 32.7833Z" fill="url(#paint2_linear_101_3663)"/>
<path d="M43.2279 32.7833C49.372 25.5009 41.3131 21.2463 41.3131 21.2463C43.7621 18.407 38.4688 12.3082 40.1079 10.3871C40.7035 9.68972 40.2832 9.54783 40.2832 9.54783C32.556 9.18279 28.8876 14.162 27.8324 16.6166C27.5367 17.2983 21.5387 14.7557 18.8311 22.7709C18.6946 23.1783 18.405 23.5072 17.9675 23.4817C22.8828 25.502 20.5902 37.3176 43.9987 44.9622C52.0227 38.0665 43.2279 32.7833 43.2279 32.7833Z" fill="url(#paint3_radial_101_3663)"/>
<path d="M41.3131 21.2462C43.7621 18.407 38.438 12.2337 40.1082 10.3871C40.7115 9.70837 40.2832 9.54774 40.2832 9.54774C32.5561 9.18276 28.8877 14.162 27.8325 16.6166C27.8325 16.6166 23.7192 24.5946 43.2281 32.7834C49.3722 25.5009 41.3131 21.2462 41.3131 21.2462Z" fill="url(#paint4_linear_101_3663)"/>
<path d="M19.4719 48.906C26.5408 51.8116 28.726 53.2968 37.6845 56.979C14.469 47.4368 14.6586 32.4707 10.4701 30.7491C6.20256 29.5202 3.75892 32.3464 2.7759 34.738C1.668 37.4334 1.85051 42.2502 7.24146 44.4661C10.2276 45.6935 12.4028 46.0004 19.4719 48.906Z" fill="url(#paint5_linear_101_3663)"/>
<path d="M32.2925 11.5149C29.8209 13.0939 28.4104 15.2479 27.8324 16.6166C27.8324 16.6166 23.7191 24.5947 43.2279 32.7834C28.4263 25.6183 26.778 16.7393 32.2925 11.5149Z" fill="url(#paint6_linear_101_3663)"/>
<path d="M44.0063 44.98C45.2661 43.9069 46.0983 42.8588 46.6276 41.8717C44.0063 44.98 34.0096 41.1181 27.2459 34.5385C21.221 28.6796 19.2485 23.2198 19.939 20.3374C19.5347 21.0205 19.1583 21.8234 18.8388 22.7887C18.7022 23.1961 18.4126 23.525 17.9752 23.4995C21.515 25.3715 20.59 37.3168 44.0063 44.98Z" fill="url(#paint7_linear_101_3663)"/>
<path d="M10.2746 30.6998C10.346 30.7138 10.4121 30.7409 10.4704 30.7495C10.444 30.7386 10.4176 30.7275 10.3857 30.7301C10.346 30.7138 10.301 30.7107 10.2746 30.6998Z" fill="url(#paint8_linear_101_3663)"/>
<path opacity="0.5" d="M41.3131 21.2462C43.7621 18.407 38.438 12.2337 40.1082 10.3871C40.7115 9.70837 40.2832 9.54774 40.2832 9.54774C32.5561 9.18276 28.8877 14.162 27.8325 16.6166C27.8325 16.6166 23.7192 24.5946 43.2281 32.7834C49.3722 25.5009 41.3131 21.2462 41.3131 21.2462Z" fill="url(#paint9_radial_101_3663)"/>
<path opacity="0.5" d="M40.5559 20.5931L39.7355 21.5442L40.8441 22.1294L40.8448 22.1298L40.8449 22.1298L40.8454 22.1301L40.8546 22.1351C40.8647 22.1407 40.8817 22.1502 40.9052 22.1636C40.9521 22.1904 41.0243 22.2329 41.1164 22.2906C41.3011 22.4064 41.5636 22.5819 41.8626 22.8143C42.4668 23.284 43.1881 23.9612 43.7291 24.8179C44.2643 25.6652 44.6125 26.6686 44.5238 27.8324C44.4451 28.8652 44.0155 30.1123 42.9211 31.5658C33.7885 27.6197 30.3482 23.8334 29.1204 21.2059C28.4947 19.8667 28.4249 18.7925 28.4904 18.083C28.5235 17.7244 28.5918 17.4516 28.6469 17.2781C28.6745 17.1914 28.6986 17.1298 28.7131 17.0952C28.7195 17.0802 28.7239 17.0703 28.7261 17.0656L28.7374 17.0437L28.7512 17.0115C29.6373 14.9503 32.6308 10.7885 38.8987 10.5404C38.6707 11.2719 38.8055 12.0789 38.9675 12.7116C39.1654 13.4848 39.5092 14.3653 39.8389 15.2096C39.9171 15.4099 39.9945 15.6081 40.069 15.8023C40.4777 16.8687 40.8194 17.8633 40.9312 18.7381C41.0417 19.6032 40.9073 20.1856 40.5559 20.5931Z" fill="url(#paint10_radial_101_3663)" stroke="black" strokeWidth="2"/>
<path d="M36.766 16.1494C36.8737 19.0819 41.3127 21.2463 41.3127 21.2463C43.4905 18.728 39.5493 13.5865 39.7871 11.1666C39.8005 11.1721 36.6726 13.408 36.766 16.1494Z" fill="url(#paint11_linear_101_3663)"/>
<path d="M38.6272 12.9563C38.8811 12.6582 39.137 12.3987 39.3625 12.1868C39.4499 12.6357 39.5957 13.1063 39.7595 13.5737C39.9139 14.0142 40.0932 14.4747 40.2738 14.9372L40.2926 14.9853C40.4681 15.4347 40.6446 15.8867 40.8068 16.3386C41.1451 17.2804 41.4062 18.1812 41.4608 18.9832C41.5039 19.6165 41.4166 20.1553 41.1616 20.5994C41.0768 20.5518 40.9798 20.4961 40.8731 20.4326C40.4692 20.1922 39.932 19.8434 39.394 19.4086C38.2862 18.5134 37.3112 17.3631 37.2657 16.1317C37.2257 14.95 37.8851 13.8275 38.6272 12.9563ZM41.3127 21.2463L41.0935 21.6957L41.4393 21.8643L41.6909 21.5734C42.3504 20.8107 42.5234 19.8691 42.4585 18.9153C42.3941 17.9694 42.0931 16.9614 41.748 16.0005C41.5809 15.5355 41.4 15.072 41.2258 14.626C41.219 14.6084 41.2121 14.5909 41.2053 14.5735C41.0238 14.1085 40.8509 13.6641 40.7033 13.2429C40.4004 12.379 40.2372 11.6989 40.2847 11.2155L40.2779 11.2149L41.3127 21.2463Z" fill="url(#paint12_radial_101_3663)" stroke="black"/>
<path opacity="0.5" d="M18.8313 22.7702L19.7794 23.0881C19.749 23.1789 19.7099 23.2759 19.6615 23.3749C20.5011 24.1051 21.1152 25.0955 21.6904 26.128C21.8994 26.5031 22.1073 26.8918 22.3221 27.2935C23.008 28.5763 23.7655 29.9929 24.8625 31.5317C27.6441 35.4331 32.6177 40.0948 43.7649 43.8309C45.3597 42.3558 46.057 41.0427 46.2844 39.9464C46.5289 38.7674 46.2583 37.7028 45.7454 36.7666C45.2257 35.8179 44.4719 35.0322 43.8237 34.4731C43.5034 34.1968 43.2181 33.9837 43.0154 33.8414C42.9143 33.7704 42.8345 33.7174 42.7819 33.6834C42.7763 33.6798 42.7709 33.6763 42.7659 33.6731C32.9711 29.5495 28.8734 25.3892 27.3136 22.0543C26.5283 20.3754 26.4057 18.943 26.5006 17.9006C26.5058 17.8439 26.5116 17.7885 26.5179 17.7343C25.9193 17.7219 25.2168 17.7355 24.4705 17.9152C23.6786 18.1059 22.8299 18.4862 22.0268 19.2484C21.2196 20.0145 20.4144 21.2084 19.7787 23.0903L18.8313 22.7702ZM18.8313 22.7702C18.8295 22.7755 18.8277 22.7808 18.8259 22.786L18.8313 22.7702Z" fill="url(#paint13_radial_101_3663)" stroke="black" strokeWidth="2"/>
<path d="M18.8439 22.7763C18.7074 23.1835 18.4154 23.4805 17.9802 23.4871C18.4046 23.5069 18.7074 23.1835 18.8439 22.7763Z" fill="url(#paint14_radial_101_3663)"/>
<path opacity="0.5" d="M44.0062 44.9806C20.5977 37.3359 22.8903 25.5203 17.9751 23.5C12.7829 23.5436 10.4255 28.7528 10.4781 30.767C10.4781 30.767 10.6817 30.8353 10.3801 30.7422C6.43353 29.5217 3.82982 32.1737 2.77618 34.7371C1.66827 37.4325 1.85078 42.2493 7.24173 44.4652C10.2279 45.6926 12.4163 46.005 19.4722 48.9051C26.5279 51.8053 28.7262 53.2959 37.6848 56.9781C38.5172 57.3203 38.2397 57.2062 38.8608 57.4615C40.5388 58.1512 45.5369 58.4292 47.2693 54.2144C49.0019 49.9993 46.0145 45.806 44.0062 44.9806Z" fill="url(#paint15_radial_101_3663)"/>
<path d="M19.4719 48.906C26.5408 51.8116 28.726 53.2968 37.6845 56.979C14.469 47.4368 14.6586 32.4707 10.4701 30.7491C6.20256 29.5202 3.75892 32.3464 2.7759 34.738C1.668 37.4334 1.85051 42.2502 7.24146 44.4661C10.2276 45.6935 12.4028 46.0004 19.4719 48.906Z" fill="url(#paint16_radial_101_3663)"/>
<path opacity="0.24" d="M19.4719 48.906C26.5408 51.8116 28.726 53.2968 37.6845 56.979C14.469 47.4368 14.6586 32.4707 10.4701 30.7491C6.20256 29.5202 3.75892 32.3464 2.7759 34.738C1.668 37.4334 1.85051 42.2502 7.24146 44.4661C10.2276 45.6935 12.4028 46.0004 19.4719 48.906Z" fill="url(#paint17_radial_101_3663)"/>
<path opacity="0.24" d="M10.1927 31.7263C10.1929 31.7264 10.1919 31.7261 10.1901 31.7254L10.1927 31.7263ZM11.4899 30.4665C11.5712 29.6693 12.0448 28.2802 13.0445 27.0144C14.1018 25.6759 15.6568 24.5905 17.771 24.5051C18.5579 24.8997 19.1631 25.7069 19.9507 27.1204C20.1342 27.4498 20.3255 27.8077 20.5294 28.1893C21.2225 29.4865 22.0618 31.057 23.2414 32.7117C26.3462 37.0665 31.8057 42.041 43.6562 45.9182C44.3572 46.2224 45.4309 47.238 46.134 48.7484C46.8265 50.236 47.081 52.0423 46.3444 53.8342C45.632 55.5676 44.2682 56.382 42.8284 56.7008C41.3409 57.0303 39.8809 56.7996 39.241 56.5366L39.2373 56.5351L39.2337 56.5336L39.2301 56.5322L39.2266 56.5307L39.223 56.5292L39.2195 56.5278L39.216 56.5263L39.2125 56.5249L39.209 56.5235L39.2056 56.5221L39.2022 56.5207L39.1987 56.5193L39.1954 56.5179L39.192 56.5165L39.1886 56.5151L39.1853 56.5137L39.182 56.5124L39.1787 56.511L39.1754 56.5097L39.1722 56.5083L39.1689 56.507L39.1657 56.5057L39.1625 56.5044L39.1593 56.5031L39.1562 56.5018L39.153 56.5005L39.1499 56.4992L39.1468 56.4979L39.1437 56.4966L39.1406 56.4954L39.1376 56.4941L39.1345 56.4929L39.1315 56.4916L39.1285 56.4904L39.1255 56.4892L39.1226 56.488L39.1196 56.4867L39.1167 56.4855L39.1138 56.4843L39.1109 56.4831L39.108 56.482L39.1051 56.4808L39.1023 56.4796L39.0995 56.4785L39.0967 56.4773L39.0939 56.4761L39.0911 56.475L39.0883 56.4739L39.0856 56.4727L39.0828 56.4716L39.0801 56.4705L39.0774 56.4694L39.0747 56.4683L39.0721 56.4672L39.0694 56.4661L39.0668 56.465L39.0642 56.4639L39.0616 56.4629L39.059 56.4618L39.0564 56.4607L39.0538 56.4597L39.0513 56.4587L39.0488 56.4576L39.0463 56.4566L39.0438 56.4555L39.0413 56.4545L39.0388 56.4535L39.0363 56.4525L39.0339 56.4515L39.0315 56.4505L39.0291 56.4495L39.0267 56.4485L39.0243 56.4475L39.0219 56.4466L39.0196 56.4456L39.0172 56.4446L39.0149 56.4437L39.0126 56.4427L39.0103 56.4418L39.008 56.4408L39.0057 56.4399L39.0034 56.439L39.0012 56.4381L38.999 56.4371L38.9967 56.4362L38.9945 56.4353L38.9923 56.4344L38.9901 56.4335L38.988 56.4326L38.9858 56.4317L38.9837 56.4309L38.9815 56.43L38.9794 56.4291L38.9773 56.4282L38.9752 56.4274L38.9731 56.4265L38.9711 56.4257L38.969 56.4248L38.967 56.424L38.9649 56.4231L38.9629 56.4223L38.9609 56.4215L38.9589 56.4207L38.9569 56.4198L38.9549 56.419L38.9529 56.4182L38.951 56.4174L38.949 56.4166L38.9471 56.4158L38.9452 56.415L38.9432 56.4142L38.9413 56.4135L38.9395 56.4127L38.9376 56.4119L38.9357 56.4111L38.9338 56.4104L38.932 56.4096L38.9301 56.4089L38.9283 56.4081L38.9265 56.4073L38.9247 56.4066L38.9229 56.4059L38.9211 56.4051L38.9193 56.4044L38.9175 56.4037L38.9157 56.4029L38.914 56.4022L38.9122 56.4015L38.9105 56.4008L38.9088 56.4001L38.9071 56.3994L38.9054 56.3987L38.9036 56.398L38.902 56.3973L38.9003 56.3966L38.8986 56.3959L38.8969 56.3952L38.8953 56.3945L38.8936 56.3938L38.892 56.3932L38.8903 56.3925L38.8887 56.3918L38.8871 56.3912L38.8855 56.3905L38.8839 56.3898L38.8823 56.3892L38.8807 56.3885L38.8791 56.3879L38.8775 56.3872L38.876 56.3866L38.8744 56.3859L38.8728 56.3853L38.8713 56.3847L38.8698 56.384L38.8682 56.3834L38.8667 56.3828L38.8652 56.3821L38.8637 56.3815L38.8622 56.3809L38.8607 56.3803L38.8592 56.3797L38.8577 56.3791L38.8562 56.3785L38.8547 56.3778L38.8532 56.3772L38.8518 56.3766L38.8503 56.376L38.8489 56.3754L38.8474 56.3748L38.846 56.3743L38.8445 56.3737L38.8431 56.3731L38.8417 56.3725L38.8402 56.3719L38.8388 56.3713L38.8374 56.3707L38.836 56.3702L38.8346 56.3696L38.8332 56.369L38.8318 56.3684L38.8304 56.3679L38.829 56.3673L38.8277 56.3667L38.8263 56.3662L38.8249 56.3656L38.8235 56.365L38.8222 56.3645L38.8208 56.3639L38.8195 56.3634L38.8181 56.3628L38.8168 56.3622L38.8154 56.3617L38.8141 56.3611L38.8127 56.3606L38.8114 56.36L38.8101 56.3595L38.8087 56.3589L38.8074 56.3584L38.8061 56.3579L38.8047 56.3573L38.8034 56.3568L38.8021 56.3562L38.8008 56.3557L38.7995 56.3551L38.7982 56.3546L38.7969 56.3541L38.7955 56.3535L38.7942 56.353L38.7929 56.3525L38.7916 56.3519L38.7903 56.3514L38.789 56.3509L38.7877 56.3503L38.7865 56.3498L38.7852 56.3493L38.7839 56.3487L38.7826 56.3482L38.7813 56.3477L38.78 56.3471L38.7787 56.3466L38.7774 56.3461L38.7761 56.3456L38.7749 56.345L38.7736 56.3445L38.7723 56.344L38.771 56.3434L38.7697 56.3429L38.7684 56.3424L38.7672 56.3419L38.7659 56.3413L38.7646 56.3408L38.7633 56.3403L38.762 56.3397L38.7607 56.3392L38.7594 56.3387L38.7582 56.3382L38.7569 56.3376L38.7556 56.3371L38.7543 56.3366L38.753 56.336L38.7517 56.3355L38.7504 56.335L38.7491 56.3345L38.7478 56.3339L38.7465 56.3334L38.7453 56.3329L38.744 56.3323L38.7427 56.3318L38.7414 56.3313L38.7401 56.3307L38.7388 56.3302L38.7374 56.3296L38.7361 56.3291L38.7348 56.3286L38.7335 56.328L38.7322 56.3275L38.7309 56.327L38.7296 56.3264L38.7282 56.3259L38.7269 56.3253L38.7256 56.3248L38.7243 56.3242L38.7229 56.3237L38.7216 56.3231L38.7202 56.3226L38.7189 56.322L38.7176 56.3215L38.7162 56.3209L38.7149 56.3204L38.7135 56.3198L38.7121 56.3192L38.7108 56.3187L38.7094 56.3181L38.708 56.3176L38.7067 56.317L38.7053 56.3164L38.7039 56.3159L38.7025 56.3153L38.7011 56.3147L38.6997 56.3141L38.6983 56.3136L38.6969 56.313L38.6955 56.3124L38.6941 56.3118L38.6926 56.3112L38.6912 56.3106L38.6898 56.3101L38.6884 56.3095L38.6869 56.3089L38.6855 56.3083L38.684 56.3077L38.6825 56.3071L38.6811 56.3065L38.6796 56.3059L38.6781 56.3053L38.6767 56.3047L38.6752 56.3041L38.6737 56.3034L38.6722 56.3028L38.6707 56.3022L38.6692 56.3016L38.6676 56.301L38.6661 56.3003L38.6646 56.2997L38.663 56.2991L38.6615 56.2984L38.6599 56.2978L38.6584 56.2972L38.6568 56.2965L38.6552 56.2959L38.6537 56.2952L38.6521 56.2946L38.6505 56.2939L38.6489 56.2932L38.6473 56.2926L38.6456 56.2919L38.644 56.2912L38.6424 56.2906L38.6407 56.2899L38.6391 56.2892L38.6374 56.2885L38.6358 56.2879L38.6341 56.2872L38.6324 56.2865L38.6307 56.2858L38.629 56.2851L38.6273 56.2844L38.6256 56.2837L38.6238 56.283L38.6221 56.2822L38.6204 56.2815L38.6186 56.2808L38.6168 56.2801L38.6151 56.2793L38.6133 56.2786L38.6115 56.2779L38.6097 56.2771L38.6079 56.2764L38.6061 56.2756L38.6042 56.2749L38.6024 56.2741L38.6005 56.2734L38.5987 56.2726L38.5968 56.2718L38.5949 56.2711L38.593 56.2703L38.5911 56.2695L38.5892 56.2687L38.5873 56.2679L38.5854 56.2671L38.5834 56.2663L38.5815 56.2655L38.5795 56.2647L38.5775 56.2639L38.5755 56.2631L38.5735 56.2623L38.5715 56.2614L38.5695 56.2606L38.5674 56.2598L38.5654 56.2589L38.5633 56.2581L38.5613 56.2572L38.5592 56.2564L38.5571 56.2555L38.555 56.2547L38.5529 56.2538L38.5507 56.2529L38.5486 56.252L38.5464 56.2511L38.5443 56.2502L38.5421 56.2493L38.5399 56.2484L38.5377 56.2475L38.5355 56.2466L38.5332 56.2457L38.531 56.2448L38.5287 56.2439L38.5264 56.2429L38.5242 56.242L38.5219 56.241L38.5195 56.2401L38.5172 56.2391L38.5149 56.2382L38.5125 56.2372L38.5102 56.2362L38.5078 56.2352L38.5054 56.2343L38.503 56.2333L38.5005 56.2323L38.4981 56.2313L38.4956 56.2303L38.4932 56.2292L38.4907 56.2282L38.4882 56.2272L38.4857 56.2262L38.4832 56.2251L38.4806 56.2241L38.4781 56.223L38.4755 56.222L38.4729 56.2209L38.4703 56.2198L38.4677 56.2188L38.465 56.2177L38.4624 56.2166L38.4597 56.2155L38.457 56.2144L38.4544 56.2133L38.4516 56.2122L38.4489 56.2111L38.4462 56.2099L38.4434 56.2088L38.4406 56.2076L38.4378 56.2065L38.435 56.2053L38.4322 56.2042L38.4293 56.203L38.4265 56.2018L38.4236 56.2007L38.4207 56.1995L38.4178 56.1983L38.4149 56.1971L38.4119 56.1959L38.409 56.1946L38.406 56.1934L38.403 56.1922L38.4 56.1909L38.3969 56.1897L38.3939 56.1884L38.3908 56.1872L38.3877 56.1859L38.3846 56.1846L38.3815 56.1833L38.3784 56.1821L38.3752 56.1808L38.372 56.1794L38.3688 56.1781L38.3656 56.1768L38.3624 56.1755L38.3591 56.1741L38.3558 56.1728L38.3526 56.1714L38.3492 56.1701L38.3459 56.1687L38.3426 56.1673L38.3392 56.166L38.3358 56.1646L38.3324 56.1632L38.329 56.1618L38.3255 56.1603L38.3221 56.1589L38.3186 56.1575L38.3151 56.156L38.3116 56.1546L38.308 56.1531L38.3044 56.1517L38.3009 56.1502L38.2973 56.1487L38.2936 56.1472L38.29 56.1457L38.2863 56.1442L38.2826 56.1427L38.2789 56.1412L38.2752 56.1396L38.2714 56.1381L38.2677 56.1366L38.2639 56.135L38.2601 56.1334L38.2562 56.1319L38.2524 56.1303L38.2485 56.1287L38.2446 56.1271L38.2407 56.1255L38.2367 56.1238L38.2328 56.1222L38.2288 56.1206L38.2248 56.1189L38.2207 56.1173L38.2167 56.1156L38.2126 56.1139L38.2085 56.1122L38.2044 56.1105L38.2002 56.1088L38.1961 56.1071L38.1919 56.1054L38.1877 56.1037L38.1834 56.1019L38.1792 56.1002L38.1749 56.0984L38.1706 56.0966L38.1662 56.0949L38.1619 56.0931L38.1575 56.0913L38.1531 56.0895L38.1487 56.0877L38.1442 56.0858L38.1398 56.084L38.1353 56.0821L38.1308 56.0803L38.1262 56.0784L38.1217 56.0765L38.1171 56.0747L38.1124 56.0728L38.1078 56.0708L38.1031 56.0689L38.0985 56.067L38.0937 56.0651L38.089 56.0631L38.0842 56.0612L38.0794 56.0592L38.0746 56.0572L38.0698 56.0552L38.0649 56.0532C33.6064 54.2207 30.8333 52.9349 28.2892 51.7428C28.1366 51.6713 27.9848 51.6002 27.8335 51.5292C25.4552 50.4141 23.1927 49.3532 19.8523 47.9802C16.2992 46.5198 13.9654 45.7085 12.1438 45.1081C11.7506 44.9785 11.3847 44.8598 11.0382 44.7473C9.76926 44.3356 8.7605 44.0082 7.6219 43.5402C5.18567 42.5389 4.01114 40.9996 3.52443 39.4766C3.02454 37.9123 3.22415 36.2776 3.7011 35.1173C4.17107 33.9739 4.97263 32.853 6.03897 32.1587C7.07076 31.4868 8.40075 31.1768 10.0847 31.6975L10.0851 31.6976C10.1604 31.7209 10.2127 31.7368 10.2467 31.7465C10.2556 31.7491 10.2669 31.7522 10.2788 31.7554L10.2795 31.7556C10.2863 31.7574 10.3159 31.7654 10.3518 31.7724C10.3629 31.7746 10.3829 31.7783 10.408 31.7817C10.4244 31.784 10.4833 31.7921 10.559 31.7911C10.5934 31.7906 10.6789 31.7881 10.7843 31.7621C10.8473 31.7466 11.1618 31.6687 11.3771 31.3462C11.5987 31.014 11.5627 30.6817 11.4899 30.4665Z" fill="url(#paint18_radial_101_3663)" stroke="black" strokeWidth="2"/>
<path opacity="0.75" d="M32.5497 31.0667C31.3604 33.9603 32.5395 37.179 35.182 38.2652C37.8247 39.3514 40.9265 37.8923 42.1159 34.9987C43.3053 32.1051 42.0011 29.1905 39.3584 28.1043C36.7159 27.0181 33.7391 28.1731 32.5497 31.0667Z" fill="url(#paint19_radial_101_3663)"/>
<path opacity="0.75" d="M32.278 31.7275C31.0885 34.6214 32.2677 37.8398 34.9102 38.926C37.553 40.0122 40.6547 38.5534 41.8442 35.6595C43.0335 32.7659 41.686 29.957 39.0432 28.8707C36.4007 27.7846 33.4673 28.8339 32.278 31.7275Z" fill="url(#paint20_radial_101_3663)"/>
<path opacity="0.75" d="M19.5351 25.7174C18.3457 28.611 19.5249 31.8297 22.1675 32.9159C24.8101 34.0021 27.912 32.543 29.1013 29.6494C30.2907 26.7558 28.9866 23.8412 26.3439 22.755C23.7013 21.6688 20.7244 22.8238 19.5351 25.7174Z" fill="url(#paint21_radial_101_3663)"/>
<path opacity="0.75" d="M19.2636 26.3782C18.0741 29.272 19.2534 32.4905 21.896 33.5767C24.5386 34.6629 27.6404 33.204 28.8298 30.3102C30.0192 27.4166 28.6716 24.6076 26.029 23.5214C23.3864 22.4352 20.4529 23.4846 19.2636 26.3782Z" fill="url(#paint22_radial_101_3663)"/>
<path d="M35.1957 38.271C37.8373 39.3568 40.8591 38.0956 41.9449 35.4541C43.0307 32.8123 41.7693 29.7906 39.1277 28.7048C36.4861 27.619 33.4643 28.8802 32.3784 31.522C31.2927 34.1635 32.5541 37.1852 35.1957 38.271Z" fill="url(#paint23_linear_101_3663)"/>
<path d="M37.9763 38.2019C40.581 37.7524 42.3281 35.2767 41.8786 32.672C41.4292 30.0676 38.9535 28.3205 36.3489 28.7698C33.7442 29.2193 31.997 31.695 32.4466 34.2997C32.896 36.9041 35.3719 38.6513 37.9763 38.2019Z" fill="white"/>
<path d="M35.3421 37.9144C37.7866 38.9192 40.5831 37.752 41.5879 35.3074C42.5928 32.8626 41.4254 30.0664 38.9809 29.0616C36.5363 28.0568 33.7399 29.2238 32.7351 31.6686C31.7303 34.1132 32.8975 36.9096 35.3421 37.9144Z" fill="url(#paint24_radial_101_3663)"/>
<path d="M35.3421 37.9144C37.7866 38.9192 40.5831 37.752 41.5879 35.3074C42.5928 32.8626 41.4254 30.0664 38.9809 29.0616C36.5363 28.0568 33.7399 29.2238 32.7351 31.6686C31.7303 34.1132 32.8975 36.9096 35.3421 37.9144Z" fill="url(#paint25_radial_101_3663)"/>
<path d="M35.1957 38.271C37.8373 39.3568 40.8591 38.0956 41.9449 35.4541C43.0307 32.8123 41.7693 29.7906 39.1277 28.7048C36.4861 27.619 33.4643 28.8802 32.3784 31.522C31.2927 34.1635 32.5541 37.1852 35.1957 38.271Z" fill="url(#paint26_radial_101_3663)"/>
<path d="M36.2595 35.6813C37.4709 36.1792 38.8565 35.6011 39.3545 34.3896C39.8524 33.1782 39.274 31.7926 38.0626 31.2946C36.8512 30.7967 35.4655 31.3751 34.9676 32.5865C34.4696 33.7979 35.0481 35.1834 36.2595 35.6813Z" fill="url(#paint27_linear_101_3663)"/>
<path d="M36.537 35.0068C37.3957 35.3598 38.3381 35.2838 39.0879 34.8506C38.4613 35.7358 37.2906 36.1042 36.26 35.6806C35.216 35.2515 34.6428 34.1663 34.8333 33.1018C35.0669 33.9236 35.6648 34.6483 36.537 35.0068Z" fill="url(#paint28_linear_101_3663)"/>
<path d="M24.9124 44.763C18.8212 42.2594 19.5617 34.9339 20.9934 36.7116C22.9126 39.1068 24.4438 39.8906 26.558 40.7595C28.6721 41.6285 30.2987 42.1428 33.3608 41.795C35.6288 41.538 31.0037 47.2667 24.9124 44.763Z" fill="url(#paint29_linear_101_3663)"/>
<path d="M33.3612 41.7946C30.3123 42.1477 28.6725 41.6281 26.5584 40.7591C24.4445 39.8902 22.9264 39.1119 20.9939 36.7112C20.4931 36.0883 20.08 36.5672 20.0067 37.5721C20.0122 37.5589 20.4957 36.6454 21.0962 37.6647C21.0962 37.6647 23.5142 40.9134 26.051 41.9561C28.588 42.9989 32.5915 42.3896 32.5915 42.3896C33.7298 42.1007 33.4367 43.0768 33.4313 43.09C34.1068 42.3481 34.1553 41.7039 33.3612 41.7946Z" fill="url(#paint30_linear_101_3663)"/>
<path d="M22.1676 32.916C24.8093 34.0018 27.8309 32.7406 28.9166 30.099C30.0025 27.4572 28.7413 24.4356 26.0995 23.3498C23.4579 22.264 20.4362 23.5252 19.3504 26.167C18.2646 28.8086 19.5259 31.8302 22.1676 32.916Z" fill="url(#paint31_linear_101_3663)"/>
<path d="M24.9478 32.8533C27.5522 32.4039 29.2994 29.928 28.85 27.3236C28.4005 24.7189 25.9248 22.9718 23.3202 23.4214C20.7156 23.8707 18.9686 26.3464 19.4179 28.9511C19.8673 31.5557 22.3432 33.3026 24.9478 32.8533Z" fill="white"/>
<path d="M22.314 32.5594C24.7587 33.5643 27.5549 32.3969 28.5597 29.9524C29.5646 27.5076 28.3975 24.7114 25.9528 23.7066C23.5081 22.7018 20.7119 23.8688 19.707 26.3136C18.7022 28.7582 19.8694 31.5546 22.314 32.5594Z" fill="url(#paint32_radial_101_3663)"/>
<path d="M22.314 32.5594C24.7587 33.5643 27.5549 32.3969 28.5597 29.9524C29.5646 27.5076 28.3975 24.7114 25.9528 23.7066C23.5081 22.7018 20.7119 23.8688 19.707 26.3136C18.7022 28.7582 19.8694 31.5546 22.314 32.5594Z" fill="url(#paint33_radial_101_3663)"/>
<path d="M22.1676 32.916C24.8093 34.0018 27.8309 32.7406 28.9166 30.099C30.0025 27.4572 28.7413 24.4356 26.0995 23.3498C23.4579 22.264 20.4362 23.5252 19.3504 26.167C18.2646 28.8086 19.5259 31.8302 22.1676 32.916Z" fill="url(#paint34_radial_101_3663)"/>
<path d="M23.2325 30.3258C24.4439 30.8237 25.8295 30.2453 26.3274 29.0339C26.8253 27.8224 26.247 26.4368 25.0357 25.9389C23.8243 25.441 22.4386 26.0194 21.9407 27.2308C21.4428 28.4422 22.0212 29.8279 23.2325 30.3258Z" fill="url(#paint35_linear_101_3663)"/>
<path d="M23.5094 29.6522C24.3682 30.0052 25.3107 29.9293 26.0602 29.4959C25.4338 30.3813 24.2631 30.7496 23.2324 30.326C22.1886 29.8969 21.6152 28.8117 21.8057 27.7472C22.0526 28.5744 22.6505 29.2992 23.5094 29.6522Z" fill="url(#paint36_linear_101_3663)"/>
<path d="M33.595 21.535C34.0955 21.4621 34.419 20.8383 34.3175 20.1418C34.2159 19.4453 33.7279 18.9398 33.2273 19.0128C32.7268 19.0858 32.4033 19.7095 32.5049 20.406C32.6064 21.1025 33.0945 21.608 33.595 21.535Z" fill="#F6FAFD"/>
<path d="M40.2962 49.6516C40.7967 49.5787 41.1202 48.9549 41.0186 48.2584C40.9171 47.5619 40.429 47.0564 39.9285 47.1294C39.428 47.2023 39.1045 47.8261 39.206 48.5226C39.3076 49.2191 39.7956 49.7246 40.2962 49.6516Z" fill="#F6FAFD"/>
<path d="M32.4369 19.0261C33.438 18.8802 34.0848 17.6322 33.8817 16.2386C33.6785 14.845 32.7023 13.8335 31.7013 13.9794C30.7002 14.1254 30.0534 15.3734 30.2565 16.767C30.4596 18.1606 31.4358 19.172 32.4369 19.0261Z" fill="#F6FAFD"/>
<defs>
<linearGradient id="paint0_linear_101_3663" x1="34.2591" y1="32.0068" x2="19.9931" y2="51.1967" gradientUnits="userSpaceOnUse">
<stop offset="0.3105" stop-color="#7A4400"/>
<stop offset="1" stop-color="#643800"/>
</linearGradient>
<radialGradient id="paint1_radial_101_3663" cx="0" cy="0" r="1" gradientUnits="userSpaceOnUse" gradientTransform="translate(10.4021 52.5447) rotate(131.771) scale(16.7742 43.7805)">
<stop stop-color="#3C2200"/>
<stop offset="1" stop-color="#3C2200" stop-opacity="0"/>
</radialGradient>
<linearGradient id="paint2_linear_101_3663" x1="28.4281" y1="39.7456" x2="42.3562" y2="14.3459" gradientUnits="userSpaceOnUse">
<stop offset="0.3105" stop-color="#7A4400"/>
<stop offset="1" stop-color="#A66C3F"/>
</linearGradient>
<radialGradient id="paint3_radial_101_3663" cx="0" cy="0" r="1" gradientUnits="userSpaceOnUse" gradientTransform="translate(41.8009 47.6189) rotate(24.1655) scale(20.6244 9.41762)">
<stop stop-color="#3C2200"/>
<stop offset="1" stop-color="#3C2200" stop-opacity="0"/>
</radialGradient>
<linearGradient id="paint4_linear_101_3663" x1="32.3626" y1="26.2182" x2="47.6501" y2="14.6183" gradientUnits="userSpaceOnUse">
<stop offset="0.3105" stop-color="#7A4400"/>
<stop offset="1" stop-color="#A66C3F"/>
</linearGradient>
<linearGradient id="paint5_linear_101_3663" x1="25.6268" y1="22.8017" x2="19.5235" y2="48.6824" gradientUnits="userSpaceOnUse">
<stop offset="0.3105" stop-color="#7A4400"/>
<stop offset="1" stop-color="#643800"/>
</linearGradient>
<linearGradient id="paint6_linear_101_3663" x1="36.9506" y1="22.3236" x2="28.0672" y2="36.5717" gradientUnits="userSpaceOnUse">
<stop stop-color="#643800" stop-opacity="0"/>
<stop offset="1" stop-color="#512D00"/>
</linearGradient>
<linearGradient id="paint7_linear_101_3663" x1="13.7773" y1="38.3261" x2="46.3981" y2="28.1461" gradientUnits="userSpaceOnUse">
<stop stop-color="#643800" stop-opacity="0"/>
<stop offset="1" stop-color="#512D00"/>
</linearGradient>
<linearGradient id="paint8_linear_101_3663" x1="18.2765" y1="21.5137" x2="0.27281" y2="42.4702" gradientUnits="userSpaceOnUse">
<stop stop-color="#643800" stop-opacity="0"/>
<stop offset="1" stop-color="#512D00"/>
</linearGradient>
<radialGradient id="paint9_radial_101_3663" cx="0" cy="0" r="1" gradientUnits="userSpaceOnUse" gradientTransform="translate(24.0951 24.2488) rotate(51.1245) scale(20.2141 10.8978)">
<stop stop-color="#3C2200"/>
<stop offset="1" stop-color="#3C2200" stop-opacity="0"/>
</radialGradient>
<radialGradient id="paint10_radial_101_3663" cx="0" cy="0" r="1" gradientUnits="userSpaceOnUse" gradientTransform="translate(41.1707 22.1984) rotate(47.0369) scale(14.4166 6.77177)">
<stop stop-color="#C86F34"/>
<stop offset="1" stop-color="#C86F34" stop-opacity="0"/>
</radialGradient>
<linearGradient id="paint11_linear_101_3663" x1="37.1444" y1="18.0045" x2="45.5825" y2="13.5635" gradientUnits="userSpaceOnUse">
<stop offset="0.3105" stop-color="#7A4400"/>
<stop offset="1" stop-color="#A66C3F"/>
</linearGradient>
<radialGradient id="paint12_radial_101_3663" cx="0" cy="0" r="1" gradientUnits="userSpaceOnUse" gradientTransform="translate(34.6149 1.77768) rotate(22.3441) scale(21.3858 21.4564)">
<stop stop-color="#3C2200"/>
<stop offset="1" stop-color="#3C2200" stop-opacity="0"/>
</radialGradient>
<radialGradient id="paint13_radial_101_3663" cx="0" cy="0" r="1" gradientUnits="userSpaceOnUse" gradientTransform="translate(41.8699 24.1631) rotate(22.3441) scale(17.8261 17.8849)">
<stop stop-color="#C86F34"/>
<stop offset="1" stop-color="#C86F34" stop-opacity="0"/>
</radialGradient>
<radialGradient id="paint14_radial_101_3663" cx="0" cy="0" r="1" gradientUnits="userSpaceOnUse" gradientTransform="translate(21.1385 36.9539) rotate(41.2971) scale(19.1021 7.03573)">
<stop stop-color="#C86F34"/>
<stop offset="1" stop-color="#C86F34" stop-opacity="0"/>
</radialGradient>
<radialGradient id="paint15_radial_101_3663" cx="0" cy="0" r="1" gradientUnits="userSpaceOnUse" gradientTransform="translate(9.83388 21.5539) rotate(41.2971) scale(24.3352 7.39497)">
<stop stop-color="#C86F34"/>
<stop offset="1" stop-color="#C86F34" stop-opacity="0"/>
</radialGradient>
<radialGradient id="paint16_radial_101_3663" cx="0" cy="0" r="1" gradientUnits="userSpaceOnUse" gradientTransform="translate(21.5848 35.867) rotate(-30.977) scale(10.8892 21.138)">
<stop stop-color="#3C2200"/>
<stop offset="1" stop-color="#3C2200" stop-opacity="0"/>
</radialGradient>
<radialGradient id="paint17_radial_101_3663" cx="0" cy="0" r="1" gradientUnits="userSpaceOnUse" gradientTransform="translate(9.27924 37.2559) rotate(-54.437) scale(4.80052 17.9145)">
<stop stop-color="#C86F34"/>
<stop offset="1" stop-color="#C86F34" stop-opacity="0"/>
</radialGradient>
<radialGradient id="paint18_radial_101_3663" cx="0" cy="0" r="1" gradientUnits="userSpaceOnUse" gradientTransform="translate(41.5049 47.6952) rotate(-158.227) scale(12.1065 4.56537)">
<stop stop-color="#C86F34"/>
<stop offset="1" stop-color="#C86F34" stop-opacity="0"/>
</radialGradient>
<radialGradient id="paint19_radial_101_3663" cx="0" cy="0" r="1" gradientUnits="userSpaceOnUse" gradientTransform="translate(38.0562 30.862) rotate(-157.656) scale(5.14485 5.6256)">
<stop stop-color="#362501" stop-opacity="0.4"/>
<stop offset="1" stop-color="#362501" stop-opacity="0"/>
</radialGradient>
<radialGradient id="paint20_radial_101_3663" cx="0" cy="0" r="1" gradientUnits="userSpaceOnUse" gradientTransform="translate(37.1897 34.2929) rotate(22.3441) scale(5.42225 5.42225)">
<stop stop-color="#3D2A20" stop-opacity="0.4"/>
<stop offset="0.1673" stop-color="#4B3021" stop-opacity="0.5004"/>
<stop offset="0.7156" stop-color="#734423" stop-opacity="0.8294"/>
<stop offset="1" stop-color="#824B24"/>
</radialGradient>
<radialGradient id="paint21_radial_101_3663" cx="0" cy="0" r="1" gradientUnits="userSpaceOnUse" gradientTransform="translate(25.0404 25.5122) rotate(-157.656) scale(5.14485 5.6256)">
<stop stop-color="#362501" stop-opacity="0.4"/>
<stop offset="1" stop-color="#362501" stop-opacity="0"/>
</radialGradient>
<radialGradient id="paint22_radial_101_3663" cx="0" cy="0" r="1" gradientUnits="userSpaceOnUse" gradientTransform="translate(24.1742 28.9431) rotate(22.3441) scale(5.42225)">
<stop stop-color="#3D2A20" stop-opacity="0.4"/>
<stop offset="0.1673" stop-color="#4B3021" stop-opacity="0.5004"/>
<stop offset="0.7156" stop-color="#734423" stop-opacity="0.8294"/>
<stop offset="1" stop-color="#824B24"/>
</radialGradient>
<linearGradient id="paint23_linear_101_3663" x1="30.9993" y1="57.2477" x2="37.9796" y2="30.3071" gradientUnits="userSpaceOnUse">
<stop offset="0.00132565" stop-color="#3C2200"/>
<stop offset="1" stop-color="#512D00"/>
</linearGradient>
<radialGradient id="paint24_radial_101_3663" cx="0" cy="0" r="1" gradientUnits="userSpaceOnUse" gradientTransform="translate(36.9356 34.0217) rotate(112.344) scale(6.00928 6.0825)">
<stop stop-color="#CFDCDE" stop-opacity="0"/>
<stop offset="0.8869" stop-color="#CFDCDE" stop-opacity="0.8869"/>
<stop offset="1" stop-color="#CFDCDE"/>
</radialGradient>
<radialGradient id="paint25_radial_101_3663" cx="0" cy="0" r="1" gradientUnits="userSpaceOnUse" gradientTransform="translate(37.0814 33.8092) rotate(-157.656) scale(5.16372 5.16373)">
<stop stop-color="white" stop-opacity="0"/>
<stop offset="0.4376" stop-color="#FDFEFE" stop-opacity="0.3499"/>
<stop offset="0.5952" stop-color="#F6F8F9" stop-opacity="0.4759"/>
<stop offset="0.7075" stop-color="#EBEFF0" stop-opacity="0.5657"/>
<stop offset="0.7983" stop-color="#DAE2E3" stop-opacity="0.6384"/>
<stop offset="0.8752" stop-color="#C4D1D3" stop-opacity="0.6999"/>
<stop offset="0.9004" stop-color="#BBCACC" stop-opacity="0.72"/>
<stop offset="1" stop-color="#99AFB3"/>
</radialGradient>
<radialGradient id="paint26_radial_101_3663" cx="0" cy="0" r="1" gradientUnits="userSpaceOnUse" gradientTransform="translate(37.1263 33.4702) rotate(-157.656) scale(5.24878)">
<stop offset="0.8827" stop-color="#643800" stop-opacity="0"/>
<stop offset="0.9161" stop-color="#3C2200" stop-opacity="0.5"/>
<stop offset="0.9866" stop-color="#643800" stop-opacity="0"/>
</radialGradient>
<linearGradient id="paint27_linear_101_3663" x1="14.2697" y1="89.1636" x2="16.002" y2="84.9492" gradientUnits="userSpaceOnUse">
<stop offset="0.00132565" stop-color="#3C2200"/>
<stop offset="1" stop-color="#512D00"/>
</linearGradient>
<linearGradient id="paint28_linear_101_3663" x1="37.3379" y1="33.0409" x2="35.9799" y2="36.345" gradientUnits="userSpaceOnUse">
<stop offset="0.00132565" stop-color="#3C2200"/>
<stop offset="1"/>
</linearGradient>
<linearGradient id="paint29_linear_101_3663" x1="25.1814" y1="44.1079" x2="26.7434" y2="40.3076" gradientUnits="userSpaceOnUse">
<stop offset="0.00132565" stop-color="#3C2200"/>
<stop offset="1" stop-color="#512D00"/>
</linearGradient>
<linearGradient id="paint30_linear_101_3663" x1="25.8879" y1="42.3896" x2="31.2106" y2="29.4401" gradientUnits="userSpaceOnUse">
<stop offset="0.00132565" stop-color="#3C2200"/>
<stop offset="1"/>
</linearGradient>
<linearGradient id="paint31_linear_101_3663" x1="17.9831" y1="51.8976" x2="24.9635" y2="24.9571" gradientUnits="userSpaceOnUse">
<stop offset="0.00132565" stop-color="#3C2200"/>
<stop offset="1" stop-color="#512D00"/>
</linearGradient>
<radialGradient id="paint32_radial_101_3663" cx="0" cy="0" r="1" gradientUnits="userSpaceOnUse" gradientTransform="translate(23.9196 28.6717) rotate(112.344) scale(6.00928 6.0825)">
<stop stop-color="#CFDCDE" stop-opacity="0"/>
<stop offset="0.8869" stop-color="#CFDCDE" stop-opacity="0.8869"/>
<stop offset="1" stop-color="#CFDCDE"/>
</radialGradient>
<radialGradient id="paint33_radial_101_3663" cx="0" cy="0" r="1" gradientUnits="userSpaceOnUse" gradientTransform="translate(24.0654 28.4591) rotate(-157.656) scale(5.16373 5.16373)">
<stop stop-color="white" stop-opacity="0"/>
<stop offset="0.4376" stop-color="#FDFEFE" stop-opacity="0.3499"/>
<stop offset="0.5952" stop-color="#F6F8F9" stop-opacity="0.4759"/>
<stop offset="0.7075" stop-color="#EBEFF0" stop-opacity="0.5657"/>
<stop offset="0.7983" stop-color="#DAE2E3" stop-opacity="0.6384"/>
<stop offset="0.8752" stop-color="#C4D1D3" stop-opacity="0.6999"/>
<stop offset="0.9004" stop-color="#BBCACC" stop-opacity="0.72"/>
<stop offset="1" stop-color="#99AFB3"/>
</radialGradient>
<radialGradient id="paint34_radial_101_3663" cx="0" cy="0" r="1" gradientUnits="userSpaceOnUse" gradientTransform="translate(24.1101 28.1202) rotate(-157.656) scale(5.24877)">
<stop offset="0.8827" stop-color="#643800" stop-opacity="0"/>
<stop offset="0.9161" stop-color="#3C2200" stop-opacity="0.5"/>
<stop offset="0.9866" stop-color="#643800" stop-opacity="0"/>
</radialGradient>
<linearGradient id="paint35_linear_101_3663" x1="1.2548" y1="83.813" x2="2.98703" y2="79.5986" gradientUnits="userSpaceOnUse">
<stop offset="0.00132565" stop-color="#3C2200"/>
<stop offset="1" stop-color="#512D00"/>
</linearGradient>
<linearGradient id="paint36_linear_101_3663" x1="24.3224" y1="27.6913" x2="22.9644" y2="30.9953" gradientUnits="userSpaceOnUse">
<stop offset="0.00132565" stop-color="#3C2200"/>
<stop offset="1"/>
</linearGradient>
</defs>
</svg>
