<svg width="69" height="69" viewBox="0 0 69 69" fill="none" xmlns="http://www.w3.org/2000/svg">
<g clipPath="url(#clip0_101_3927)">
<path d="M26.7212 57.2949C40.3424 60.9447 54.3434 52.8613 57.9931 39.2401C61.6429 25.6189 53.5595 11.6179 39.9383 7.96815C26.3171 4.31836 12.3162 12.4018 8.66637 26.023C5.01657 39.6442 13.1 53.6451 26.7212 57.2949Z" fill="#F1D51A"/>
<path d="M43.5553 33.0729C45.332 33.5489 47.2868 32.0145 47.9216 29.6456C48.5563 27.2767 47.6306 24.9704 45.8539 24.4943C44.0772 24.0182 42.1224 25.5527 41.4877 27.9216C40.8529 30.2905 41.7786 32.5968 43.5553 33.0729Z" fill="#273941"/>
<path d="M24.2535 27.901C26.0302 28.3771 27.9851 26.8426 28.6198 24.4737C29.2546 22.1048 28.3288 19.7985 26.5522 19.3224C24.7755 18.8464 22.8206 20.3808 22.1859 22.7497C21.5511 25.1186 22.4769 27.4249 24.2535 27.901Z" fill="#273941"/>
<path d="M43.8428 32.0005C45.0272 32.3179 46.3734 31.1349 46.8494 29.3582C47.3255 27.5815 46.7512 25.884 45.5668 25.5666C44.3823 25.2492 43.0362 26.4322 42.5601 28.2089C42.0841 29.9856 42.6583 31.6832 43.8428 32.0005Z" fill="#273941"/>
<path d="M24.541 26.8287C25.7255 27.146 27.0716 25.963 27.5477 24.1863C28.0237 22.4097 27.4495 20.7121 26.265 20.3947C25.0806 20.0774 23.7344 21.2604 23.2584 23.037C22.7823 24.8137 23.3566 26.5113 24.541 26.8287Z" fill="#273941"/>
<path d="M45.777 29.0709C46.3692 29.2296 46.9779 28.8781 47.1366 28.2859C47.2953 27.6937 46.9438 27.0849 46.3516 26.9262C45.7594 26.7676 45.1507 27.119 44.992 27.7112C44.8333 28.3035 45.1847 28.9122 45.777 29.0709Z" fill="#F6FAFD"/>
<path d="M26.4752 23.899C27.0674 24.0577 27.6762 23.7062 27.8349 23.114C27.9935 22.5218 27.6421 21.9131 27.0499 21.7544C26.4576 21.5957 25.8489 21.9471 25.6902 22.5394C25.5315 23.1316 25.883 23.7403 26.4752 23.899Z" fill="#F6FAFD"/>
<path d="M51.2925 21.3543L49.1479 20.7796C49.3003 20.2108 49.2205 19.6048 48.9261 19.0948C48.6317 18.5848 48.1467 18.2127 47.5779 18.0603C47.0091 17.9079 46.4031 17.9877 45.8931 18.2821C45.3831 18.5765 45.011 19.0615 44.8586 19.6303L42.714 19.0556C43.0188 17.9181 43.763 16.9481 44.783 16.3593C45.8029 15.7704 47.015 15.6109 48.1526 15.9157C49.2902 16.2205 50.2601 16.9647 50.8489 17.9847C51.4378 19.0046 51.5974 20.2167 51.2925 21.3543Z" fill="#273941"/>
<path d="M31.9908 16.1824L29.8461 15.6077C29.9985 15.0389 29.9188 14.4329 29.6243 13.9229C29.3299 13.413 28.8449 13.0408 28.2762 12.8884C27.7074 12.736 27.1013 12.8158 26.5913 13.1102C26.0814 13.4047 25.7093 13.8896 25.5569 14.4584L23.4122 13.8838C23.717 12.7462 24.4613 11.7763 25.4812 11.1874C26.5011 10.5986 27.7132 10.439 28.8508 10.7438C29.9884 11.0486 30.9583 11.7928 31.5472 12.8128C32.136 13.8327 32.2956 15.0448 31.9908 16.1824Z" fill="#273941"/>
<path d="M39.0763 11.1851C52.105 14.6761 60.2231 26.6285 57.2082 37.8804L58.2537 38.1606C59.6556 31.7461 58.5326 25.0382 55.118 19.4301C51.7034 13.822 46.2597 9.74481 39.9176 8.04544C33.5755 6.34608 26.8225 7.15516 21.0613 10.3046C15.3001 13.4541 10.9736 18.7019 8.98051 24.9579L10.026 25.238C13.041 13.9861 26.0476 7.69407 39.0763 11.1851Z" fill="#FFEB65"/>
<path d="M57.2083 37.8804C54.1934 49.1323 41.1867 55.4244 28.158 51.9333C15.1293 48.4423 7.01125 36.4899 10.0262 25.238L8.98067 24.9579C8.87026 25.3099 8.76278 25.6638 8.66653 26.023C6.91384 32.5641 7.83139 39.5336 11.2173 45.3982C14.6033 51.2629 20.1802 55.5422 26.7214 57.2949C33.2625 59.0476 40.232 58.1301 46.0966 54.7441C51.9613 51.3582 56.2406 45.7812 57.9933 39.2401C58.0896 38.8808 58.1734 38.5206 58.2538 38.1606L57.2083 37.8804Z" fill="#F1D51A"/>
<path d="M50.1498 16.2346C50.5877 15.9815 50.6573 15.2823 50.3052 14.6729C49.953 14.0635 49.3125 13.7746 48.8746 14.0276C48.4366 14.2807 48.367 14.9799 48.7192 15.5893C49.0713 16.1988 49.7118 16.4877 50.1498 16.2346Z" fill="#F6FAFD"/>
<path d="M42.4828 11.9898C42.7021 11.8631 42.7371 11.5134 42.561 11.2087C42.3849 10.904 42.0645 10.7597 41.8452 10.8863C41.626 11.013 41.591 11.3627 41.767 11.6675C41.9431 11.9722 42.2636 12.1165 42.4828 11.9898Z" fill="#F6FAFD"/>
<path d="M46.7863 15.1169C47.6622 14.6107 47.8011 13.2119 47.0965 11.9925C46.3919 10.7731 45.1106 10.1949 44.2347 10.701C43.3588 11.2071 43.2199 12.606 43.9245 13.8254C44.6291 15.0448 45.9103 15.623 46.7863 15.1169Z" fill="#F6FAFD"/>
<path d="M27.8707 53.0057C31.424 53.9579 35.4624 50.4088 36.8905 45.0788C38.3187 39.7488 36.5959 34.6561 33.0426 33.7039C29.4892 32.7518 25.4509 36.3008 24.0227 41.6309C22.5945 46.9609 24.3173 52.0536 27.8707 53.0057Z" fill="#273941"/>
<path d="M27.8706 53.0057C30.5964 53.7361 33.6036 51.8123 35.5028 48.4733C34.3222 46.4792 32.4076 45.0267 30.1692 44.4269C27.9308 43.8272 25.5466 44.1278 23.5271 45.2644C23.5023 49.1056 25.1447 52.2753 27.8706 53.0057Z" fill="#FF7C9C"/>
<path d="M27.8707 53.0057C24.5593 52.1184 22.8402 47.6352 23.7772 42.7143C23.6569 43.0602 23.5451 43.413 23.448 43.7754C22.0197 49.106 23.7423 54.1981 27.296 55.1503C30.8497 56.1025 34.8876 52.5539 36.3159 47.2234C36.413 46.8609 36.4926 46.4995 36.5614 46.1399C34.9124 50.8699 31.182 53.8929 27.8707 53.0057Z" fill="#F1D51A"/>
<path d="M32.4679 35.8486C35.7792 36.7359 37.4984 41.2191 36.5614 46.1399C36.6817 45.794 36.7934 45.4412 36.8905 45.0788C38.3189 39.7483 36.5962 34.6561 33.0426 33.7039C29.4889 32.7517 25.451 36.3004 24.0227 41.6309C23.9256 41.9933 23.846 42.3547 23.7772 42.7144C25.4262 37.9843 29.1566 34.9613 32.4679 35.8486Z" fill="#141E21"/>
<path d="M28.4454 50.8611C26.1592 50.2485 24.6512 47.9113 24.2348 44.9058C23.9944 45.0138 23.7584 45.131 23.5284 45.2601C23.5025 49.1057 25.1449 52.2754 27.8707 53.0058C30.5966 53.7361 33.6038 51.8123 35.5029 48.4733C35.3683 48.2465 35.2226 48.027 35.0684 47.8132C33.2061 50.2036 30.7316 51.4737 28.4454 50.8611Z" fill="#FF7C9C"/>
<path d="M26.7246 59.7873C21.5107 58.3902 16.8282 55.4785 13.2692 51.4202C9.71014 47.3619 7.43446 42.3394 6.72991 36.9878C6.02535 31.6361 6.92356 26.1958 9.31095 21.3546C11.6983 16.5135 15.4677 12.489 20.1423 9.7901C24.8169 7.0912 30.1869 5.8391 35.5732 6.19213C40.9594 6.54517 46.12 8.48748 50.4024 11.7735C54.6847 15.0594 57.8965 19.5415 59.6316 24.6528C61.3667 29.7642 61.5471 35.2752 60.15 40.4891C58.2692 47.476 53.6938 53.4316 47.4275 57.0494C41.1612 60.6673 33.7158 61.6519 26.7246 59.7873ZM40.2632 9.26046C35.4838 7.97983 30.432 8.14521 25.7466 9.73569C21.0612 11.3262 16.9527 14.2703 13.9405 18.1958C10.9284 22.1213 9.14792 26.8519 8.8243 31.7893C8.50069 36.7266 9.64845 41.6491 12.1224 45.9342C14.5964 50.2193 18.2855 53.6745 22.7233 55.8629C27.161 58.0514 32.148 58.8747 37.0536 58.2289C41.9593 57.5831 46.5633 55.497 50.2833 52.2346C54.0034 48.9722 56.6726 44.6799 57.9532 39.9005C59.6626 33.4918 58.7601 26.6667 55.4438 20.9226C52.1274 15.1785 46.668 10.9844 40.2632 9.26046Z" fill="#141E21"/>
<path d="M26.0284 59.3414C20.965 57.9846 16.4277 55.1194 12.9903 51.1079C9.55288 47.0965 7.36969 42.119 6.71681 36.8049C6.06393 31.4909 6.97069 26.0789 9.32242 21.2533C11.6742 16.4278 15.3652 12.4054 19.9289 9.69494C24.4926 6.98444 29.7239 5.70753 34.9612 6.02568C40.1986 6.34382 45.2068 8.24274 49.3526 11.4823C53.4983 14.7218 56.5954 19.1565 58.2522 24.2256C59.909 29.2946 60.051 34.7703 58.6604 39.9603C56.7884 46.9152 52.3015 52.8615 46.1839 56.4949C40.0664 60.1282 32.8179 61.1519 26.0284 59.3414ZM39.5049 9.04646C34.8635 7.8028 29.9483 7.99781 25.3809 9.60684C20.8134 11.2159 16.799 14.1666 13.845 18.086C10.8911 22.0054 9.13047 26.7174 8.7857 31.626C8.44094 36.5347 9.52755 41.4196 11.9081 45.663C14.2887 49.9064 17.8564 53.3178 22.1599 55.4657C26.4634 57.6136 31.3096 58.4016 36.0855 57.73C40.8615 57.0584 45.3527 54.9574 48.9912 51.6926C52.6298 48.4279 55.2522 44.1461 56.527 39.3886C58.2287 33.0094 57.3923 26.2323 54.2011 20.544C51.01 14.8557 45.7247 10.7208 39.5049 9.04646Z" fill="#141E21"/>
<path d="M43.5553 33.0729C41.7506 32.5893 40.8432 30.3268 41.4877 27.9216C42.1321 25.5164 44.0492 24.0107 45.8539 24.4943C47.6586 24.9779 48.5661 27.2404 47.9216 29.6456C47.2771 32.0508 45.36 33.5564 43.5553 33.0729ZM45.2793 26.6389C44.8418 26.5217 43.9831 27.187 43.6323 28.4963C43.2815 29.8056 43.6925 30.811 44.13 30.9282C44.5675 31.0455 45.4261 30.3802 45.7769 29.0709C46.1278 27.7616 45.7168 26.7562 45.2793 26.6389Z" fill="#141E21"/>
<path d="M24.2535 27.901C22.4488 27.4174 21.5414 25.155 22.1859 22.7497C22.8304 20.3445 24.7475 18.8389 26.5522 19.3224C28.3569 19.806 29.2643 22.0685 28.6198 24.4737C27.9753 26.8789 26.0583 28.3846 24.2535 27.901ZM25.9775 21.4671C25.54 21.3498 24.6814 22.0151 24.3305 23.3244C23.9797 24.6337 24.3907 25.6391 24.8282 25.7564C25.2657 25.8736 26.1244 25.2083 26.4752 23.899C26.826 22.5897 26.415 21.5843 25.9775 21.4671Z" fill="#141E21"/>
<path d="M27.5832 54.0781C23.3743 52.9503 21.3392 47.3561 22.9502 41.3436C24.5613 35.3311 29.1209 31.5039 33.3297 32.6317C37.5386 33.7594 39.5738 39.3537 37.9627 45.3662C36.3517 51.3787 31.792 55.2058 27.5832 54.0781ZM32.7551 34.7763C29.8491 33.9976 26.3407 37.2686 25.0949 41.9182C23.849 46.5678 25.2518 51.1548 28.1578 51.9334C31.0638 52.7121 34.5722 49.4411 35.8181 44.7915C37.0639 40.1419 35.6611 35.555 32.7551 34.7763Z" fill="#141E21"/>
<path d="M51.2925 21.3543L49.1479 20.7796C49.3003 20.2108 49.2205 19.6048 48.9261 19.0948C48.6317 18.5848 48.1467 18.2127 47.5779 18.0603C47.0091 17.9079 46.4031 17.9877 45.8931 18.2821C45.3831 18.5765 45.011 19.0615 44.8586 19.6303L42.714 19.0556C43.0188 17.9181 43.763 16.9481 44.783 16.3593C45.8029 15.7704 47.015 15.6109 48.1526 15.9157C49.2902 16.2205 50.2601 16.9647 50.8489 17.9847C51.4378 19.0046 51.5974 20.2167 51.2925 21.3543Z" fill="#141E21"/>
<path d="M31.9908 16.1824L29.8461 15.6077C29.9985 15.0389 29.9188 14.4329 29.6243 13.9229C29.3299 13.413 28.8449 13.0408 28.2762 12.8884C27.7074 12.736 27.1013 12.8158 26.5913 13.1102C26.0814 13.4047 25.7093 13.8896 25.5569 14.4584L23.4122 13.8838C23.717 12.7462 24.4613 11.7763 25.4812 11.1874C26.5011 10.5986 27.7132 10.439 28.8508 10.7438C29.9884 11.0486 30.9583 11.7928 31.5472 12.8128C32.136 13.8327 32.2956 15.0448 31.9908 16.1824Z" fill="#141E21"/>
</g>
<defs>
<clipPath id="clip0_101_3927">
<rect width="55.9852" height="55.9852" fill="white" transform="translate(14.49) rotate(15)"/>
</clipPath>
</defs>
</svg>
