<svg width="60" height="68" viewBox="0 0 60 68" fill="none" xmlns="http://www.w3.org/2000/svg">
<path fillRule="evenodd" clipRule="evenodd" d="M38.9222 61.7296C38.9222 61.7296 42.084 60.2925 42.9326 59.6901C43.0108 59.6346 43.0952 59.5786 43.186 59.5183C44.0808 58.9248 45.5987 57.9178 47.9471 52.8828C50.5338 47.3367 52.1395 38.811 52.6349 29.8306C53.1302 20.8502 50.3558 13.0185 44.8975 8.73324C39.4392 4.44801 30.5228 3.56709 25.568 4.89257C20.6133 6.21805 11.0143 9.9451 7.72287 15.8688C4.43142 21.7925 4.38415 27.9403 5.11178 33.3532C5.8394 38.7661 7.76273 42.6534 16.3947 51.3093C21.6967 56.5522 28.2033 60.415 35.3447 62.5595L38.9222 61.7296ZM35.4293 60.1675C28.8802 58.1003 22.9138 54.5037 18.0255 49.6718C13.7508 45.3848 11.271 42.4073 9.76681 39.9195C8.30952 37.5091 7.7321 35.4993 7.40223 33.0453C6.705 27.8585 6.7979 22.2917 9.74302 16.9913C11.0636 14.6145 13.8101 12.4631 17.1131 10.6935C20.355 8.95663 23.8205 7.75237 26.1653 7.12512C28.2516 6.56699 31.3753 6.43875 34.6629 6.98831C37.944 7.53677 41.1362 8.71844 43.4704 10.551C48.1418 14.2185 50.7968 21.1913 50.3273 29.7033C49.8386 38.5626 48.2581 46.7486 45.8526 51.906C44.6138 54.5621 43.6827 55.9007 43.0558 56.6105C42.5947 57.1327 42.3141 57.3199 41.9479 57.5644C41.8399 57.6365 41.7245 57.7135 41.5948 57.8056C41.3616 57.9711 40.5576 58.3925 39.6011 58.8561C39.1669 59.0666 38.7567 59.2597 38.4543 59.4004C38.344 59.4517 38.2485 59.4959 38.1718 59.5312L35.4293 60.1675Z" fill="black"/>
<path d="M37.2859 59.3545C36.0415 59.8783 34.6465 59.9196 33.3733 59.4704C31.4528 58.7774 24.1048 54.0749 17.8958 49.0777C12.6859 44.7543 9.16114 38.7376 7.93752 32.079C7.01384 26.9914 8.42346 18.1818 12.8294 14.1533C17.9995 9.79304 24.4488 7.23483 31.2019 6.86559C34.4825 6.76495 37.7285 7.55964 40.5915 9.16435C43.4545 10.7691 45.8264 13.1232 47.4527 15.974C50.6046 21.464 49.8361 33.1941 49.2079 37.5078C48.525 40.9979 47.5853 44.4327 46.3965 47.7843C46.3965 47.7843 45.1921 46.5627 44.9653 46.6125C44.7384 46.6623 44.1122 47.1267 44.3228 47.2736C44.5334 47.4206 46.0984 48.5928 45.9968 48.942C45.8951 49.2913 45.0998 51.2194 45.0998 51.2194C45.0998 51.2194 43.7478 49.8667 43.6326 49.9514C43.5175 50.0361 42.8114 50.3397 43.1254 50.6869C43.4394 51.0341 44.816 52.0247 44.7001 52.3771C44.5318 52.852 44.2883 53.2968 43.9788 53.6945C43.7499 53.938 41.8571 52.2879 41.7153 52.319C41.5735 52.3501 41.1482 52.4435 41.1174 52.7772C41.0867 53.1109 43.1874 54.7599 43.1047 55.0604C42.7457 55.7082 42.3021 56.3053 41.7856 56.836L41.4623 57.0556C40.5477 56.1108 39.5824 55.2165 38.5708 54.3765C38.3864 54.417 37.6517 54.8606 37.8477 55.1445C38.0438 55.4284 40.5826 57.5162 40.4104 57.7472C39.9098 58.1665 39.3682 58.5343 38.7939 58.8451C38.7939 58.8451 36.8239 56.573 36.5545 56.6321C36.2851 56.6912 35.6779 57.1069 35.7672 57.3102C35.8564 57.5135 37.2859 59.3545 37.2859 59.3545Z" fill="#E6E4DA"/>
<path d="M12.1876 22.4676C12.1801 21.147 12.5022 19.8453 13.1246 18.6806C14.236 16.2967 15.5997 15.5366 15.8736 15.5657C16.1475 15.5947 16.707 16.5864 16.653 16.7469C16.5991 16.9073 14.561 18.4544 14.3436 19.7653C14.1261 21.0761 14.1908 22.2508 13.8436 22.5648C13.5907 22.7197 13.2964 22.7934 13.0004 22.7761C12.7043 22.7587 12.4207 22.6511 12.1876 22.4676Z" fill="#1D1D1B"/>
<path d="M39.0248 48.0505C38.0478 48.9608 36.8544 49.6064 35.5579 49.9261C33.0527 50.699 31.5772 50.2055 31.4078 49.9753C31.2384 49.745 31.6111 48.6675 31.7639 48.6191C31.9168 48.5707 34.4362 49.0132 35.5589 48.3061C36.6817 47.5989 37.5026 46.7351 37.9621 46.7977C38.2451 46.8748 38.498 47.0357 38.6877 47.2593C38.8774 47.4829 38.9949 47.7588 39.0248 48.0505Z" fill="#1D1D1B"/>
<path d="M17.0736 28.4091C19.0338 27.7262 24.5294 28.5259 28.4542 33.4747C32.379 38.4236 30.1373 42.0215 27.1981 42.5776C24.2589 43.1336 21.2129 42.9999 16.988 39.6624C12.7632 36.325 12.1974 32.8678 12.9515 31.6323C13.8627 30.0702 15.3379 28.9167 17.0736 28.4091Z" fill="#1D1D1B"/>
<path d="M39.2325 23.5446C41.1983 21.9391 46.2433 21.634 46.8313 26.8844C47.0887 29.0325 46.687 31.2081 45.6794 33.1225C44.6718 35.037 43.1059 36.5999 41.1896 37.6039C37.9326 39.2848 34.7812 39.7537 33.7192 36.4055C32.6572 33.0573 33.0704 28.5085 39.2325 23.5446Z" fill="#1D1D1B"/>
<path d="M38.682 19.7656C39.2208 19.539 39.4019 18.7475 39.0865 17.9978C38.7711 17.2481 38.0787 16.8241 37.54 17.0507C37.0012 17.2773 36.8201 18.0688 37.1355 18.8185C37.4508 19.5682 38.1432 19.9922 38.682 19.7656Z" fill="#F6FAFD"/>
<path d="M33.1504 10.7104C33.4201 10.5969 33.511 10.2011 33.3533 9.82622C33.1956 9.45137 32.8491 9.23947 32.5794 9.35292C32.3097 9.46638 32.2189 9.86222 32.3766 10.2371C32.5343 10.6119 32.8807 10.8238 33.1504 10.7104Z" fill="#F6FAFD"/>
<path d="M36.6595 17.2947C37.737 16.8414 38.099 15.2579 37.468 13.7579C36.8369 12.2578 35.4519 11.4092 34.3744 11.8625C33.2968 12.3158 32.9349 13.8993 33.5659 15.3993C34.1969 16.8994 35.5819 17.7479 36.6595 17.2947Z" fill="#F6FAFD"/>
</svg>
