<svg width="336" height="24" viewBox="0 0 336 24" fill="none" xmlns="http://www.w3.org/2000/svg">
<path d="M10.8812 0L0 11.1103V10.1442L9.9222 0H10.8812Z" fill="white"/>
<path d="M56.3986 20.8086V21.7747L54.333 23.8927H53.374L56.3986 20.8086Z" fill="white"/>
<path d="M33.1236 0L9.73831 23.8927H8.7793L32.1646 0H33.1236Z" fill="white"/>
<path d="M56.3984 9.43823V10.4043L43.1934 23.8928H42.2344L56.3984 9.43823Z" fill="white"/>
<path d="M22.0207 0L0 22.4436V21.4775L21.0616 0H22.0207Z" fill="white"/>
<path d="M44.2634 0L20.878 23.8927H19.9189L43.3044 0H44.2634Z" fill="white"/>
<path d="M56.3976 3.75293V4.71904L37.6231 23.8927H36.6641L56.3976 3.75293Z" fill="white"/>
<path d="M16.414 0L0 16.7584V15.7922L15.455 0H16.414Z" fill="white"/>
<path d="M38.6559 0L15.2705 23.8927H14.3115L37.7338 0H38.6559Z" fill="white"/>
<path d="M56.3987 15.0862V16.0895L48.7266 23.8927H47.7676L56.3987 15.0862Z" fill="white"/>
<path d="M27.5533 0L4.168 23.8927H3.20898L26.5943 0H27.5533Z" fill="white"/>
<path d="M5.31157 0L0 5.4251V4.45899L4.35254 0H5.31157Z" fill="white"/>
<path d="M49.7955 0L26.4102 23.8927H25.4512L48.8365 0H49.7955Z" fill="white"/>
<path d="M55.365 0L31.9797 23.8927H31.0576L54.4429 0H55.365Z" fill="white"/>
<path d="M66.4808 0L55.5996 11.1103V10.1442L65.5218 0H66.4808Z" fill="white"/>
<path d="M111.998 20.8086V21.7747L109.933 23.8927H108.974L111.998 20.8086Z" fill="white"/>
<path d="M88.7233 0L65.3379 23.8927H64.3789L87.7642 0H88.7233Z" fill="white"/>
<path d="M111.998 9.43823V10.4043L98.793 23.8928H97.834L111.998 9.43823Z" fill="white"/>
<path d="M77.6203 0L55.5996 22.4436V21.4775L76.6613 0H77.6203Z" fill="white"/>
<path d="M99.863 0L76.4776 23.8927H75.5186L98.904 0H99.863Z" fill="white"/>
<path d="M111.997 3.75293V4.71904L93.2227 23.8927H92.2637L111.997 3.75293Z" fill="white"/>
<path d="M72.0136 0L55.5996 16.7584V15.7922L71.0546 0H72.0136Z" fill="white"/>
<path d="M94.2555 0L70.8701 23.8927H69.9111L93.3334 0H94.2555Z" fill="white"/>
<path d="M111.998 15.0862V16.0895L104.326 23.8927H103.367L111.998 15.0862Z" fill="white"/>
<path d="M83.1529 0L59.7676 23.8927H58.8086L82.1939 0H83.1529Z" fill="white"/>
<path d="M60.9112 0L55.5996 5.4251V4.45899L59.9522 0H60.9112Z" fill="white"/>
<path d="M105.395 0L82.0098 23.8927H81.0508L104.436 0H105.395Z" fill="white"/>
<path d="M110.965 0L87.5794 23.8927H86.6572L110.043 0H110.965Z" fill="white"/>
<path d="M122.381 0L111.5 11.1103V10.1442L121.422 0H122.381Z" fill="white"/>
<path d="M167.899 20.8086V21.7747L165.833 23.8927H164.874L167.899 20.8086Z" fill="white"/>
<path d="M144.624 0L121.238 23.8927H120.279L143.665 0H144.624Z" fill="white"/>
<path d="M167.898 9.43823V10.4043L154.693 23.8928H153.734L167.898 9.43823Z" fill="white"/>
<path d="M133.521 0L111.5 22.4436V21.4775L132.562 0H133.521Z" fill="white"/>
<path d="M155.763 0L132.378 23.8927H131.419L154.804 0H155.763Z" fill="white"/>
<path d="M167.898 3.75293V4.71904L149.123 23.8927H148.164L167.898 3.75293Z" fill="white"/>
<path d="M127.914 0L111.5 16.7584V15.7922L126.955 0H127.914Z" fill="white"/>
<path d="M150.156 0L126.771 23.8927H125.812L149.234 0H150.156Z" fill="white"/>
<path d="M167.899 15.0862V16.0895L160.227 23.8927H159.268L167.899 15.0862Z" fill="white"/>
<path d="M139.053 0L115.668 23.8927H114.709L138.094 0H139.053Z" fill="white"/>
<path d="M116.812 0L111.5 5.4251V4.45899L115.853 0H116.812Z" fill="white"/>
<path d="M161.296 0L137.91 23.8927H136.951L160.337 0H161.296Z" fill="white"/>
<path d="M166.865 0L143.48 23.8927H142.558L165.943 0H166.865Z" fill="white"/>
<path d="M178.381 0L167.5 11.1103V10.1442L177.422 0H178.381Z" fill="white"/>
<path d="M223.899 20.8086V21.7747L221.833 23.8927H220.874L223.899 20.8086Z" fill="white"/>
<path d="M200.624 0L177.238 23.8927H176.279L199.665 0H200.624Z" fill="white"/>
<path d="M223.898 9.43823V10.4043L210.693 23.8928H209.734L223.898 9.43823Z" fill="white"/>
<path d="M189.521 0L167.5 22.4436V21.4775L188.562 0H189.521Z" fill="white"/>
<path d="M211.763 0L188.378 23.8927H187.419L210.804 0H211.763Z" fill="white"/>
<path d="M223.898 3.75293V4.71904L205.123 23.8927H204.164L223.898 3.75293Z" fill="white"/>
<path d="M183.914 0L167.5 16.7584V15.7922L182.955 0H183.914Z" fill="white"/>
<path d="M206.156 0L182.771 23.8927H181.812L205.234 0H206.156Z" fill="white"/>
<path d="M223.899 15.0862V16.0895L216.227 23.8927H215.268L223.899 15.0862Z" fill="white"/>
<path d="M195.053 0L171.668 23.8927H170.709L194.094 0H195.053Z" fill="white"/>
<path d="M172.812 0L167.5 5.4251V4.45899L171.853 0H172.812Z" fill="white"/>
<path d="M217.296 0L193.91 23.8927H192.951L216.337 0H217.296Z" fill="white"/>
<path d="M222.865 0L199.48 23.8927H198.558L221.943 0H222.865Z" fill="white"/>
<path d="M233.981 0L223.1 11.1103V10.1442L233.022 0H233.981Z" fill="white"/>
<path d="M279.498 20.8086V21.7747L277.433 23.8927H276.474L279.498 20.8086Z" fill="white"/>
<path d="M256.223 0L232.838 23.8927H231.879L255.264 0H256.223Z" fill="white"/>
<path d="M279.498 9.43823V10.4043L266.293 23.8928H265.334L279.498 9.43823Z" fill="white"/>
<path d="M245.12 0L223.1 22.4436V21.4775L244.161 0H245.12Z" fill="white"/>
<path d="M267.363 0L243.978 23.8927H243.019L266.404 0H267.363Z" fill="white"/>
<path d="M279.497 3.75293V4.71904L260.723 23.8927H259.764L279.497 3.75293Z" fill="white"/>
<path d="M239.514 0L223.1 16.7584V15.7922L238.555 0H239.514Z" fill="white"/>
<path d="M261.756 0L238.37 23.8927H237.411L260.833 0H261.756Z" fill="white"/>
<path d="M279.498 15.0862V16.0895L271.826 23.8927H270.867L279.498 15.0862Z" fill="white"/>
<path d="M250.653 0L227.268 23.8927H226.309L249.694 0H250.653Z" fill="white"/>
<path d="M228.411 0L223.1 5.4251V4.45899L227.452 0H228.411Z" fill="white"/>
<path d="M272.895 0L249.51 23.8927H248.551L271.936 0H272.895Z" fill="white"/>
<path d="M278.465 0L255.079 23.8927H254.157L277.543 0H278.465Z" fill="white"/>
<path d="M289.881 0L279 11.1103V10.1442L288.922 0H289.881Z" fill="white"/>
<path d="M335.399 20.8086V21.7747L333.333 23.8927H332.374L335.399 20.8086Z" fill="white"/>
<path d="M312.124 0L288.738 23.8927H287.779L311.165 0H312.124Z" fill="white"/>
<path d="M335.398 9.43823V10.4043L322.193 23.8928H321.234L335.398 9.43823Z" fill="white"/>
<path d="M301.021 0L279 22.4436V21.4775L300.062 0H301.021Z" fill="white"/>
<path d="M323.263 0L299.878 23.8927H298.919L322.304 0H323.263Z" fill="white"/>
<path d="M335.398 3.75293V4.71904L316.623 23.8927H315.664L335.398 3.75293Z" fill="white"/>
<path d="M295.414 0L279 16.7584V15.7922L294.455 0H295.414Z" fill="white"/>
<path d="M317.656 0L294.271 23.8927H293.312L316.734 0H317.656Z" fill="white"/>
<path d="M335.399 15.0862V16.0895L327.727 23.8927H326.768L335.399 15.0862Z" fill="white"/>
<path d="M306.553 0L283.168 23.8927H282.209L305.594 0H306.553Z" fill="white"/>
<path d="M284.312 0L279 5.4251V4.45899L283.353 0H284.312Z" fill="white"/>
<path d="M328.796 0L305.41 23.8927H304.451L327.837 0H328.796Z" fill="white"/>
<path d="M334.365 0L310.98 23.8927H310.058L333.443 0H334.365Z" fill="white"/>
</svg>
