<svg width="284" height="77" viewBox="0 0 284 77" fill="none" xmlns="http://www.w3.org/2000/svg">
<path d="M68.3276 18.084C78.1742 51.3506 40.4444 81.7644 5.93553 53.145L0 58.9885C28.5274 95.0619 95.0606 74.4025 87.2385 18.084H68.3276Z" fill="#F1D51A"/>
<path d="M234.748 51.8613V76.6425H227.295L215.41 63.6227H215.217V76.6425H206.287V51.8613H213.868L225.561 64.8327H225.818V51.8613H234.748Z" fill="black"/>
<path d="M194.468 51.8613H203.398V67.7368C203.398 69.6244 202.799 71.2579 201.599 72.6373C200.411 74.0087 198.751 75.0695 196.62 75.8197C194.49 76.5618 192.016 76.9329 189.2 76.9329C186.363 76.9329 183.878 76.5618 181.748 75.8197C179.617 75.0695 177.957 74.0087 176.769 72.6373C175.591 71.2579 175.002 69.6244 175.002 67.7368V51.8613H183.932V67.156C183.932 67.9223 184.157 68.608 184.607 69.213C185.056 69.8099 185.677 70.2778 186.47 70.6166C187.273 70.9554 188.183 71.1248 189.2 71.1248C190.228 71.1248 191.138 70.9554 191.931 70.6166C192.723 70.2778 193.344 69.8099 193.794 69.213C194.243 68.608 194.468 67.9223 194.468 67.156V51.8613Z" fill="black"/>
<path d="M149.947 76.6425V51.8613H173.076V57.2822H158.877V61.5415H171.662V66.9624H158.877V76.6425H149.947Z" fill="black"/>
<path d="M131.258 59.6064C131.173 58.7997 130.771 58.1705 130.054 57.7187C129.347 57.267 128.271 57.0411 126.825 57.0411C125.904 57.0411 125.15 57.1258 124.561 57.2952C123.982 57.4566 123.554 57.6784 123.276 57.9607C122.997 58.2431 122.853 58.5657 122.842 58.9288C122.821 59.2272 122.89 59.4975 123.051 59.7395C123.222 59.9734 123.49 60.1872 123.854 60.3808C124.218 60.5663 124.684 60.7357 125.251 60.889C125.819 61.0423 126.493 61.1794 127.275 61.3004L129.973 61.736C131.794 62.0264 133.352 62.4096 134.647 62.8855C135.943 63.3615 137.003 63.9221 137.827 64.5674C138.652 65.2047 139.257 65.9227 139.642 66.7213C140.038 67.5199 140.242 68.3911 140.253 69.3349C140.242 70.9644 139.701 72.3438 138.63 73.4732C137.56 74.6025 136.028 75.4616 134.037 76.0505C132.056 76.6394 129.674 76.9338 126.89 76.9338C124.031 76.9338 121.536 76.6152 119.405 75.9779C117.285 75.3406 115.636 74.3605 114.458 73.0376C113.291 71.7065 112.702 70.0045 112.691 67.9313H121.172C121.225 68.6896 121.477 69.3268 121.927 69.8431C122.376 70.3594 123.008 70.7506 123.822 71.0168C124.646 71.283 125.626 71.4161 126.761 71.4161C127.714 71.4161 128.512 71.3274 129.154 71.1499C129.797 70.9725 130.284 70.7264 130.616 70.4118C130.948 70.0972 131.119 69.7382 131.13 69.3349C131.119 68.9558 130.953 68.625 130.632 68.3427C130.321 68.0523 129.807 67.7942 129.09 67.5683C128.373 67.3343 127.404 67.1165 126.183 66.9149L122.906 66.3825C119.994 65.9065 117.697 65.1119 116.016 63.9987C114.346 62.8774 113.516 61.3488 113.527 59.4128C113.516 57.8397 114.073 56.4643 115.197 55.2866C116.332 54.1008 117.901 53.1771 119.903 52.5157C121.916 51.8542 124.223 51.5234 126.825 51.5234C129.481 51.5234 131.778 51.8582 133.716 52.5278C135.654 53.1973 137.147 54.1411 138.197 55.3592C139.257 56.5692 139.792 57.9849 139.803 59.6064H131.258Z" fill="black"/>
<path d="M110.651 51.8613V76.6425H101.721V51.8613H110.651Z" fill="black"/>
<path d="M284.002 30.8583C284.002 33.6171 283.29 35.9444 281.866 37.8401C280.442 39.7277 278.52 41.1596 276.1 42.1357C273.68 43.1037 270.982 43.5877 268.005 43.5877C265.007 43.5877 262.298 43.0997 259.878 42.1236C257.469 41.1394 255.552 39.7035 254.128 37.8159C252.715 35.9202 252.008 33.601 252.008 30.8583C252.008 28.0995 252.715 25.7762 254.128 23.8886C255.552 21.9929 257.469 20.561 259.878 19.593C262.298 18.6169 265.007 18.1289 268.005 18.1289C270.982 18.1289 273.68 18.6169 276.1 19.593C278.52 20.561 280.442 21.9929 281.866 23.8886C283.29 25.7762 284.002 28.0995 284.002 30.8583ZM274.815 30.8583C274.815 29.374 274.552 28.1237 274.028 27.1072C273.514 26.0828 272.748 25.3084 271.731 24.784C270.725 24.2516 269.482 23.9854 268.005 23.9854C266.527 23.9854 265.28 24.2516 264.263 24.784C263.256 25.3084 262.49 26.0828 261.966 27.1072C261.452 28.1237 261.195 29.374 261.195 30.8583C261.195 32.3426 261.452 33.597 261.966 34.6215C262.49 35.6379 263.256 36.4123 264.263 36.9447C265.28 37.469 266.527 37.7312 268.005 37.7312C269.482 37.7312 270.725 37.469 271.731 36.9447C272.748 36.4123 273.514 35.6379 274.028 34.6215C274.552 33.597 274.815 32.3426 274.815 30.8583Z" fill="black"/>
<path d="M223.084 23.8896V18.4688H251.673V23.8896H241.779V43.2499H232.978V23.8896H223.084Z" fill="black"/>
<path d="M195.66 43.2499V18.4688H209.858C212.3 18.4688 214.436 18.8318 216.267 19.5578C218.098 20.2838 219.522 21.3042 220.539 22.6191C221.556 23.934 222.065 25.4707 222.065 27.2293C222.065 29.004 221.54 30.5407 220.491 31.8395C219.452 33.1382 217.991 34.1385 216.106 34.8403C214.232 35.5421 212.043 35.893 209.537 35.893H201.057V30.6657H207.738C208.788 30.6657 209.682 30.5286 210.42 30.2543C211.17 29.972 211.743 29.5727 212.139 29.0564C212.546 28.5401 212.749 27.9311 212.749 27.2293C212.749 26.5194 212.546 25.9144 212.139 25.4143C211.743 24.906 211.17 24.5188 210.42 24.2526C209.682 23.9784 208.788 23.8412 207.738 23.8412H204.59V43.2499H195.66Z" fill="black"/>
<path d="M161.082 18.4688H171.04L177.465 28.5361H177.722L184.146 18.4688H194.104L182.026 35.4574V43.2499H173.16V35.4574L161.082 18.4688Z" fill="black"/>
<path d="M135.125 43.2499V18.4688H149.323C151.764 18.4688 153.901 18.8035 155.732 19.4731C157.563 20.1426 158.987 21.1066 160.004 22.365C161.021 23.6234 161.53 25.1319 161.53 26.8905C161.53 28.6652 161.005 30.1616 159.956 31.3796C158.917 32.5977 157.456 33.5173 155.571 34.1385C153.697 34.7596 151.508 35.0702 149.002 35.0702H140.522V29.8429H147.203C148.252 29.8429 149.146 29.7461 149.885 29.5525C150.635 29.3509 151.208 29.0322 151.604 28.5966C152.011 28.161 152.214 27.5923 152.214 26.8905C152.214 26.1806 152.011 25.6038 151.604 25.1602C151.208 24.7084 150.635 24.3777 149.885 24.1679C149.146 23.9501 148.252 23.8412 147.203 23.8412H144.055V43.2499H135.125ZM154.399 31.8758L162.622 43.2499H152.921L144.89 31.8758H154.399Z" fill="black"/>
<path d="M132.431 27.7607H123.373C123.309 27.196 123.137 26.6837 122.859 26.2239C122.591 25.7641 122.216 25.3689 121.735 25.0381C121.263 24.6993 120.691 24.4412 120.016 24.2637C119.341 24.0782 118.576 23.9854 117.719 23.9854C116.22 23.9854 114.951 24.2597 113.913 24.8082C112.885 25.3568 112.103 26.1433 111.568 27.1677C111.043 28.1922 110.781 29.4224 110.781 30.8583C110.781 32.3749 111.048 33.6454 111.584 34.6699C112.13 35.6863 112.917 36.4526 113.945 36.9689C114.973 37.4771 116.21 37.7312 117.655 37.7312C118.48 37.7312 119.218 37.6546 119.871 37.5013C120.525 37.34 121.092 37.1101 121.574 36.8116C122.056 36.5131 122.447 36.1542 122.746 35.7347C123.057 35.3071 123.266 34.8272 123.373 34.2948L132.431 34.3432C132.324 35.3918 131.934 36.4607 131.259 37.5497C130.584 38.6307 129.626 39.6309 128.384 40.5506C127.153 41.4621 125.627 42.1962 123.806 42.7528C121.986 43.3094 119.871 43.5877 117.462 43.5877C114.443 43.5877 111.734 43.0997 109.335 42.1236C106.948 41.1475 105.058 39.7116 103.666 37.8159C102.284 35.9202 101.594 33.601 101.594 30.8583C101.594 28.0995 102.3 25.7762 103.714 23.8886C105.127 21.9929 107.033 20.561 109.432 19.593C111.83 18.6169 114.507 18.1289 117.462 18.1289C119.54 18.1289 121.451 18.3427 123.196 18.7702C124.941 19.1978 126.473 19.8229 127.79 20.6457C129.107 21.4605 130.167 22.4648 130.97 23.6587C131.773 24.8526 132.26 26.2199 132.431 27.7607Z" fill="black"/>
<ellipse cx="13.9391" cy="31.0248" rx="7.31735" ry="11.7503" transform="rotate(-6.58664 13.9391 31.0248)" fill="#F1D51A"/>
<ellipse cx="44.2208" cy="19.2629" rx="11.6869" ry="15.3164" transform="rotate(-36.4877 44.2208 19.2629)" fill="#F1D51A"/>
</svg>
