<svg width="122" height="8" viewBox="0 0 122 8" fill="none" xmlns="http://www.w3.org/2000/svg">
<mask id="mask0_398_3438" style="mask-type:alpha" maskUnits="userSpaceOnUse" x="0" y="0" width="122" height="8">
<path d="M0 0H122V8H0V0Z" fill="#C4C4C4"/>
</mask>
<g mask="url(#mask0_398_3438)">
<path opacity="0.3" fillRule="evenodd" clipRule="evenodd" d="M-49.1152 60.1871L26.9053 -16.8397L28.2474 -15.5151L-47.7731 61.5117L-49.1152 60.1871Z" fill="white"/>
<path fillRule="evenodd" clipRule="evenodd" d="M87.7998 60.1871L163.82 -16.8397L165.162 -15.5151L89.1419 61.5117L87.7998 60.1871Z" fill="white"/>
<path opacity="0.3" fillRule="evenodd" clipRule="evenodd" d="M53.6221 60.1871L129.643 -16.8397L130.985 -15.5151L54.9642 61.5117L53.6221 60.1871Z" fill="white"/>
<path opacity="0.3" fillRule="evenodd" clipRule="evenodd" d="M-14.9072 60.1871L61.1133 -16.8397L62.4554 -15.5151L-13.5651 61.5117L-14.9072 60.1871Z" fill="white"/>
<path opacity="0.3" fillRule="evenodd" clipRule="evenodd" d="M36.5176 60.1871L112.538 -16.8397L113.88 -15.5151L37.8597 61.5117L36.5176 60.1871Z" fill="white"/>
<path opacity="0.3" fillRule="evenodd" clipRule="evenodd" d="M-32.0117 60.1871L44.0088 -16.8397L45.3509 -15.5151L-30.6696 61.5117L-32.0117 60.1871Z" fill="white"/>
<path fillRule="evenodd" clipRule="evenodd" d="M104.903 60.1871L180.924 -16.8397L182.266 -15.5151L106.245 61.5117L104.903 60.1871Z" fill="white"/>
<path fillRule="evenodd" clipRule="evenodd" d="M-66.1885 60.1871L9.83206 -16.8397L11.1742 -15.5151L-64.8463 61.5117L-66.1885 60.1871Z" fill="white"/>
<path fillRule="evenodd" clipRule="evenodd" d="M70.7266 60.1871L146.747 -16.8397L148.089 -15.5151L72.0687 61.5117L70.7266 60.1871Z" fill="white"/>
<path opacity="0.3" fillRule="evenodd" clipRule="evenodd" d="M2.19629 60.1871L78.2168 -16.8397L79.559 -15.5151L3.53843 61.5117L2.19629 60.1871Z" fill="white"/>
<path opacity="0.3" fillRule="evenodd" clipRule="evenodd" d="M27.9326 60.1871L103.953 -16.8397L105.295 -15.5151L29.2748 61.5117L27.9326 60.1871Z" fill="white"/>
<path opacity="0.3" fillRule="evenodd" clipRule="evenodd" d="M-40.5977 60.1871L35.4229 -16.8397L36.765 -15.5151L-39.2555 61.5117L-40.5977 60.1871Z" fill="white"/>
<path fillRule="evenodd" clipRule="evenodd" d="M96.3174 60.1871L172.338 -16.8397L173.68 -15.5151L97.6595 61.5117L96.3174 60.1871Z" fill="white"/>
<path fillRule="evenodd" clipRule="evenodd" d="M-74.7744 60.1871L1.24609 -16.8397L2.58823 -15.5151L-73.4323 61.5117L-74.7744 60.1871Z" fill="white"/>
<path opacity="0.3" fillRule="evenodd" clipRule="evenodd" d="M62.1406 60.1871L138.161 -16.8397L139.503 -15.5151L63.4828 61.5117L62.1406 60.1871Z" fill="white"/>
<path opacity="0.3" fillRule="evenodd" clipRule="evenodd" d="M-6.38965 60.1871L69.6309 -16.8397L70.973 -15.5151L-5.04751 61.5117L-6.38965 60.1871Z" fill="white"/>
<path opacity="0.3" fillRule="evenodd" clipRule="evenodd" d="M45.0361 60.1871L121.057 -16.8397L122.399 -15.5151L46.3783 61.5117L45.0361 60.1871Z" fill="white"/>
<path opacity="0.3" fillRule="evenodd" clipRule="evenodd" d="M-23.4941 60.1871L52.5263 -16.8397L53.8685 -15.5151L-22.152 61.5117L-23.4941 60.1871Z" fill="white"/>
<path fillRule="evenodd" clipRule="evenodd" d="M113.421 60.1871L189.441 -16.8397L190.784 -15.5151L114.763 61.5117L113.421 60.1871Z" fill="white"/>
<path opacity="0.3" fillRule="evenodd" clipRule="evenodd" d="M-57.6709 60.1871L18.3496 -16.8397L19.6917 -15.5151L-56.3288 61.5117L-57.6709 60.1871Z" fill="white"/>
<path fillRule="evenodd" clipRule="evenodd" d="M79.2441 60.1871L155.265 -16.8397L156.607 -15.5151L80.5863 61.5117L79.2441 60.1871Z" fill="white"/>
<path opacity="0.3" fillRule="evenodd" clipRule="evenodd" d="M10.7148 60.1871L86.7353 -16.8397L88.0775 -15.5151L12.057 61.5117L10.7148 60.1871Z" fill="white"/>
<path opacity="0.3" fillRule="evenodd" clipRule="evenodd" d="M19.3008 60.1871L95.3213 -16.8397L96.6634 -15.5151L20.6429 61.5117L19.3008 60.1871Z" fill="white"/>
</g>
</svg>
