<svg width="349" height="297" viewBox="0 0 349 297" fill="none" xmlns="http://www.w3.org/2000/svg">
<path d="M247.81 35.9582C249.77 27.9806 253.649 20.6025 259.108 14.4657C264.727 8.1404 272.117 3.65071 280.319 1.57931C284.419 0.531728 288.634 0.00184172 292.865 0.00201822C297.128 -0.0353169 301.38 0.445474 305.526 1.43383C309.715 2.46975 313.748 4.05572 317.521 6.15041C321.292 8.26305 324.786 10.8349 327.924 13.8072C334.09 19.7574 339.09 26.8078 342.667 34.5953C343.585 36.5172 344.42 38.4697 345.17 40.4757C345.545 41.4711 345.935 42.4895 346.241 43.5384C346.548 44.5874 346.884 45.8355 347.068 46.9304C347.468 49.0756 347.754 51.2404 347.925 53.4157C348.048 55.5366 348.125 57.6422 348.132 59.7325C348.042 67.9777 347.349 76.2052 346.058 84.3491C345.752 86.3909 345.42 88.4174 345.063 90.4285C344.887 91.4239 344.764 92.3274 344.626 93.2922C344.489 94.2569 344.404 95.2293 344.29 96.1941C343.846 100.107 343.677 104.104 343.478 108.1C342.942 124.095 343.195 140.259 343.937 156.239C343.983 157.226 344.029 158.229 344.098 159.194C344.098 159.669 344.159 160.197 344.198 160.626C344.236 161.055 344.267 161.392 344.335 161.92C344.611 163.903 344.871 165.986 345.101 168.045C345.522 172.157 345.866 176.292 345.928 180.449C346.224 188.87 345.512 197.296 343.807 205.548C342.08 214.097 338.397 222.13 333.045 229.016C327.964 235.729 321.998 241.723 315.309 246.834C308.773 251.859 301.752 256.22 294.35 259.85C287.057 263.489 279.473 266.514 271.677 268.893C278.697 264.804 285.593 260.669 292.176 256.152C298.714 251.715 304.92 246.81 310.747 241.474C316.468 236.256 321.569 230.395 325.949 224.009C327.028 222.477 328.023 220.816 328.95 219.177C329.876 217.539 330.611 215.885 331.391 214.254C331.766 213.427 332.027 212.531 332.356 211.674L332.83 210.38C332.991 209.943 333.091 209.484 333.228 209.04L333.994 206.344C334.216 205.433 334.392 204.499 334.599 203.58L334.913 202.195C335.004 201.735 335.073 201.26 335.157 200.786L335.624 197.968L335.969 195.104L336.137 193.673L336.252 192.225C336.612 188.397 336.734 184.484 336.757 180.579C336.78 176.674 336.642 172.747 336.382 168.819C336.252 166.851 336.084 164.929 335.9 162.9C335.846 162.395 335.823 161.751 335.793 161.185C335.762 160.618 335.793 160.128 335.747 159.592C335.747 158.543 335.747 157.525 335.747 156.529C335.686 148.375 335.877 140.297 335.992 132.196C336.107 124.095 336.306 116.002 336.65 107.886C336.796 103.813 336.995 99.7545 337.27 95.6351C337.354 94.5938 337.385 93.5831 337.523 92.5265L337.86 89.3796C338.094 87.4194 338.306 85.4516 338.495 83.4762C339.227 75.6248 339.534 67.7396 339.413 59.855C339.413 57.9025 339.299 55.9807 339.169 54.0742C339.066 52.227 338.864 50.3868 338.564 48.5613C338.434 47.6578 338.212 46.8845 338.02 46.0652C337.829 45.2459 337.492 44.2658 337.194 43.37C336.604 41.5706 335.923 39.779 335.18 38.0102C332.287 30.9765 328.137 24.5289 322.933 18.9832C320.345 16.26 317.429 13.8682 314.253 11.8624C311.039 9.85914 307.578 8.28387 303.957 7.17641C300.312 6.05506 296.543 5.38394 292.735 5.17801C288.896 4.94135 285.042 5.15979 281.253 5.82881C273.58 7.21481 266.477 10.8097 260.815 16.1731C259.37 17.5196 258.015 18.9596 256.758 20.4839C255.478 22.0032 254.294 23.6015 253.214 25.2694C251 28.6078 249.186 32.1954 247.81 35.9582Z" fill="black"/>
<path d="M295.254 19.1743C298.436 20.0397 301.365 21.6543 303.796 23.8832C304.11 24.1589 304.432 24.4192 304.73 24.7025L305.587 25.606L306.437 26.5095L307.203 27.4819C308.219 28.7915 309.142 30.1705 309.966 31.6089L311.061 33.8294L311.328 34.3883L311.55 34.9702L311.979 36.1341C312.549 37.6751 313.002 39.2569 313.334 40.866C313.526 41.6624 313.664 42.4707 313.747 43.2855L314.038 45.705C314.099 47.3359 314.107 48.9668 314.038 50.5747C313.594 49.0051 313.273 47.4355 312.921 45.8888L312.262 43.5918C312.08 42.8152 311.858 42.0485 311.596 41.2947C311.328 40.5291 311.068 39.817 310.831 39.0666C310.576 38.3293 310.282 37.606 309.951 36.8997C309.392 35.4373 308.642 34.0744 307.945 32.6809C306.442 29.9638 304.626 27.4325 302.533 25.1389C300.409 22.8083 297.956 20.799 295.254 19.1743Z" fill="black"/>
<path d="M269.22 28.1482C271.309 26.347 273.85 25.1526 276.57 24.695C279.289 24.2374 282.082 24.534 284.644 25.5526C286.354 26.2459 287.959 27.1736 289.413 28.309C290.82 29.4666 292.103 30.7677 293.241 32.191C294.351 33.6049 295.347 35.1053 296.218 36.6779C297.945 39.7782 299.268 43.0875 300.153 46.5245C298.385 43.4618 296.655 40.4526 294.703 37.6273C292.828 34.8116 290.563 32.2773 287.974 30.1007C285.436 27.9953 282.345 26.6661 279.072 26.2723C275.678 25.9745 272.268 26.6238 269.22 28.1482Z" fill="black"/>
<path d="M58.3109 104.693C53.3167 102.947 48.2286 101.482 43.0705 100.306C40.6745 99.7589 38.2146 99.545 35.7603 99.6703C34.7205 99.7162 33.7014 99.9769 32.7673 100.436C31.7743 100.946 30.8529 101.584 30.0269 102.335C28.3767 103.933 27.1259 105.898 26.3756 108.07C25.5663 110.416 25.0395 112.85 24.8064 115.321C24.3089 120.42 24.5385 125.726 24.7529 131.14C22.6208 126.08 21.4152 120.677 21.1934 115.191C21.1157 112.327 21.4771 109.469 22.2651 106.715C22.4702 105.998 22.726 105.297 23.0305 104.617L23.4898 103.591C23.6659 103.254 23.8649 102.924 24.0563 102.588C24.8459 101.255 25.8171 100.038 26.9421 98.9736C28.0904 97.938 29.3789 97.0693 30.7694 96.3932C31.149 96.2074 31.5402 96.0463 31.9406 95.9109C32.3386 95.7807 32.7443 95.6888 33.1424 95.5893C33.9188 95.4304 34.7077 95.3408 35.5 95.3213C38.3998 95.3325 41.2753 95.8508 43.9967 96.8526C46.5949 97.7531 49.11 98.8778 51.5136 100.214C53.9009 101.514 56.1747 103.012 58.3109 104.693Z" fill="#150A0E"/>
<path d="M31.114 75.4669C28.2405 75.7041 25.4183 76.3673 22.7398 77.4347C20.0913 78.4465 17.6072 79.8449 15.3683 81.5847C13.1738 83.3076 11.2491 85.349 9.65796 87.6412C8.09526 89.9291 6.8418 92.4135 5.93014 95.03L5.27948 97.0055C5.08812 97.6793 4.91206 98.376 4.72835 99.0651C4.40474 100.343 4.22249 101.652 4.18487 102.97C4.07241 105.738 4.20819 108.511 4.59057 111.255C5.39276 116.832 6.74662 122.315 8.63223 127.625C9.09151 128.965 9.61969 130.282 10.1172 131.606C10.6148 132.931 11.1659 134.24 11.7324 135.542C12.2988 136.844 12.8117 138.168 13.4241 139.455L15.2459 143.283C15.8353 144.569 16.5089 145.84 17.1825 147.111L19.1804 150.94L23.1455 158.688C28.4068 169.04 33.6018 179.431 38.7304 189.859L46.3851 205.51L53.9632 221.198C56.451 226.443 58.9693 231.673 61.4265 236.941C62.5712 239.482 63.8488 241.961 65.2538 244.368C66.6623 246.833 68.1932 249.245 69.7241 251.603C76.125 261.051 83.723 269.629 92.3284 277.123C101.036 284.7 110.64 291.177 120.926 296.411C109.924 292.405 99.5756 286.793 90.2157 279.757C85.5236 276.191 81.0741 272.315 76.8966 268.157C72.7309 263.954 68.8708 259.458 65.3457 254.704C63.5851 252.323 61.9011 249.873 60.3166 247.354C58.7122 244.804 57.2529 242.166 55.9457 239.452C53.3508 234.276 50.687 229.131 48.0614 223.97L40.2537 208.45L32.5378 192.891C27.4346 182.504 22.3724 172.09 17.3509 161.652L13.6078 153.803L11.6711 149.853C11.0205 148.543 10.3698 147.234 9.79575 145.863C7.33043 140.479 5.23582 134.933 3.52657 129.263L2.36306 124.96C2.01094 123.513 1.70476 122.051 1.38326 120.596C1.06176 119.141 0.862743 117.648 0.617793 116.186C0.502973 115.42 0.441739 114.693 0.357537 113.95C0.273336 113.207 0.173826 112.464 0.143208 111.706C-0.0860732 108.679 -0.0399612 105.637 0.280986 102.618C0.433358 101.04 0.759383 99.484 1.25313 97.9779C1.49043 97.2811 1.71241 96.5843 1.96501 95.8799C2.21762 95.1755 2.51615 94.4711 2.82999 93.7743C5.21576 88.1487 9.21038 83.3539 14.312 79.9921C19.3277 76.8221 25.1851 75.2446 31.114 75.4669Z" fill="#150A0E"/>
<path d="M75.5264 237.086C78.5371 240.354 81.7563 243.423 85.1636 246.275C88.524 249.154 92.0528 251.795 95.6964 254.314C102.939 259.314 110.647 263.601 118.714 267.116C122.733 268.862 126.866 270.332 131.015 271.71C133.112 272.323 135.187 273.004 137.315 273.517C138.371 273.778 139.42 274.084 140.492 274.283L143.691 274.98C144.748 275.225 145.827 275.386 146.906 275.577C147.985 275.768 149.049 275.975 150.129 276.121C152.287 276.389 154.438 276.749 156.612 276.886L159.866 277.2C160.952 277.269 162.039 277.315 163.126 277.376C165.285 277.53 167.513 277.514 169.725 277.537L173.009 277.583C174.073 277.583 175.152 277.583 176.224 277.522L179.469 277.353L182.715 277.078C183.794 277.009 184.873 276.833 185.96 276.71C187.047 276.588 188.119 276.481 189.198 276.304L192.428 275.807C193.5 275.646 194.579 275.478 195.643 275.248C204.231 273.682 212.667 271.376 220.858 268.357C237.323 262.507 252.701 253.809 266.786 243.419L266.625 243.549C269.894 240.616 273.124 237.423 276.194 234.162C279.263 230.9 282.271 227.554 285.073 224.062C287.884 220.591 290.509 216.972 292.934 213.22L294.657 210.364C295.231 209.415 295.728 208.419 296.264 207.447C297.343 205.502 298.346 203.443 299.326 201.421C301.347 197.363 303.299 193.259 305.212 189.17C307.126 185.082 308.994 180.916 310.785 176.743C312.576 172.57 314.298 168.367 315.799 164.087C317.381 159.826 318.66 155.458 319.626 151.017L319.182 154.416C319.006 155.542 318.761 156.66 318.547 157.785C318.332 158.911 318.049 160.013 317.781 161.131C317.513 162.249 317.246 163.352 316.916 164.447L315.983 167.754L315.049 171.031C314.39 173.221 313.61 175.373 312.875 177.54C311.344 181.843 309.739 186.123 308.06 190.38C306.381 194.637 304.61 198.854 302.748 203.029C301.821 205.127 300.933 207.21 299.908 209.308C299.387 210.349 298.936 211.429 298.377 212.447L296.677 215.51C294.3 219.498 291.709 223.355 288.916 227.064C286.134 230.77 283.192 234.343 280.09 237.783C276.982 241.221 273.813 244.506 270.368 247.737L270.292 247.806L270.208 247.867L264.757 251.895C262.92 253.212 261.167 254.636 259.231 255.815C255.403 258.234 251.653 260.761 247.634 262.851C239.744 267.3 231.497 271.082 222.978 274.161C214.451 277.245 205.674 279.591 196.746 281.174C195.636 281.404 194.518 281.565 193.393 281.725L190.025 282.223C188.907 282.392 187.767 282.483 186.642 282.606C185.516 282.728 184.383 282.859 183.251 282.912L179.844 283.127L176.415 283.234C175.274 283.234 174.119 283.234 172.97 283.234L169.579 283.111C167.352 283.042 165.124 283.012 162.851 282.805C161.718 282.713 160.554 282.644 159.452 282.545L156.076 282.147L154.385 281.94C153.826 281.863 153.267 281.764 152.708 281.672L149.348 281.105C148.23 280.906 147.128 280.646 146.018 280.424C144.908 280.202 143.791 279.98 142.696 279.658L139.405 278.816C138.31 278.54 137.231 278.188 136.144 277.874C133.962 277.269 131.834 276.488 129.691 275.768C125.432 274.204 121.257 272.42 117.183 270.424C113.141 268.41 109.192 266.228 105.387 263.832C101.603 261.417 97.9443 258.81 94.4257 256.022C90.9086 253.244 87.5506 250.272 84.3675 247.117C82.7677 245.585 81.2444 243.924 79.7747 242.262C78.305 240.601 76.8353 238.893 75.5264 237.086Z" fill="#150A0E"/>
<path d="M337.492 102.664C336.658 114.953 335.64 127.219 334.913 139.47C334.752 142.533 334.591 145.596 334.507 148.658C334.446 150.19 334.446 151.721 334.453 153.206C334.461 154.692 334.576 156.154 334.736 157.701C335.311 163.826 335.777 170.028 335.8 176.246C335.79 182.476 335.304 188.696 334.346 194.852C333.335 201.003 331.754 207.048 329.623 212.906C327.523 218.78 324.694 224.368 321.203 229.537C319.416 232.082 317.43 234.481 315.263 236.711C313.119 238.949 310.677 240.881 308.006 242.454C309.261 241.57 310.437 240.578 311.52 239.491L312.339 238.725L313.104 237.89C313.64 237.347 314.122 236.757 314.635 236.175C316.587 233.837 318.363 231.357 319.948 228.756C323.041 223.524 325.537 217.961 327.388 212.171C331.066 200.569 332.874 188.455 332.746 176.284C332.746 170.159 332.341 164.117 331.866 157.977C331.736 156.445 331.682 154.837 331.682 153.26C331.682 151.683 331.743 150.136 331.835 148.589C331.981 145.488 332.256 142.41 332.547 139.34C333.726 127.005 335.402 114.808 337.492 102.664Z" fill="white"/>
<path d="M15.4908 110.696C15.3581 107.48 15.8387 104.268 16.9069 101.232C17.4271 99.6802 18.1123 98.1888 18.9507 96.7834C19.8089 95.3644 20.8371 94.0556 22.0126 92.8861C23.2265 91.7192 24.6162 90.7503 26.1308 90.0148C27.6468 89.3103 29.2592 88.8355 30.915 88.606C34.1472 88.2374 37.4204 88.6713 40.445 89.8693C37.3749 89.5888 34.2803 89.759 31.2594 90.3747C29.8286 90.7375 28.4461 91.2695 27.1412 91.9596C25.8586 92.6663 24.6747 93.5391 23.6201 94.5553C22.5436 95.5754 21.5882 96.7162 20.7725 97.9549C19.9283 99.2104 19.1859 100.532 18.5527 101.906C17.2594 104.734 16.2343 107.676 15.4908 110.696Z" fill="white"/>
<path d="M286.864 40.7358C286.864 40.7358 283.534 40.8813 280.641 44.3575C277.747 47.8336 249.257 75.0305 241.296 81.5388C233.335 88.047 213.379 107.005 175.359 116.415C137.338 125.826 101.583 118.146 84.5129 116.844C84.5129 116.844 51.8198 108.016 46.1783 105.995C40.5368 103.973 33.4486 102.809 30.7006 110.19C27.9525 117.572 34.3212 148.099 43.5757 169.661C52.8302 191.222 71.6377 232.745 111.702 252.277C151.767 271.81 189.382 268.356 211.978 263.709C234.575 259.061 265.018 244.613 285.586 216.834C306.154 189.055 310.035 155.917 310.18 138.406C310.326 120.895 310.18 97.4572 306.123 79.5174C302.066 61.5776 292.942 40.0161 286.864 40.7358Z" fill="black"/>
<path d="M130.196 167.012C143.07 166.436 155.874 164.776 168.469 162.05C166.256 154.852 164.467 147.529 163.111 140.121C162.154 135.297 161.312 130.519 160.608 126.339C148.267 127.74 135.821 127.971 123.437 127.028C124.662 140.634 127.716 160.542 129.653 165.695C129.744 166.078 129.943 166.529 130.196 167.012Z" fill="#FEFEFE"/>
<path d="M276.883 105.558C276.883 105.558 276.446 83.8589 267.337 68.6602C267.337 68.6602 258.871 81.1407 241.089 94.609C243.86 100.734 249.043 113.207 251.569 125.803C260.445 119.622 268.902 112.859 276.883 105.558Z" fill="#FEFEFE"/>
<path d="M123.644 167.203C121.439 160.557 118.331 140.266 117.183 126.484C106.631 125.403 96.1599 123.636 85.8372 121.193C85.8372 121.193 85.5081 152.012 95.4821 165.472C95.4821 165.465 106.206 167.44 123.644 167.203Z" fill="#FEFEFE"/>
<path d="M246.034 129.539C244.013 117.587 238.954 104.976 236.007 98.292C226.74 104.73 216.815 110.164 206.398 114.501L214.819 146.713C225.65 141.801 236.086 136.059 246.034 129.539Z" fill="#FEFEFE"/>
<path d="M174.44 160.672C186.3 157.77 197.911 153.93 209.162 149.187L200.657 116.752C189.649 120.843 178.247 123.778 166.632 125.512C167.298 129.501 168.102 134.018 168.998 138.582C171.156 149.592 173.001 156.415 174.44 160.672Z" fill="#FEFEFE"/>
<path d="M123.383 127.028C123.575 129.133 123.804 131.392 124.072 133.728C136.521 133.507 148.92 132.092 161.098 129.501C160.906 128.414 160.723 127.357 160.554 126.331C148.213 127.731 135.768 127.964 123.383 127.028Z" fill="#D1B5C1"/>
<path d="M98.1844 123.766L97.8399 123.705L94.4872 123.061L93.7906 122.924L90.6522 122.265L89.7949 122.081C88.4783 121.796 87.1591 121.497 85.8374 121.186V122.411C85.8374 122.709 85.8374 123.054 85.8374 123.444V123.513C85.8374 123.911 85.8374 124.348 85.8374 124.838V124.907C85.8374 125.397 85.8757 125.925 85.8987 126.492V126.622C85.8987 127.188 85.9446 127.793 85.9828 128.429V128.544C85.9828 129.179 86.0594 129.853 86.1053 130.542V130.68C86.1053 131.032 86.1589 131.392 86.1895 131.752C96.6772 133.148 107.246 133.843 117.826 133.835C117.543 131.277 117.298 128.812 117.107 126.53C111.06 125.856 104.714 124.968 98.1844 123.766Z" fill="#D1B5C1"/>
<path d="M241.089 94.609C241.319 95.122 241.579 95.7039 241.855 96.3088C251.699 89.3814 261.09 81.8317 269.97 73.706C269.595 72.8637 269.205 72.0368 268.769 71.2175C268.769 71.1486 268.7 71.0874 268.669 71.0261C268.248 70.2222 267.812 69.4335 267.353 68.6602L267.307 68.7291L266.893 69.3033C264.811 72.144 256.414 82.9783 241.089 94.609Z" fill="#D1B5C1"/>
<path d="M131.796 227.247L159.567 228.985L163.471 260.677C163.471 260.677 134.835 256.787 130.058 253.724L131.796 227.247Z" fill="#FEFEFE"/>
<path d="M200.788 222.646C180.082 230.05 165.645 231.589 165.645 231.589L168.248 259.804C180.68 260.919 193.207 260.329 205.48 258.05L205.572 257.637C205.572 257.637 200.872 232.592 200.788 222.646Z" fill="#FEFEFE"/>
<path d="M240.132 203.894C228.758 210.812 216.765 216.656 204.309 221.351C205.158 229.207 207.47 243.648 213.571 256.266C227.76 252.634 241.253 246.684 253.505 238.656L253.306 237.66C253.306 237.66 243.485 210.249 240.132 203.894Z" fill="#FEFEFE"/>
<path d="M283.68 211.612C283.289 205.548 267.215 184.277 267.215 184.277C259.436 190.933 251.171 196.998 242.49 202.424C245.927 209.813 253.597 226.099 258.565 235.172C275.168 223.273 283.68 211.612 283.68 211.612Z" fill="#FEFEFE"/>
<path d="M205.572 257.637C205.572 257.637 200.872 232.592 200.788 222.646L199.547 223.082L199.494 223.342L199.93 251.558L197.006 259.36C199.9 259.008 202.724 258.594 205.48 258.05L205.572 257.637Z" fill="#D1B5C1"/>
<path d="M130.058 253.724C134.835 256.787 163.471 260.677 163.471 260.677L162.154 249.957C145.505 248.862 135.363 244.957 130.77 242.722L130.058 253.724Z" fill="#D1B5C1"/>
<path d="M167.359 250.218L168.247 259.804C180.68 260.919 193.207 260.329 205.48 258.051L205.572 257.637C205.572 257.637 204.722 253.135 203.75 247.201C191.753 249.438 179.56 250.449 167.359 250.218Z" fill="#D1B5C1"/>
<path d="M209.514 246.068C210.639 249.543 211.995 252.94 213.571 256.236C227.76 252.604 241.253 246.654 253.505 238.625L253.306 237.63C253.306 237.63 252.104 234.269 250.397 229.636C240.522 236.624 229.369 241.6 217.574 244.284C214.818 244.98 212.101 245.562 209.514 246.068Z" fill="#D1B5C1"/>
<path d="M254.202 226.834C255.733 229.897 257.264 232.798 258.565 235.18C275.168 223.273 283.68 211.612 283.68 211.612C283.527 209.453 281.383 205.372 278.72 201.015C270.46 212.225 262.254 220.563 254.202 226.834Z" fill="#D1B5C1"/>
<path d="M237.002 178.933L236.703 183.405C235.54 182.175 234.685 180.687 234.208 179.063L234.169 178.941C223.621 179.446 210.93 185.518 200.213 206.413C200.213 206.413 200.213 199.178 203.107 195.418C203.107 195.418 191.847 194.055 182.156 198.044C181.758 198.994 180.043 203.174 179.86 205.762C179.86 205.762 179.308 202.003 179.224 199.453C172.412 203.282 167.176 210.372 168.684 223.488C168.684 223.488 213.525 213.649 255.763 185.288C250.196 181.519 243.714 179.323 237.002 178.933Z" fill="#FD9CA3"/>
<path d="M168.684 223.488C168.684 223.488 213.525 213.649 255.733 185.288C250.165 181.519 243.683 179.323 236.971 178.933V179.4C240.27 182.999 241.878 186.888 241.48 187.532C240.615 188.94 221.409 198.818 206.544 205.219C194.044 210.579 174.394 215.755 168.485 217.255C168.373 219.335 168.439 221.42 168.684 223.488Z" fill="#CD6C7D"/>
<path d="M111.687 252.277C82.3086 237.959 64.3661 211.811 53.2285 190.38C63.8073 213.044 80.8925 241.987 110.922 256.619C150.994 276.159 188.601 272.698 211.198 268.05C225.566 265.102 240.286 257.928 254.416 245.937C241.459 254.401 227.06 260.414 211.933 263.678C189.367 268.341 151.759 271.817 111.687 252.277Z" fill="#FFFED0"/>
</svg>
