<svg width="668" height="736" viewBox="0 0 668 736" fill="none" xmlns="http://www.w3.org/2000/svg">
<g clip-path="url(#clip0_556_2622)">
<path d="M178.545 129.798C178.545 129.798 244.72 72.8541 361.89 83.8569C361.89 83.8569 417.769 87.9073 472.408 130.157C472.408 130.157 519.568 170.669 534.901 200.477C550.233 230.285 549.077 225.362 557.176 247.069C565.274 268.776 572.485 303.499 568.75 334.754C565.014 366.009 529.114 435.755 488.896 473.342C448.678 510.929 348.287 564.534 254.556 530.385C254.556 530.385 126.004 486.129 94.2826 368.903C52.6182 214.949 178.545 129.798 178.545 129.798Z" fill="#F2CE1E"/>
<path d="M320.233 522.276C320.233 522.276 276.257 523.44 240.089 496.81C240.089 496.81 200.17 460.057 190.333 427.363C190.333 427.363 192.936 445.303 188.596 449.644C184.256 453.985 172.108 442.99 159.087 416.651C146.066 390.312 136.253 373.819 133.337 341.124C130.42 308.43 144.329 255.169 137.386 258.937C130.443 262.704 101.225 322.35 92.8358 356.752C92.5755 357.816 92.3076 358.903 92.0703 359.998C92.7541 362.944 93.4992 365.912 94.3055 368.903C126.026 486.128 254.579 530.385 254.579 530.385C274.21 537.463 294.903 541.147 315.77 541.28C318.911 535.451 320.451 528.894 320.233 522.276Z" fill="#C4A20D"/>
<path d="M569.178 330.527C569.254 329.762 569.316 328.996 569.369 328.185C569.369 327.832 569.423 327.48 569.446 327.128C569.492 326.362 569.538 325.551 569.576 324.762L569.622 323.82C569.663 322.917 569.693 322.013 569.714 321.11C569.714 320.918 569.714 320.734 569.714 320.543C569.813 315.88 569.714 311.194 569.438 306.531C565.503 289.441 560.666 271.547 555.422 253.294C533.729 177.759 469.062 176.458 479.48 194.689C489.898 212.919 489.898 238.125 489.898 238.125C477.743 221.633 452.138 209.03 429.572 211.22C407.006 213.409 394.858 242.038 394.858 242.038C413.084 212.521 444.766 214.252 468.197 229.879C491.628 245.507 489.898 276.762 488.161 286.746C486.423 296.73 482.519 329.724 485.558 389.622C488.597 449.521 443.029 467.76 443.029 467.76C353.209 532.842 259.493 514.175 259.493 514.175C259.493 514.175 244.337 518.54 243.938 526.15C249.764 528.654 253.514 529.979 254.379 530.316H254.418H254.51C348.287 564.534 448.686 510.99 488.896 473.372C529.106 435.755 564.991 365.994 568.741 334.754C568.872 333.674 568.986 332.587 569.086 331.5C569.124 331.178 569.155 330.849 569.178 330.527Z" fill="#C4A20D"/>
<path d="M465.335 475.271C465.335 475.271 349.818 570.307 232.955 510.454C232.955 510.454 142.629 459.736 122.59 382.977C122.59 382.977 115.142 360.159 114.766 326.737C114.361 362.977 122.59 388.198 122.59 388.198C142.614 464.958 232.955 515.676 232.955 515.676C349.841 575.529 465.335 480.455 465.335 480.455C522.814 432.278 537.075 372.984 536.523 324.754C536.003 372.02 520.762 428.779 465.335 475.271Z" fill="#FEFEFE"/>
<path d="M374.91 706.475C374.91 706.475 373.899 706.766 375.055 708.359C376.211 709.952 377.222 708.252 374.91 706.475Z" fill="#F2CE1E"/>
<path d="M54.3483 428.121C54.3483 428.121 53.047 428.496 53.644 430.02C53.7179 430.301 53.8658 430.558 54.0723 430.763C54.2788 430.968 54.5364 431.114 54.8183 431.186C55.1003 431.258 55.3963 431.253 55.6758 431.172C55.9552 431.09 56.2078 430.936 56.4074 430.724C56.9738 429.966 55.6189 426.712 54.3483 428.121Z" fill="#AE8400"/>
<path d="M138.396 191.22C136.666 189.628 133.627 191.075 130.152 198.594C126.677 206.113 124.947 212.491 128.131 213.065C131.315 213.639 140.891 193.502 138.396 191.22Z" fill="#FFFFBD"/>
<path d="M368.91 706.475C368.91 706.475 367.899 706.766 369.055 708.359C370.211 709.952 371.222 708.252 368.91 706.475Z" fill="#F2CE1E"/>
<path d="M48.3483 428.121C48.3483 428.121 47.047 428.496 47.644 430.02C47.7179 430.301 47.8658 430.558 48.0723 430.763C48.2788 430.968 48.5364 431.114 48.8183 431.186C49.1003 431.258 49.3963 431.253 49.6758 431.172C49.9552 431.09 50.2078 430.936 50.4074 430.724C50.9738 429.966 49.6189 426.712 48.3483 428.121Z" fill="#AE8400"/>
<path d="M441.882 451.437C444.584 448.207 444.95 444.062 442.7 442.179C440.45 440.295 436.435 441.387 433.733 444.617C431.031 447.848 430.665 451.993 432.915 453.876C435.165 455.76 439.18 454.668 441.882 451.437Z" fill="#130A00"/>
<path d="M450.716 428.335C450.716 428.335 449.521 420.74 449.736 415.748C449.95 410.755 454.941 403.703 456.028 401.644C457.115 399.584 456.678 405.977 456.464 410.97C456.25 415.962 452.017 424.537 450.716 428.335Z" fill="#F6F382"/>
<path d="M272.791 506.143C276.034 506.143 278.662 501.869 278.662 496.595C278.662 491.322 276.034 487.047 272.791 487.047C269.549 487.047 266.92 491.322 266.92 496.595C266.92 501.869 269.549 506.143 272.791 506.143Z" fill="#150A0E"/>
<path d="M180.284 303.79C179.018 303.469 177.742 303.213 176.456 303.024C175.193 302.795 173.915 302.626 172.629 302.511C170.128 302.239 167.605 302.239 165.104 302.511C160.198 302.994 155.659 305.046 152.964 308.637C151.611 310.482 150.604 312.557 149.994 314.762C149.666 315.851 149.443 316.969 149.328 318.101C149.218 319.281 149.177 320.468 149.206 321.653C149.259 324.118 149.481 326.577 149.872 329.012C150.224 331.477 150.721 333.943 151.272 336.408C153.569 346.262 156.86 355.971 160.382 365.626C163.903 375.281 167.891 384.822 171.626 394.538C165.886 385.843 160.812 376.726 156.447 367.265C154.235 362.533 152.214 357.709 150.438 352.771C148.639 347.83 147.141 342.785 145.952 337.664C144.676 332.432 144.014 327.069 143.978 321.684C144 320.283 144.105 318.884 144.291 317.496C144.495 316.054 144.849 314.637 145.348 313.269C146.271 310.522 147.736 307.989 149.657 305.819C151.615 303.649 154.071 301.988 156.814 300.98C159.454 300.068 162.236 299.64 165.028 299.717C167.709 299.802 170.371 300.203 172.958 300.911C175.497 301.602 177.954 302.567 180.284 303.79Z" fill="white"/>
<path d="M460.319 212.803C463.132 211.406 463.863 207.151 461.952 203.299C460.04 199.447 456.21 197.457 453.396 198.854C450.583 200.251 449.851 204.506 451.763 208.358C453.675 212.21 457.505 214.201 460.319 212.803Z" fill="#191814"/>
<path d="M392.686 195.232C395.273 195.232 397.37 192.123 397.37 188.287C397.37 184.452 395.273 181.343 392.686 181.343C390.098 181.343 388.001 184.452 388.001 188.287C388.001 192.123 390.098 195.232 392.686 195.232Z" fill="#230B00"/>
<path d="M412.251 175.914C414.678 175.914 416.645 173.168 416.645 169.781C416.645 166.394 414.678 163.648 412.251 163.648C409.825 163.648 407.857 166.394 407.857 169.781C407.857 173.168 409.825 175.914 412.251 175.914Z" fill="#110800"/>
<path d="M249.857 309.724C250.142 308.103 250.567 306.509 251.128 304.962C251.671 303.39 252.316 301.856 253.057 300.367C254.551 297.328 256.46 294.512 258.729 291.999C261.097 289.342 263.957 287.169 267.149 285.598C268.814 284.802 270.563 284.196 272.362 283.791C273.25 283.645 274.153 283.53 275.049 283.4L275.692 283.3H276.35L277.667 283.247C278.54 283.214 279.414 283.232 280.285 283.3L282.857 283.469L285.367 283.836C286.202 283.951 287.028 284.097 287.84 284.288C288.651 284.48 289.47 284.64 290.282 284.832C291.093 285.023 291.874 285.268 292.67 285.498C294.27 285.934 295.816 286.493 297.362 287.029C303.516 289.25 309.332 292.311 314.647 296.126C308.232 294.885 302.047 293.453 295.9 292.251C292.838 291.7 289.777 291.08 286.715 290.72C285.184 290.475 283.706 290.398 282.206 290.23C280.736 290.23 279.236 290.023 277.812 290.138H276.733H276.197L275.684 290.207C274.995 290.291 274.314 290.383 273.625 290.452C272.294 290.694 270.989 291.063 269.729 291.554C267.079 292.633 264.605 294.102 262.388 295.911C260.018 297.829 257.816 299.945 255.805 302.236C253.769 304.594 251.802 307.09 249.857 309.724Z" fill="#150A0E"/>
<path d="M166.108 239.979C165.141 239.492 164.043 239.328 162.976 239.51C161.908 239.691 160.927 240.21 160.176 240.989C157.282 243.738 158.438 247.069 160.466 247.069C162.495 247.069 165.526 245.622 166.391 244.32C167.256 243.018 167.692 241.28 166.108 239.979Z" fill="black"/>
<path d="M150.92 256.333C150.92 256.333 147.017 258.064 145.861 264.434C144.705 270.805 151.793 270.942 154.396 269.204C156.998 267.466 157.725 261.685 155.988 258.209C155.785 257.748 155.491 257.332 155.124 256.986C154.757 256.64 154.325 256.372 153.852 256.197C153.379 256.022 152.876 255.943 152.372 255.967C151.869 255.99 151.375 256.115 150.92 256.333Z" fill="black"/>
<path d="M145.272 285.131C146.392 285.131 147.3 284.222 147.3 283.102C147.3 281.981 146.392 281.073 145.272 281.073C144.151 281.073 143.243 281.981 143.243 283.102C143.243 284.222 144.151 285.131 145.272 285.131Z" fill="#4A3100"/>
<path d="M265.955 191.649C265.441 190.131 265.065 188.571 264.829 186.986C264.567 185.39 264.417 183.778 264.378 182.162C264.289 178.886 264.61 175.611 265.335 172.415C266.805 165.795 270.173 159.747 275.025 155.011C277.464 152.672 280.212 150.678 283.193 149.085C283.92 148.671 284.724 148.365 285.451 147.998L286.584 147.485C286.959 147.316 287.349 147.194 287.747 147.048L290.082 146.244C290.848 146.014 291.667 145.823 292.463 145.609C298.724 144.062 305.234 143.802 311.599 144.843C305.414 146.374 299.444 147.906 293.925 150.203C291.194 151.308 288.56 152.637 286.048 154.177C285.451 154.582 284.839 154.942 284.234 155.363C283.629 155.784 283.086 156.229 282.504 156.65C282.221 156.872 281.915 157.063 281.647 157.301L280.835 158.005C280.299 158.472 279.748 158.931 279.258 159.452C275.136 163.498 271.951 168.398 269.927 173.809C268.842 176.609 267.985 179.492 267.363 182.43C266.693 185.469 266.223 188.548 265.955 191.649Z" fill="#150A0E"/>
<path d="M345.625 265.009C348.261 264.214 350.823 263.19 353.28 261.946C355.636 260.74 357.907 259.374 360.077 257.857C361.126 257.053 362.228 256.326 363.238 255.438C363.751 255.016 364.302 254.634 364.769 254.174C365.236 253.715 365.772 253.286 366.3 252.85C366.828 252.413 367.318 251.946 367.831 251.479C368.344 251.012 368.849 250.553 369.362 250.093C370.38 249.144 371.368 248.156 372.531 247.245C372.309 247.934 372.041 248.6 371.766 249.266C371.499 249.94 371.198 250.599 370.862 251.242C370.51 251.862 370.135 252.482 369.753 253.095C369.385 253.721 368.973 254.319 368.52 254.886C367.649 256.053 366.684 257.147 365.634 258.156C365.119 258.678 364.574 259.171 364.004 259.634L362.266 260.981C359.851 262.681 357.164 263.957 354.321 264.756C351.493 265.593 348.496 265.68 345.625 265.009Z" fill="#FFF09B"/>
<path d="M322.477 311.026C327.536 308.377 332.573 305.781 337.572 303.124C342.57 300.467 347.523 297.764 352.345 294.862C354.779 293.453 357.16 291.953 359.518 290.429C361.875 288.905 364.172 287.29 366.46 285.667C368.749 284.043 370.931 282.275 373.036 280.406C375.167 278.549 377.169 276.548 379.029 274.419C377.658 276.948 376.002 279.311 374.092 281.463C372.203 283.635 370.156 285.665 367.968 287.535C365.802 289.434 363.498 291.164 361.163 292.833C358.829 294.502 356.379 296.018 353.922 297.496C351.465 298.974 348.939 300.329 346.39 301.623C343.841 302.917 341.261 304.158 338.628 305.268C333.395 307.587 327.996 309.512 322.477 311.026Z" fill="#FFF09B"/>
<path d="M203.278 312.182C205.826 313.881 208.491 315.396 211.254 316.715C213.981 318.062 216.773 319.27 219.621 320.337C225.278 322.501 231.102 324.199 237.035 325.413C242.956 326.591 248.951 327.359 254.978 327.71C261.009 328.1 267.058 328.1 273.089 327.71C274.62 327.595 276.112 327.572 277.62 327.381L282.144 326.914C283.675 326.745 285.145 326.477 286.645 326.271C288.146 326.064 289.654 325.834 291.139 325.505L295.594 324.647C297.125 324.356 298.564 323.973 300.049 323.637C303.026 322.993 305.95 322.159 308.897 321.34C309.663 321.133 310.375 320.957 311.102 320.727L313.284 320.038L317.654 318.667C320.556 317.695 323.411 316.608 326.296 315.605L334.847 312.228C337.648 310.988 340.455 309.763 343.267 308.553C340.567 310.008 337.855 311.45 335.13 312.879L326.809 316.868C323.969 318.055 321.145 319.303 318.282 320.436L313.965 322.082L311.799 322.894C311.079 323.162 310.337 323.384 309.609 323.66C297.893 327.706 285.736 330.336 273.395 331.492C260.959 332.726 248.404 331.796 236.285 328.744C230.235 327.243 224.355 325.121 218.741 322.411C215.943 321.051 213.233 319.516 210.627 317.817C208.009 316.17 205.549 314.283 203.278 312.182Z" fill="#FFF09B"/>
<path d="M426.053 208.004C431.597 207.58 437.171 207.778 442.671 208.593C448.195 209.422 453.595 210.935 458.746 213.096C461.328 214.182 463.819 215.475 466.194 216.962C468.578 218.436 470.843 220.095 472.968 221.924C475.096 223.759 477.08 225.756 478.901 227.896C482.512 232.193 485.548 236.942 487.933 242.023C489.094 244.574 490.086 247.198 490.903 249.879C492.51 255.24 493.466 260.774 493.751 266.364C494.401 277.52 492.901 288.63 490.566 299.449C491.332 293.966 492.227 288.492 492.526 282.971C492.988 277.471 493.006 271.943 492.579 266.44C492.171 260.964 491.163 255.548 489.571 250.292C488.752 247.677 487.76 245.119 486.601 242.635C484.202 237.717 481.243 233.092 477.783 228.853C476.026 226.758 474.112 224.8 472.057 222.996C467.912 219.41 463.272 216.442 458.279 214.183C453.259 211.928 447.981 210.297 442.564 209.328C437.121 208.319 431.587 207.875 426.053 208.004Z" fill="black"/>
<path d="M461.922 248.516C461.922 248.516 460.476 249.381 462.068 257.635C463.66 265.889 466.844 267.329 468 265.154C469.156 262.98 468.436 245.331 461.922 248.516Z" fill="#FFFFC5"/>
<path d="M183.606 210.316C186.03 206.319 189.036 202.707 192.524 199.597C194.302 197.982 196.296 196.624 198.449 195.561C199.568 195.011 200.758 194.617 201.985 194.39C202.299 194.336 202.621 194.306 202.942 194.26C203.264 194.214 203.585 194.26 203.914 194.214C204.542 194.214 205.154 194.306 205.774 194.352C208.158 194.746 210.477 195.468 212.664 196.496C214.796 197.486 216.844 198.648 218.787 199.972C222.683 202.54 226.244 205.583 229.389 209.03C225.691 206.306 221.842 203.793 217.861 201.503C215.902 200.375 213.875 199.37 211.791 198.494C209.773 197.603 207.647 196.977 205.468 196.633C204.94 196.595 204.404 196.526 203.884 196.496C203.639 196.496 203.386 196.496 203.118 196.496L202.353 196.58C201.298 196.768 200.269 197.084 199.291 197.522C197.268 198.439 195.362 199.593 193.611 200.959C190.026 203.8 186.68 206.929 183.606 210.316Z" fill="white"/>
<path d="M200.102 193.387C197.959 194.495 195.936 195.819 194.062 197.338C193.146 198.085 192.28 198.891 191.467 199.75C190.625 200.6 189.891 201.557 189.033 202.506C189.322 201.257 189.841 200.073 190.564 199.015C191.262 197.931 192.128 196.964 193.128 196.151C194.12 195.333 195.23 194.669 196.42 194.184C197.583 193.678 198.834 193.407 200.102 193.387Z" fill="#150A0E"/>
<path d="M179.052 218.984C179.594 217.691 180.216 216.433 180.912 215.217C181.585 213.984 182.336 212.805 183.116 211.641C184.7 209.297 186.48 207.091 188.436 205.048C189.437 204.004 190.5 203.022 191.621 202.108C192.766 201.148 193.987 200.283 195.272 199.52C196.646 198.706 198.114 198.061 199.643 197.598C200.046 197.47 200.458 197.37 200.875 197.3L201.511 197.185L202.177 197.116L202.835 197.055H204.58C206.103 197.12 207.618 197.305 209.112 197.606C210.561 197.91 211.988 198.312 213.383 198.808C216.106 199.778 218.719 201.036 221.175 202.56C223.596 204.039 225.87 205.747 227.965 207.659C229.008 208.608 230 209.613 230.935 210.668C231.402 211.197 231.838 211.748 232.29 212.284C232.742 212.82 233.124 213.417 233.515 213.999C228.828 211.3 223.97 208.911 218.971 206.848C214.118 204.903 209.119 203.356 204.373 203.18H203.493H203.049H202.689H202.33L201.955 203.249C201.696 203.283 201.44 203.334 201.189 203.402C200.088 203.686 199.021 204.086 198.005 204.597C195.746 205.748 193.594 207.099 191.575 208.632C187.38 211.794 183.323 215.393 179.052 218.984Z" fill="#150A0E"/>
<path d="M246.535 192.522C244.132 192.821 239.37 195.585 239.592 199.245C239.814 202.905 242.654 202.935 245.234 201.205C247.814 199.474 250.883 191.971 246.535 192.522Z" fill="#1A0600"/>
<path d="M239.37 238.531C239.37 238.531 235.466 237.881 234.816 243.309C234.165 248.738 236.768 249.603 239.592 247.903C242.417 246.204 242.195 238.126 239.37 238.531Z" fill="#1A0600"/>
<path d="M152.214 266.31C153.411 266.31 154.38 264.853 154.38 263.056C154.38 261.259 153.411 259.802 152.214 259.802C151.018 259.802 150.048 261.259 150.048 263.056C150.048 264.853 151.018 266.31 152.214 266.31Z" fill="#FEFFFF"/>
<path d="M163.437 242.733C164.116 242.054 164.276 241.114 163.795 240.632C163.313 240.151 162.373 240.311 161.694 240.989C161.016 241.668 160.856 242.609 161.337 243.09C161.819 243.572 162.759 243.412 163.437 242.733Z" fill="#FEFFFF"/>
<path d="M238.651 245.476C239.569 245.476 240.312 244.376 240.312 243.018C240.312 241.661 239.569 240.56 238.651 240.56C237.734 240.56 236.99 241.661 236.99 243.018C236.99 244.376 237.734 245.476 238.651 245.476Z" fill="#E0D590"/>
<path d="M243.496 195.125C243.496 195.125 241.758 197.009 242.34 197.874C242.922 198.739 245.402 195.577 245.402 194.98C245.402 194.382 244.361 193.823 243.496 195.125Z" fill="#FEFFFF"/>
<path d="M234.019 311.568C236.317 308.826 236.367 305.084 234.131 303.21C231.896 301.335 228.221 302.038 225.924 304.78C223.626 307.522 223.576 311.264 225.811 313.138C228.047 315.013 231.722 314.309 234.019 311.568Z" fill="#3F1E00"/>
<path d="M230.896 309.68C231.822 308.574 231.842 307.066 230.941 306.311C230.041 305.556 228.56 305.84 227.634 306.945C226.708 308.05 226.687 309.558 227.588 310.313C228.489 311.068 229.969 310.785 230.896 309.68Z" fill="#98816F"/>
<path d="M249.857 309.724C249.741 307.935 249.811 306.139 250.064 304.364C250.297 302.579 250.671 300.815 251.181 299.089C252.205 295.531 253.845 292.18 256.027 289.189C258.356 286.111 261.405 283.653 264.906 282.029C266.658 281.208 268.486 280.56 270.364 280.092C272.251 279.583 274.204 279.359 276.158 279.426C279.809 279.733 283.409 280.489 286.875 281.677C290.221 282.792 293.494 284.116 296.673 285.643C302.942 288.65 308.962 292.15 314.677 296.11C311.615 294.579 308.43 293.185 305.238 291.884C302.046 290.582 298.854 289.365 295.609 288.316C292.396 287.251 289.125 286.375 285.811 285.689C282.623 285.008 279.363 284.72 276.105 284.832C274.605 284.837 273.109 284.975 271.634 285.245C270.169 285.637 268.76 286.213 267.44 286.96C264.833 288.568 262.488 290.566 260.489 292.887C258.317 295.287 256.386 297.895 254.725 300.674C252.949 303.605 251.324 306.626 249.857 309.724Z" fill="white"/>
<path d="M251.304 298.614C251.613 292.662 254.243 287.068 258.629 283.033C260.884 280.987 263.633 279.565 266.605 278.906C269.498 278.283 272.505 278.442 275.316 279.365C272.569 279.631 269.867 280.241 267.271 281.18C264.834 282.141 262.589 283.531 260.642 285.284C258.669 287.078 256.928 289.113 255.46 291.34C253.921 293.674 252.533 296.103 251.304 298.614Z" fill="#150A0E"/>
<path d="M240.243 175.968C241.562 175.968 242.631 174.96 242.631 173.717C242.631 172.474 241.562 171.466 240.243 171.466C238.924 171.466 237.854 172.474 237.854 173.717C237.854 174.96 238.924 175.968 240.243 175.968Z" fill="#F5E14C"/>
<path d="M232.106 187.093C234.385 187.093 236.232 185.246 236.232 182.966C236.232 180.687 234.385 178.839 232.106 178.839C229.828 178.839 227.98 180.687 227.98 182.966C227.98 185.246 229.828 187.093 232.106 187.093Z" fill="#E0BF0E"/>
<path d="M257.979 228.769C262.803 228.769 266.713 224.858 266.713 220.033C266.713 215.208 262.803 211.296 257.979 211.296C253.155 211.296 249.245 215.208 249.245 220.033C249.245 224.858 253.155 228.769 257.979 228.769Z" fill="#E7BA23"/>
<path d="M393.428 191.542C395.166 191.542 396.574 189.454 396.574 186.879C396.574 184.304 395.166 182.216 393.428 182.216C391.691 182.216 390.282 184.304 390.282 186.879C390.282 189.454 391.691 191.542 393.428 191.542Z" fill="#EBDEB4"/>
<path d="M410.896 171.573C412.333 171.573 413.498 170.164 413.498 168.426C413.498 166.688 412.333 165.279 410.896 165.279C409.458 165.279 408.293 166.688 408.293 168.426C408.293 170.164 409.458 171.573 410.896 171.573Z" fill="#FFF2AC"/>
<path d="M405.691 183.946C406.469 183.946 407.099 183.315 407.099 182.537C407.099 181.759 406.469 181.128 405.691 181.128C404.913 181.128 404.282 181.759 404.282 182.537C404.282 183.315 404.913 183.946 405.691 183.946Z" fill="#C9AA11"/>
<path d="M459.372 210.226C461.277 209.28 461.881 206.619 460.721 204.282C459.561 201.945 457.077 200.817 455.172 201.763C453.268 202.709 452.664 205.37 453.824 207.707C454.983 210.044 457.468 211.172 459.372 210.226Z" fill="#C2BBA9"/>
<path d="M491.576 399.867C493.094 399.867 494.324 398.637 494.324 397.119C494.324 395.601 493.094 394.37 491.576 394.37C490.058 394.37 488.828 395.601 488.828 397.119C488.828 398.637 490.058 399.867 491.576 399.867Z" fill="#8F6200"/>
<path d="M509.373 360.511C512.091 360.511 514.295 358.307 514.295 355.588C514.295 352.869 512.091 350.665 509.373 350.665C506.655 350.665 504.451 352.869 504.451 355.588C504.451 358.307 506.655 360.511 509.373 360.511Z" fill="#A7730E"/>
<path d="M401.167 475.256C401.167 477.415 400.241 479.965 397.263 479.927C394.485 479.927 393.359 477.415 393.359 475.256C393.359 474.22 393.771 473.227 394.503 472.495C395.235 471.763 396.228 471.351 397.263 471.351C398.299 471.351 399.292 471.763 400.024 472.495C400.756 473.227 401.167 474.22 401.167 475.256Z" fill="#2D1E01"/>
<path d="M397.256 476.604C397.839 476.604 398.312 476.13 398.312 475.547C398.312 474.963 397.839 474.49 397.256 474.49C396.672 474.49 396.199 474.963 396.199 475.547C396.199 476.13 396.672 476.604 397.256 476.604Z" fill="#563D38"/>
<path d="M286.025 135.219C286.282 134.954 286.593 134.747 286.936 134.614C287.273 134.445 287.61 134.292 287.954 134.147C288.628 133.856 289.325 133.58 290.013 133.32C291.407 132.814 292.823 132.363 294.246 131.934C297.086 131.092 299.972 130.402 302.881 129.79C308.706 128.61 314.603 127.814 320.533 127.409C326.471 126.985 332.429 126.913 338.376 127.194C350.294 127.753 362.109 129.68 373.587 132.937C379.307 134.565 384.93 136.518 390.427 138.787C401.412 143.284 411.818 149.084 421.421 156.06C411.117 150.423 400.397 145.58 389.356 141.574C383.844 139.644 378.279 137.86 372.623 136.436C366.966 135.012 361.278 133.741 355.522 132.83C349.766 131.919 343.979 131.199 338.169 130.801C332.359 130.402 326.511 130.28 320.67 130.38C314.83 130.479 308.989 130.908 303.18 131.635C300.271 131.972 297.377 132.401 294.491 132.96C293.045 133.228 291.613 133.526 290.182 133.871C289.47 134.039 288.75 134.216 288.046 134.415L286.998 134.744C286.644 134.833 286.313 134.994 286.025 135.219Z" fill="#FFF09B"/>
<path d="M476.099 317.534C475.265 329.823 474.247 342.089 473.519 354.34C473.359 357.403 473.198 360.465 473.114 363.528C473.053 365.06 473.053 366.591 473.06 368.076C473.068 369.562 473.183 371.024 473.343 372.571C473.918 378.696 474.384 384.898 474.407 391.116C474.397 397.346 473.911 403.566 472.953 409.722C471.942 415.873 470.361 421.917 468.23 427.776C466.13 433.65 463.301 439.237 459.81 444.407C458.023 446.952 456.037 449.351 453.87 451.581C451.725 453.819 449.284 455.751 446.613 457.324C447.868 456.439 449.043 455.448 450.127 454.361L450.946 453.595L451.711 452.76C452.247 452.217 452.729 451.627 453.242 451.045C455.194 448.707 456.97 446.227 458.555 443.626C461.648 438.394 464.143 432.831 465.995 427.041C469.673 415.439 471.481 403.325 471.353 391.154C471.353 385.028 470.948 378.987 470.473 372.847C470.343 371.315 470.289 369.707 470.289 368.13C470.289 366.553 470.35 365.006 470.442 363.459C470.588 360.358 470.863 357.28 471.154 354.21C472.333 341.875 474.009 329.678 476.099 317.534Z" fill="white"/>
<path d="M397.982 234.19C401.514 230.905 405.522 228.174 409.87 226.089C414.247 223.951 418.942 222.54 423.771 221.908C428.644 221.289 433.59 221.572 438.361 222.743C440.742 223.331 443.068 224.125 445.311 225.117L448.618 226.648C449.705 227.176 450.777 227.758 451.856 228.317C456.199 230.629 460.099 233.69 463.376 237.36C466.489 241.152 468.921 245.455 470.564 250.078C472.207 254.606 473.546 259.238 474.575 263.944C475.647 268.622 476.565 273.316 477.4 278.033C476.068 273.439 474.858 268.806 473.48 264.25C472.197 259.673 470.664 255.169 468.888 250.759C467.166 246.409 464.746 242.37 461.723 238.799C458.577 235.357 454.858 232.486 450.731 230.316C449.69 229.772 448.664 229.205 447.608 228.677L444.4 227.192C442.272 226.247 440.071 225.479 437.817 224.895C435.562 224.289 433.256 223.889 430.928 223.7C428.6 223.513 426.26 223.513 423.932 223.7C419.241 224.151 414.645 225.307 410.299 227.13C405.902 228.934 401.761 231.308 397.982 234.19Z" fill="white"/>
<path d="M512.887 229.91C465.428 137.615 375.042 114.775 375.042 114.775C244.652 81.8506 170.609 173.732 170.609 173.732C78.4004 266.027 116.59 382.992 116.59 382.992C136.614 459.751 226.955 510.469 226.955 510.469C343.841 570.322 459.335 475.286 459.335 475.286C577.615 376.124 512.887 229.91 512.887 229.91ZM449.629 469.896C449.629 469.896 342.004 560.192 233.078 503.326C233.078 503.326 148.877 455.141 130.23 382.218C130.23 382.218 94.6436 271.088 180.567 183.402C180.567 183.402 249.574 96.1535 371.084 127.408C371.084 127.408 455.286 149.108 499.537 236.793C499.537 236.793 559.856 375.702 449.629 469.896Z" fill="black"/>
<path d="M242.846 322.748C239.844 323.673 236.737 324.213 233.599 324.356C230.453 324.533 227.297 324.377 224.184 323.889C221.038 323.416 217.971 322.517 215.067 321.217C213.621 320.543 212.237 319.741 210.934 318.82C209.65 317.889 208.488 316.801 207.474 315.582C208.89 316.286 210.252 316.952 211.661 317.503C213.069 318.055 214.493 318.529 215.917 318.966C218.791 319.782 221.713 320.419 224.666 320.872C227.621 321.339 230.621 321.676 233.645 321.96C236.669 322.243 239.715 322.465 242.846 322.748Z" fill="#FFF09B"/>
<path d="M154.098 325.566C153.965 322.35 154.446 319.138 155.514 316.102C156.034 314.55 156.719 313.059 157.558 311.654C158.416 310.235 159.444 308.926 160.62 307.756C161.833 306.589 163.223 305.62 164.738 304.885C166.254 304.18 167.866 303.706 169.522 303.476C172.754 303.107 176.027 303.541 179.052 304.739C175.982 304.459 172.887 304.629 169.866 305.245C168.436 305.608 167.053 306.14 165.748 306.83C164.466 307.536 163.282 308.409 162.227 309.425C161.151 310.446 160.195 311.586 159.379 312.825C158.535 314.081 157.793 315.402 157.16 316.776C155.866 319.604 154.841 322.547 154.098 325.566Z" fill="white"/>
<path d="M272.791 502.024C274.71 502.024 276.266 499.35 276.266 496.052C276.266 492.753 274.71 490.08 272.791 490.08C270.871 490.08 269.315 492.753 269.315 496.052C269.315 499.35 270.871 502.024 272.791 502.024Z" fill="#E2DCE8"/>
<path d="M438.239 446.673C438.239 446.673 434.335 449.391 434.411 450.8C434.488 452.209 437.665 451.666 440.596 448.955C443.528 446.245 443.658 441.03 438.239 446.673Z" fill="#97923E"/>
<path d="M457.107 398.275C457.107 398.275 452.224 408.366 451.03 410.862C449.835 413.359 448.32 418.573 448.534 422.256C448.534 422.256 451.466 412.493 454.176 408.259C456.885 404.025 457.107 398.275 457.107 398.275Z" fill="#7A5E00"/>
<path d="M121.55 311.891C121.453 306.341 121.655 300.789 122.155 295.26C122.624 289.732 123.305 284.222 124.198 278.729C125.975 267.742 128.627 256.914 132.129 246.349C135.623 235.758 140.073 225.506 145.425 215.722L146.435 213.892L147.507 212.093L149.65 208.509L151.947 204.995C152.329 204.413 152.712 203.823 153.095 203.249L154.304 201.534L156.731 198.127L159.287 194.811L160.566 193.157L161.913 191.549L164.607 188.341L164.523 188.456C169.836 181.029 176.097 174.567 182.734 168.464C184.41 166.971 186.079 165.455 187.824 164.031C188.689 163.319 189.539 162.584 190.419 161.879L193.075 159.797C196.635 157.04 200.332 154.437 204.083 151.987C219.189 142.188 235.608 134.583 252.85 129.399C270.096 124.341 287.918 121.511 305.882 120.977C308.125 120.916 310.36 120.793 312.603 120.778L319.324 120.877L322.684 120.931C323.802 120.931 324.919 121.053 326.037 121.115L332.742 121.521C334.977 121.612 337.197 121.926 339.425 122.141L346.1 122.845C350.532 123.442 354.941 124.177 359.365 124.844C354.926 124.315 350.493 123.741 346.054 123.251L339.371 122.707C337.144 122.547 334.924 122.286 332.696 122.248L325.999 122.003C324.889 122.003 323.771 121.903 322.661 121.896H319.308L312.618 121.934C310.391 121.98 308.163 122.133 305.943 122.225C301.481 122.355 297.049 122.86 292.616 123.266L290.948 123.427L289.294 123.657L285.988 124.124L282.681 124.591L281.05 124.805L279.412 125.112L272.822 126.337C271.727 126.52 270.648 126.804 269.561 127.049L266.315 127.814L263.062 128.58L259.847 129.468C257.711 130.081 255.553 130.624 253.432 131.291C236.389 136.51 220.173 144.123 205.269 153.901C201.572 156.359 197.944 158.924 194.438 161.65L191.804 163.694C190.932 164.383 190.09 165.103 189.233 165.807C187.503 167.201 185.857 168.686 184.188 170.156C180.904 173.143 177.705 176.228 174.681 179.475C171.659 182.688 168.847 186.092 166.261 189.666L166.215 189.727L166.177 189.773L163.505 192.92L162.158 194.482L160.872 196.09L158.338 199.352L155.927 202.705L154.725 204.39C154.335 204.956 153.96 205.538 153.585 206.113L151.288 209.566L149.153 213.103L148.081 214.872L147.094 216.687C141.659 226.304 137.106 236.393 133.491 246.831C129.898 257.293 127.083 268.006 125.071 278.883C124.05 284.324 123.242 289.801 122.645 295.314C122.055 300.819 121.604 306.347 121.55 311.891Z" fill="white"/>
<path d="M504.957 194.482C506.802 197.032 508.532 199.65 510.216 202.292C511.9 204.933 513.538 207.606 515.161 210.286C516.784 212.965 518.353 215.645 519.899 218.394C521.445 221.143 522.961 223.846 524.492 226.602C522.48 224.185 520.609 221.654 518.889 219.022C517.136 216.419 515.482 213.754 513.859 211.067C512.237 208.379 510.69 205.653 509.159 202.904C507.629 200.156 506.258 197.346 504.957 194.482Z" fill="#FFF09B"/>
<path d="M410.574 123.067C413.521 124.254 416.399 125.609 419.232 127.034C422.064 128.458 424.865 129.966 427.652 131.536C430.438 133.105 433.117 134.775 435.75 136.566C437.067 137.462 438.361 138.389 439.616 139.376C440.887 140.345 442.071 141.423 443.152 142.6C440.581 140.724 437.794 139.185 435.115 137.577L426.894 132.86C424.161 131.275 421.413 129.706 418.696 128.075C415.978 126.444 413.23 124.805 410.574 123.067Z" fill="#FFF09B"/>
<path d="M453.173 115.763C451.459 115.311 442.105 112.7 435.958 113.879C434.58 114.14 431.365 116.176 442.977 120.678C454.59 125.181 462.282 118.144 453.173 115.763Z" fill="#070400"/>
<path d="M505.462 267.221C505.462 267.221 501.703 266.279 499.82 270.835C497.937 275.391 499.82 280.169 503.364 278.798C506.908 277.428 510.82 269.204 505.462 267.221Z" fill="black"/>
<path d="M351.473 89.1321C362.32 90.3649 371 90.9468 392.12 94.9972C402.414 97.1204 412.554 99.9342 422.47 103.42C385.376 86.0388 355.875 83.8949 355.875 83.8949C348.445 83.1905 341.221 82.7566 334.204 82.5933C328.18 83.4279 325.424 84.7908 324.123 85.656C322.118 86.8887 340.634 87.9071 351.473 89.1321Z" fill="#FFFEE5"/>
<path d="M191.782 135.441C191.782 135.441 187.587 140.433 187.732 143.756C187.878 147.079 192.325 144.843 196.918 140.142C201.511 135.441 199.015 132.761 197.637 132.401C196.26 132.041 192.723 133.993 191.782 135.441Z" fill="black"/>
<path d="M138.551 172.844C138.551 172.844 138.405 176.098 140.786 177.109C143.166 178.12 150.408 170.218 151.418 168.212C152.428 166.206 150.193 163.87 145.999 165.317C141.804 166.765 138.834 170.746 138.551 172.844Z" fill="black"/>
<path d="M170.058 143.036C170.058 143.036 165.94 147.737 165.067 150.272C164.194 152.806 164.301 155.042 167.746 153.962C171.191 152.883 176.786 145.708 178.164 143.687C179.542 141.666 178.524 139.2 178.524 139.2C178.524 139.2 176.786 143.794 174.038 146.29C171.29 148.786 168.251 150.992 169.047 148.457C169.843 145.923 172.109 142.416 170.058 143.036Z" fill="black"/>
<path d="M296.359 88.9181C296.359 88.9181 293.466 90.2963 292.601 92.5321C291.736 94.7679 294.185 96.2227 297.592 95.5948C297.592 95.5948 303.807 93.4968 300.118 89.8063C300.125 89.7833 299.115 88.2673 296.359 88.9181Z" fill="black"/>
<path d="M264.324 94.1784C265.189 97.869 271.489 97.4325 273.655 96.7817C275.822 96.1309 278.646 93.719 275.186 92.4403C271.726 91.1616 269.545 90.7022 270.195 88.7498C270.38 88.3264 270.639 87.9399 270.961 87.6089C269.307 87.9305 267.662 88.2597 266.047 88.6043C264.975 90.1433 263.865 92.2336 264.324 94.1784Z" fill="black"/>
<path d="M210.872 118.151C211.832 118.151 212.61 117.373 212.61 116.413C212.61 115.453 211.832 114.675 210.872 114.675C209.913 114.675 209.135 115.453 209.135 116.413C209.135 117.373 209.913 118.151 210.872 118.151Z" fill="#BF9E19"/>
<path d="M244.124 103.642C243.441 105.216 242.564 106.697 241.513 108.052C240.449 109.469 239.155 110.699 237.686 111.689C236.112 112.773 234.238 113.335 232.328 113.297C232.09 113.297 231.846 113.297 231.608 113.228C231.35 113.2 231.094 113.151 230.843 113.083C230.291 112.947 229.771 112.705 229.312 112.371C228.43 111.697 227.812 110.735 227.567 109.653C227.183 107.809 227.307 105.895 227.926 104.117C228.455 102.416 229.262 100.814 230.315 99.3773C231.352 97.8896 232.744 96.6843 234.364 95.8705C235.207 95.4585 236.136 95.2538 237.074 95.2732C237.991 95.312 238.884 95.5749 239.676 96.0389L239.347 96.728C238.651 96.4839 237.907 96.4032 237.175 96.4921C236.442 96.5811 235.74 96.8373 235.122 97.241C234.486 97.645 233.905 98.1288 233.392 98.6805C232.881 99.2574 232.418 99.8744 232.006 100.526C231.187 101.843 230.564 103.272 230.154 104.768C229.726 106.161 229.645 107.638 229.917 109.071C230.044 109.62 230.344 110.114 230.774 110.48C230.987 110.641 231.232 110.756 231.493 110.816C231.648 110.865 231.807 110.901 231.968 110.924C232.136 110.924 232.305 110.924 232.481 110.977C233.925 111.038 235.355 110.67 236.591 109.921C239.24 108.389 241.483 105.909 243.419 103.305L244.124 103.642Z" fill="black"/>
<path d="M297.599 94.1248C298.318 94.1248 298.9 93.542 298.9 92.8231C298.9 92.1043 298.318 91.5215 297.599 91.5215C296.88 91.5215 296.298 92.1043 296.298 92.8231C296.298 93.542 296.88 94.1248 297.599 94.1248Z" fill="#FFFFBD"/>
<path d="M512.841 187.239C513.961 187.239 514.87 186.33 514.87 185.21C514.87 184.089 513.961 183.181 512.841 183.181C511.721 183.181 510.812 184.089 510.812 185.21C510.812 186.33 511.721 187.239 512.841 187.239Z" fill="#DEBE13"/>
<path d="M318.137 89.0636C317.035 89.7221 315.841 91.7434 318.068 94.2013C320.296 96.6591 347.431 99.4844 357.918 100.419C368.405 101.353 409.342 110.48 424.315 117.424C424.315 117.424 398.565 102.593 375.708 98.2823C352.851 93.9716 341.935 94.1553 339.692 93.7955C337.45 93.4356 324.934 92.3483 322.852 91.843C320.77 91.3376 320.617 87.5705 318.137 89.0636Z" fill="#070400"/>
<path d="M328.624 82.2642C328.624 82.2642 321.39 84.5076 321.612 85.5872C321.834 86.6668 324.789 85.3039 328.502 84.6531C332.214 84.0022 337.886 82.6929 337.886 82.6929L328.624 82.2642Z" fill="#070400"/>
<path d="M533.164 257.773C534.162 257.773 534.97 256.964 534.97 255.966C534.97 254.968 534.162 254.159 533.164 254.159C532.166 254.159 531.357 254.968 531.357 255.966C531.357 256.964 532.166 257.773 533.164 257.773Z" fill="#B79404"/>
<path d="M504.016 270.514C504.016 270.514 501.635 272.045 502.645 273.186C503.656 274.327 505.753 271.961 506.258 271.233C506.764 270.506 505.608 269.135 504.016 270.514Z" fill="#FFFFC5"/>
<path d="M541.63 305.168C542.75 305.168 543.659 304.26 543.659 303.139C543.659 302.019 542.75 301.11 541.63 301.11C540.51 301.11 539.602 302.019 539.602 303.139C539.602 304.26 540.51 305.168 541.63 305.168Z" fill="#070C00"/>
<path d="M162.127 435.533C163.725 435.533 165.02 434.237 165.02 432.638C165.02 431.04 163.725 429.744 162.127 429.744C160.529 429.744 159.233 431.04 159.233 432.638C159.233 434.237 160.529 435.533 162.127 435.533Z" fill="#4B2B00"/>
<path d="M160.068 407.325C161.205 407.325 162.127 405.899 162.127 404.14C162.127 402.381 161.205 400.955 160.068 400.955C158.931 400.955 158.009 402.381 158.009 404.14C158.009 405.899 158.931 407.325 160.068 407.325Z" fill="#4B2B00"/>
<path d="M162.311 434.017C163.008 434.017 163.574 433.451 163.574 432.753C163.574 432.055 163.008 431.49 162.311 431.49C161.613 431.49 161.048 432.055 161.048 432.753C161.048 433.451 161.613 434.017 162.311 434.017Z" fill="#A58650"/>
<path d="M151.28 393.497C152.198 393.497 152.941 392.753 152.941 391.835C152.941 390.918 152.198 390.174 151.28 390.174C150.363 390.174 149.619 390.918 149.619 391.835C149.619 392.753 150.363 393.497 151.28 393.497Z" fill="#4B2B00"/>
<path d="M143.465 168.449C143.465 168.449 140.786 170.692 141.222 172.721C141.658 174.75 145.202 171.42 146.94 169.972C148.678 168.525 150.155 163.288 143.465 168.449Z" fill="#FFFFBD"/>
<path d="M170.372 145.854C170.372 145.854 166.973 149.184 167.264 150.631C167.555 152.079 171.091 149.33 172.033 147.806C172.974 146.282 171.818 144.912 170.372 145.854Z" fill="#FFFFBD"/>
<path d="M193.878 136.597C193.878 136.597 189.898 140.065 190.985 141.88C192.072 143.695 196.267 137.462 196.558 136.888C196.848 136.314 196.986 133.917 193.878 136.597Z" fill="#FFFFBD"/>
<path d="M233.515 98.1748C233.515 98.1748 230.835 102.003 231.563 105.556C232.29 109.109 235.321 106.061 237.059 104.109C238.796 102.156 238.796 96.2989 236.186 96.8042C233.576 97.3096 233.515 98.1748 233.515 98.1748Z" fill="#FFFFBD"/>
<path d="M272.14 93.9789C273.819 93.9789 275.179 92.57 275.179 90.832C275.179 89.094 273.819 87.6851 272.14 87.6851C270.462 87.6851 269.102 89.094 269.102 90.832C269.102 92.57 270.462 93.9789 272.14 93.9789Z" fill="#FFFFBD"/>
<path d="M362.373 280.108C364.039 280.108 365.389 278.757 365.389 277.091C365.389 275.425 364.039 274.074 362.373 274.074C360.708 274.074 359.357 275.425 359.357 277.091C359.357 278.757 360.708 280.108 362.373 280.108Z" fill="#4A3100"/>
<path d="M339.96 279.028C340.793 279.028 341.468 278.353 341.468 277.52C341.468 276.687 340.793 276.011 339.96 276.011C339.127 276.011 338.452 276.687 338.452 277.52C338.452 278.353 339.127 279.028 339.96 279.028Z" fill="#4A3100"/>
<path d="M335.207 293.584C335.841 293.584 336.355 293.069 336.355 292.435C336.355 291.801 335.841 291.287 335.207 291.287C334.573 291.287 334.059 291.801 334.059 292.435C334.059 293.069 334.573 293.584 335.207 293.584Z" fill="#4A3100"/>
<path d="M261.071 255.238C261.908 255.238 262.587 254.56 262.587 253.722C262.587 252.885 261.908 252.206 261.071 252.206C260.234 252.206 259.556 252.885 259.556 253.722C259.556 254.56 260.234 255.238 261.071 255.238Z" fill="#937700"/>
<path d="M247.614 275.644C248.692 275.644 249.566 274.77 249.566 273.691C249.566 272.613 248.692 271.739 247.614 271.739C246.536 271.739 245.662 272.613 245.662 273.691C245.662 274.77 246.536 275.644 247.614 275.644Z" fill="#D2AF2D"/>
<path d="M272.064 319.563C274.702 319.563 276.84 317.424 276.84 314.785C276.84 312.146 274.702 310.007 272.064 310.007C269.426 310.007 267.287 312.146 267.287 314.785C267.287 317.424 269.426 319.563 272.064 319.563Z" fill="#D9BA0A"/>
<path d="M276.656 232.513C277.895 232.513 278.899 231.509 278.899 230.27C278.899 229.031 277.895 228.026 276.656 228.026C275.417 228.026 274.413 229.031 274.413 230.27C274.413 231.509 275.417 232.513 276.656 232.513Z" fill="#FFF36B"/>
<path d="M337.664 504.918C338.463 504.918 339.11 504.27 339.11 503.471C339.11 502.672 338.463 502.024 337.664 502.024C336.865 502.024 336.217 502.672 336.217 503.471C336.217 504.27 336.865 504.918 337.664 504.918Z" fill="#563D00"/>
<path d="M346.053 504.191C346.772 504.191 347.355 503.187 347.355 501.948C347.355 500.709 346.772 499.704 346.053 499.704C345.335 499.704 344.752 500.709 344.752 501.948C344.752 503.187 345.335 504.191 346.053 504.191Z" fill="#563D00"/>
<path d="M363.414 508.104C364.374 508.104 365.152 507.325 365.152 506.366C365.152 505.406 364.374 504.627 363.414 504.627C362.455 504.627 361.677 505.406 361.677 506.366C361.677 507.325 362.455 508.104 363.414 508.104Z" fill="#563D00"/>
<path d="M382.367 488.854C383.644 488.854 384.679 487.819 384.679 486.542C384.679 485.265 383.644 484.23 382.367 484.23C381.091 484.23 380.056 485.265 380.056 486.542C380.056 487.819 381.091 488.854 382.367 488.854Z" fill="#563D00"/>
<path d="M297.308 506.365C298.386 506.365 299.26 505.491 299.26 504.413C299.26 503.335 298.386 502.46 297.308 502.46C296.23 502.46 295.356 503.335 295.356 504.413C295.356 505.491 296.23 506.365 297.308 506.365Z" fill="#563D00"/>
<path d="M302.912 500.646C303.571 500.646 304.106 499.611 304.106 498.334C304.106 497.057 303.571 496.021 302.912 496.021C302.252 496.021 301.718 497.057 301.718 498.334C301.718 499.611 302.252 500.646 302.912 500.646Z" fill="#563D00"/>
<path d="M334.992 514.826C337.19 514.826 338.973 513.839 338.973 512.621C338.973 511.403 337.19 510.416 334.992 510.416C332.794 510.416 331.012 511.403 331.012 512.621C331.012 513.839 332.794 514.826 334.992 514.826Z" fill="#563D00"/>
<path d="M353.287 517.866C353.765 517.866 354.152 516.862 354.152 515.623C354.152 514.384 353.765 513.379 353.287 513.379C352.809 513.379 352.422 514.384 352.422 515.623C352.422 516.862 352.809 517.866 353.287 517.866Z" fill="#563D00"/>
<path d="M229.342 284.832C228.179 290.294 225.472 295.306 221.542 299.273C218.974 301.864 215.722 303.67 212.165 304.479L211.07 304.655L210.527 304.747L209.991 304.786C209.279 304.824 208.56 304.885 207.848 304.9L205.689 304.816C202.802 304.569 199.991 303.76 197.415 302.435C194.882 301.111 192.606 299.345 190.694 297.221C187.011 293.043 184.472 287.984 183.322 282.535C185.741 287.389 188.566 291.999 192.393 295.551C196.08 299.098 200.858 301.292 205.949 301.776L207.84 301.861C208.475 301.861 209.111 301.799 209.746 301.776H210.221L210.672 301.715L211.591 301.593C212.18 301.44 212.793 301.34 213.382 301.141C215.792 300.383 218.027 299.155 219.958 297.527C223.93 294.173 226.954 289.663 229.342 284.832Z" fill="#FFF09B"/>
<path d="M234.525 257.199C237.304 277.75 228.907 295.789 215.036 297.198C198.655 298.867 188.245 286.287 185.489 265.736C182.734 245.185 191.162 224.65 204.971 222.782C218.78 220.913 231.747 236.648 234.525 257.199Z" fill="black"/>
<path d="M327.353 250.691C300.883 237.674 293.673 213.356 293.673 213.356C292.364 209.038 290.687 198.693 290.818 194.98C291.392 179.046 286.768 190.784 292.264 214.221C292.264 214.221 298.587 239.979 325.065 253.003C325.065 253.003 343.719 264.289 361.041 248.225C363.009 246.403 365.343 244.588 367.54 242.184C366.086 243.531 364.647 244.718 363.353 245.913C346.015 261.977 327.353 250.691 327.353 250.691Z" fill="#FFF6CB"/>
<path d="M331.402 154.177C322.048 152.561 309.357 152.729 299.145 162.277C295.747 165.455 288.75 173.372 289.83 190.133C290.542 176.68 296.374 169.253 299.352 166.473C309.563 156.925 319.744 157.882 329.091 159.513C353.21 163.74 374.827 190.638 377.43 211.817C377.522 211.097 377.613 210.362 377.69 209.596C379.719 190.056 359.036 158.947 331.402 154.177Z" fill="#EFEDB4"/>
<path d="M300.118 166.473C295.74 170.57 285.153 184.704 293.834 213.356C293.834 213.356 301.649 237.666 328.119 250.69C328.119 250.69 346.781 261.976 364.134 245.912C369.806 240.667 378.027 234.634 378.027 215.094C378.027 193.44 355.576 164.023 329.857 159.513C320.51 157.882 310.329 156.964 300.118 166.473Z" fill="black"/>
<path d="M291.958 214.949C290.692 211.942 289.668 208.839 288.896 205.669C288.067 202.483 287.491 199.236 287.173 195.96C286.841 192.647 286.892 189.307 287.326 186.006C287.552 184.335 287.926 182.687 288.444 181.083C288.913 179.451 289.515 177.861 290.243 176.328C291.702 173.264 293.597 170.427 295.869 167.906C297.018 166.662 298.264 165.512 299.597 164.468C300.919 163.411 302.342 162.488 303.845 161.711C309.793 158.644 316.587 157.624 323.173 158.809C316.69 159.001 310.313 160.471 305.032 163.786C302.4 165.425 300.042 167.466 298.043 169.835C296.019 172.192 294.332 174.817 293.029 177.637C292.345 179.02 291.776 180.456 291.33 181.933C290.838 183.407 290.462 184.917 290.205 186.45C289.692 189.557 289.48 192.705 289.569 195.853C289.65 199.05 289.905 202.24 290.335 205.408C290.733 208.578 291.292 211.764 291.958 214.949Z" fill="black"/>
<path d="M185.489 265.736C184.629 259.442 184.816 253.049 186.04 246.816C183.887 253.825 183.255 261.212 184.187 268.485C186.966 289.036 196.994 300.215 213.275 297.925C214.649 297.726 215.992 297.35 217.271 296.807C216.528 296.989 215.773 297.119 215.013 297.198C198.655 298.867 188.267 286.287 185.489 265.736Z" fill="#FCF5BE"/>
<path d="M183.896 257.49C183.463 251.885 183.86 246.248 185.075 240.76C185.678 237.973 186.544 235.251 187.662 232.628C188.805 229.947 190.326 227.443 192.179 225.193C194.114 222.886 196.552 221.053 199.305 219.834C200.71 219.214 202.208 218.834 203.737 218.708C205.253 218.594 206.777 218.733 208.246 219.122C211.072 219.881 213.709 221.225 215.985 223.065C218.216 224.791 220.184 226.834 221.825 229.129C219.763 227.309 217.528 225.696 215.15 224.313C212.885 222.939 210.391 221.984 207.787 221.495C206.546 221.292 205.284 221.263 204.036 221.411C202.805 221.574 201.612 221.947 200.507 222.514C198.191 223.605 196.148 225.201 194.529 227.184C192.832 229.198 191.414 231.431 190.311 233.823C189.161 236.262 188.191 238.783 187.41 241.365C185.836 246.644 184.661 252.034 183.896 257.49Z" fill="#060211"/>
<path d="M373.97 313.598L373.893 313.652C370.464 316.01 366.744 318.353 362.74 320.643L361.937 321.102L359.556 322.411L358.431 323.009C357.665 323.422 356.9 323.82 356.134 324.226L354.841 324.877L352.483 326.033L351.09 326.684C350.286 327.059 349.482 327.45 348.656 327.802L348.441 327.901C357.114 325.398 366.506 320.375 375.309 314.663L374.651 313.131L373.97 313.598Z" fill="#D1B5C1"/>
</g>
<defs>
<clipPath id="clip0_556_2622">
<rect width="668" height="736" fill="white"/>
</clipPath>
</defs>
</svg>
