<svg width="668" height="736" viewBox="0 0 668 736" fill="none" xmlns="http://www.w3.org/2000/svg">
<path d="M416.575 123.067C419.522 124.254 422.4 125.609 425.232 127.034C428.064 128.458 430.866 129.966 433.652 131.536C436.439 133.105 439.118 134.775 441.751 136.566C443.067 137.462 444.361 138.389 445.616 139.376C446.888 140.345 448.071 141.423 449.153 142.6C446.581 140.724 443.795 139.185 441.116 137.577L432.894 132.86C430.162 131.275 427.414 129.706 424.696 128.075C421.979 126.444 419.231 124.805 416.575 123.067Z" fill="#FFF09B"/>
<path d="M374.91 706.475C374.91 706.475 373.9 706.766 375.056 708.359C376.212 709.952 377.222 708.252 374.91 706.475Z" fill="#F2CE1E"/>
<path d="M28.8963 375.128C28.8963 375.128 25.8344 371.652 25.1378 373.965C24.4412 376.277 28.1997 380.335 29.9067 380.771C31.6137 381.208 28.8963 375.128 28.8963 375.128Z" fill="#DABF34"/>
<path d="M44.9558 394.952C45.9154 394.952 46.6934 394.174 46.6934 393.214C46.6934 392.254 45.9154 391.476 44.9558 391.476C43.9961 391.476 43.2181 392.254 43.2181 393.214C43.2181 394.174 43.9961 394.952 44.9558 394.952Z" fill="#DABF34"/>
<path d="M90.302 469.398C91.342 469.398 92.1851 468.555 92.1851 467.515C92.1851 466.475 91.342 465.631 90.302 465.631C89.262 465.631 88.419 466.475 88.419 467.515C88.419 468.555 89.262 469.398 90.302 469.398Z" fill="#E1CA46"/>
<path d="M94.6422 455.724C95.3229 455.724 95.8746 455.172 95.8746 454.491C95.8746 453.81 95.3229 453.258 94.6422 453.258C93.9616 453.258 93.4098 453.81 93.4098 454.491C93.4098 455.172 93.9616 455.724 94.6422 455.724Z" fill="#E1CA46"/>
<path d="M91.5344 450.869C92.4518 450.869 93.1955 449.121 93.1955 446.964C93.1955 444.808 92.4518 443.059 91.5344 443.059C90.617 443.059 89.8734 444.808 89.8734 446.964C89.8734 449.121 90.617 450.869 91.5344 450.869Z" fill="#E1CA46"/>
<path d="M69.5425 497.752C70.8615 497.752 71.9308 495.777 71.9308 493.341C71.9308 490.906 70.8615 488.931 69.5425 488.931C68.2236 488.931 67.1543 490.906 67.1543 493.341C67.1543 495.777 68.2236 497.752 69.5425 497.752Z" fill="#E1CA46"/>
<path d="M44.5883 505.278C46.6641 505.278 48.3468 503.595 48.3468 501.519C48.3468 499.442 46.6641 497.759 44.5883 497.759C42.5126 497.759 40.8299 499.442 40.8299 501.519C40.8299 503.595 42.5126 505.278 44.5883 505.278Z" fill="#E1CA46"/>
<path d="M113.81 513.31C114.609 513.31 115.256 512.662 115.256 511.863C115.256 511.064 114.609 510.416 113.81 510.416C113.01 510.416 112.363 511.064 112.363 511.863C112.363 512.662 113.01 513.31 113.81 513.31Z" fill="#564A00"/>
<path d="M114.896 517.437C117.534 517.437 119.673 515.298 119.673 512.659C119.673 510.021 117.534 507.882 114.896 507.882C112.258 507.882 110.12 510.021 110.12 512.659C110.12 515.298 112.258 517.437 114.896 517.437Z" fill="#F2CE1E"/>
<path d="M119.459 544.987C120.208 543.155 120.127 541.388 119.278 541.041C118.429 540.693 117.133 541.897 116.384 543.728C115.635 545.56 115.716 547.327 116.565 547.674C117.414 548.022 118.71 546.818 119.459 544.987Z" fill="#F2CE1E"/>
<path d="M107.624 578.657C108.031 577.433 107.786 576.25 107.076 576.013C106.366 575.777 105.46 576.578 105.053 577.802C104.646 579.025 104.892 580.209 105.602 580.445C106.312 580.682 107.217 579.881 107.624 578.657Z" fill="#F2CE1E"/>
<path d="M34.6832 349.945C37.4776 349.945 39.7429 347.679 39.7429 344.884C39.7429 342.089 37.4776 339.823 34.6832 339.823C31.8888 339.823 29.6235 342.089 29.6235 344.884C29.6235 347.679 31.8888 349.945 34.6832 349.945Z" fill="#F3E5A6"/>
<path d="M34.3923 345.902C35.4323 345.902 36.2754 345.059 36.2754 344.019C36.2754 342.979 35.4323 342.135 34.3923 342.135C33.3523 342.135 32.5093 342.979 32.5093 344.019C32.5093 345.059 33.3523 345.902 34.3923 345.902Z" fill="#7C7121"/>
<path d="M54.348 428.121C54.348 428.121 53.0467 428.496 53.6438 430.02C53.7177 430.301 53.8656 430.558 54.0721 430.763C54.2786 430.968 54.5362 431.114 54.8181 431.186C55.1001 431.258 55.3961 431.253 55.6755 431.172C55.955 431.09 56.2076 430.936 56.4071 430.724C56.9736 429.966 55.6187 426.712 54.348 428.121Z" fill="#AE8400"/>
<path d="M90.325 190.715C90.325 190.715 77.0135 196.358 74.9161 197.728C72.8188 199.099 69.9789 201.817 71.9538 204.099C75.207 207.858 80.7796 200.186 83.6731 197.66C86.0219 195.474 88.2429 193.156 90.325 190.715Z" fill="#EFF394"/>
<path d="M83.6501 197.66C85.9989 195.474 88.2199 193.156 90.302 190.715L87.6841 191.833C83.1908 196.09 77.0441 201.702 74.61 203.012C74.1208 203.285 73.5741 203.439 73.0142 203.462C72.4543 203.484 71.897 203.375 71.3873 203.142C71.5011 203.495 71.6861 203.82 71.9308 204.099C75.1841 207.858 80.7566 200.186 83.6501 197.66Z" fill="#CCC487"/>
<path d="M74.0282 200.837C74.0282 199.849 74.6559 198.601 75.628 197.307C75.3218 197.476 75.0692 197.614 74.8626 197.728C72.7652 199.107 69.9253 201.817 71.9002 204.099C73.8751 206.381 76.6844 204.466 79.241 202.039C74.4339 204.283 74.0588 202.391 74.0282 200.837Z" fill="#F1EEDB"/>
<path d="M50.8805 122.508C50.8805 122.508 35.839 110.334 29.0417 107.44C22.2444 104.546 20.0704 109.178 21.6626 111.789C23.2548 114.4 42.7818 119.744 44.6649 120.472C46.5479 121.199 51.2862 123.213 50.8805 122.508Z" fill="#EFF394"/>
<path d="M28.1691 110.334C30.9171 109.461 37.2858 112.501 37.2858 112.501H37.5843C34.8924 110.555 32.0337 108.851 29.0417 107.409C22.2444 104.515 20.0704 109.147 21.6626 111.751C22.7419 113.519 32.1189 116.559 38.5947 118.557C27.0132 114.086 25.421 111.199 28.1691 110.334Z" fill="white"/>
<path d="M67.6595 238.822C68.5388 238.822 69.2517 238.109 69.2517 237.23C69.2517 236.35 68.5388 235.637 67.6595 235.637C66.7802 235.637 66.0673 236.35 66.0673 237.23C66.0673 238.109 66.7802 238.822 67.6595 238.822Z" fill="#DABF34"/>
<path d="M180.642 72.8542C182.959 72.8542 184.837 70.9757 184.837 68.6583C184.837 66.341 182.959 64.4624 180.642 64.4624C178.326 64.4624 176.448 66.341 176.448 68.6583C176.448 70.9757 178.326 72.8542 180.642 72.8542Z" fill="#BFBEAF"/>
<path d="M187.654 97.6005C189.134 97.6005 190.333 96.4658 190.333 95.0661C190.333 93.6664 189.134 92.5317 187.654 92.5317C186.174 92.5317 184.975 93.6664 184.975 95.0661C184.975 96.4658 186.174 97.6005 187.654 97.6005Z" fill="#A0A09C"/>
<path d="M190.188 85.0053C190.906 85.0053 191.489 84.5528 191.489 83.9946C191.489 83.4364 190.906 82.9839 190.188 82.9839C189.469 82.9839 188.886 83.4364 188.886 83.9946C188.886 84.5528 189.469 85.0053 190.188 85.0053Z" fill="#A0A09C"/>
<path d="M199.519 82.8385C199.959 82.8385 200.315 82.1255 200.315 81.2459C200.315 80.3664 199.959 79.6533 199.519 79.6533C199.079 79.6533 198.723 80.3664 198.723 81.2459C198.723 82.1255 199.079 82.8385 199.519 82.8385Z" fill="#A0A09C"/>
<path d="M83.9633 161.964C84.6187 160.637 84.6552 159.317 84.045 159.015C83.4348 158.714 82.4088 159.545 81.7534 160.872C81.0981 162.199 81.0615 163.519 81.6717 163.82C82.282 164.122 83.3079 163.291 83.9633 161.964Z" fill="#A0A09C"/>
<path d="M97.0115 171.109C97.4913 170.278 97.4322 169.345 96.8793 169.026C96.3265 168.707 95.4893 169.122 95.0095 169.953C94.5297 170.785 94.5889 171.717 95.1417 172.037C95.6945 172.356 96.5317 171.941 97.0115 171.109Z" fill="#A0A09C"/>
<path d="M153.805 46.1245C153.185 46.002 152.642 43.3757 151.853 35.7036C150.988 27.2811 151.31 23.3379 153.912 23.2231C158.145 23.0469 156.316 32.8093 155.811 35.9256C155.16 39.9378 154.349 46.2317 153.805 46.1245Z" fill="#EFF394"/>
<path d="M153.912 23.2229C151.922 23.3072 151.264 25.6578 151.455 30.5199C151.692 29.9533 153.177 26.6379 155.038 27.5643C155.688 27.8936 156.117 29.7006 156.4 31.99C156.867 28.0237 156.921 23.1004 153.912 23.2229Z" fill="white"/>
<path d="M70.553 389.73C70.553 389.73 69.2517 388.283 69.2517 389.875C69.2517 391.468 67.9504 394.944 66.075 393.352C64.1996 391.759 62.5998 384.669 67.3763 384.087C72.1528 383.505 79.0879 391.468 80.2514 396.384C81.4149 401.299 79.3788 404.347 77.7866 403.765C76.1945 403.183 71.9997 398.558 71.9997 396.529C71.9997 394.5 71.9997 389.447 70.553 389.73Z" fill="#DABF34"/>
<path d="M199.695 698.551C199.879 698.206 183.207 680.435 181.576 678.589C179.946 676.744 172.904 672.51 171.273 676.2C169.834 679.455 179.953 687.05 179.953 687.05C179.953 687.05 198.83 700.181 199.695 698.551Z" fill="#D3D253"/>
<path d="M176.7 681.843C176.869 679.868 179.219 678.934 184.309 681.553C182.931 680.067 181.921 678.972 181.576 678.589C179.954 676.744 172.904 672.51 171.273 676.2C170.255 678.497 175.009 682.969 177.887 685.389C177.114 683.827 176.639 682.533 176.7 681.843Z" fill="#FDFFF1"/>
<path d="M115.509 639.846C117.796 640.936 120.239 641.665 122.75 642.005C125.23 642.352 127.739 642.439 130.236 642.266L132.112 642.128L133.98 641.86C135.235 641.753 136.452 641.4 137.707 641.209C138.963 641.018 140.165 640.604 141.412 640.321C142.66 640.038 143.862 639.601 145.125 639.302C143.992 639.915 142.828 640.474 141.657 641.033C140.486 641.592 139.254 641.982 138.006 642.365C135.517 643.13 132.949 643.608 130.351 643.789C127.73 643.967 125.096 643.758 122.536 643.169C119.966 642.626 117.559 641.488 115.509 639.846Z" fill="#F2CE1E"/>
<path d="M563.468 497.101C564.867 497.101 566.001 495.448 566.001 493.41C566.001 491.372 564.867 489.72 563.468 489.72C562.068 489.72 560.934 491.372 560.934 493.41C560.934 495.448 562.068 497.101 563.468 497.101Z" fill="#F2CE1E"/>
<path d="M547.776 485.241C547.776 485.241 546.183 487.989 546.903 489.436C547.623 490.884 550.669 485.386 551.389 484.368C552.108 483.349 549.942 481.764 547.776 485.241Z" fill="#F2CE1E"/>
<path d="M517.976 609.242C517.976 609.242 517.471 602.948 519.507 597.757C521.543 592.565 523.748 592.098 525.37 593.775C527.391 595.873 522.11 603.614 522.11 603.614C522.11 603.614 518.267 610.689 517.976 609.242Z" fill="#F2CE1E"/>
<path d="M505.315 566.701C506.152 566.701 506.831 566.022 506.831 565.185C506.831 564.348 506.152 563.669 505.315 563.669C504.478 563.669 503.8 564.348 503.8 565.185C503.8 566.022 504.478 566.701 505.315 566.701Z" fill="#F2CE1E"/>
<path d="M506.693 644.7C506.693 644.7 501.197 648.023 496.857 643.544C492.517 639.065 498.013 629.509 503.945 628.636C509.877 627.764 513.345 630.665 512.625 635.152C511.906 639.639 508.431 642.38 506.257 642.809C504.083 643.238 499.896 642.373 500.898 643.245C501.901 644.118 502.912 644.984 506.693 644.7Z" fill="#F2CE1E"/>
<path d="M503.945 628.621C500.523 629.126 497.247 632.518 495.923 636.155C498.219 633.728 501.373 632.258 501.771 634.41C502.054 635.941 509.211 636.377 512.671 634.701C513.1 630.474 509.678 627.794 503.945 628.621Z" fill="#F8F4CF"/>
<path d="M504.236 637.166C505.276 637.166 506.119 636.323 506.119 635.283C506.119 634.242 505.276 633.399 504.236 633.399C503.196 633.399 502.353 634.242 502.353 635.283C502.353 636.323 503.196 637.166 504.236 637.166Z" fill="#977514"/>
<path d="M571.804 607.649C571.804 607.649 597.554 604.587 611.149 593.178C624.743 581.769 629.979 571.479 629.979 571.479C629.979 571.479 611.424 592.313 571.804 607.649Z" fill="#F2CE1E"/>
<path d="M540.251 614.311C541.291 614.311 542.134 613.468 542.134 612.427C542.134 611.387 541.291 610.544 540.251 610.544C539.211 610.544 538.368 611.387 538.368 612.427C538.368 613.468 539.211 614.311 540.251 614.311Z" fill="#F2CE1E"/>
<path d="M427.13 5.28313C427.13 5.28313 420.479 8.17739 420.915 11.3626C421.351 14.5478 426.694 17.1511 429.014 20.3364C429.014 20.3364 431.471 23.5139 431.762 26.9901C432.052 30.4663 433.063 34.5167 438.85 34.0803C444.637 33.6438 451.725 28.0008 451.143 18.7667C450.561 9.53264 439.424 2.09791 427.13 5.28313Z" fill="#C99712"/>
<path d="M426.663 8.03175C426.663 8.03175 432.734 6.7301 436.752 9.98423C440.771 13.2384 440.656 14.6549 439.141 15.9565C437.625 17.2582 442.715 17.8018 444.239 16.8217C445.762 15.8417 446.298 12.3731 443.044 9.33341C439.791 6.29367 427.965 3.69036 426.663 8.03175Z" fill="#9D7303"/>
<path d="M299.114 53.176C299.114 53.176 300.989 49.9984 309.065 49.8529C317.14 49.7074 316.582 52.9156 313.658 54.9141C310.734 56.9125 299.772 58.3902 298.18 57.2111C296.588 56.0319 297.522 53.9034 299.114 53.176Z" fill="#FFD629"/>
<path d="M300.989 57.2264C301.425 56.2157 303.454 52.1653 309.67 51.7289C312.586 51.5298 314.14 53.1913 313.114 55.274C313.324 55.1676 313.526 55.0474 313.719 54.9141C316.612 52.8927 317.194 49.7075 309.126 49.853C301.058 49.9984 299.175 53.176 299.175 53.176C297.583 53.9417 296.71 56.0703 298.302 57.2264C299.155 57.5875 300.083 57.7296 301.004 57.6399C300.97 57.5047 300.965 57.3638 300.989 57.2264Z" fill="#F8F4CF"/>
<path d="M335.42 48.6895C335.42 48.6895 331.08 49.8533 331.945 50.864C332.81 51.8747 336.43 51.4459 338.604 51.0095C340.778 50.5731 338.604 48.4062 335.42 48.6895Z" fill="#F2CE1E"/>
<path d="M397.04 12.0824C400.951 12.0824 410.642 15.1452 414.401 16.8603C416.422 17.8704 418.239 19.2463 419.759 20.9184C419.548 20.0981 419.245 19.3044 418.856 18.5524C407.106 8.12389 397.04 12.0824 397.04 12.0824Z" fill="#070400"/>
<path d="M438.85 34.0802C444.637 33.6438 451.725 28.0008 451.143 18.7667C451.001 16.6618 450.339 14.6252 449.214 12.8403C449.398 15.596 449.179 18.3637 448.563 21.0561C447.262 26.6991 439.018 29.3024 434.532 29.3024C433.649 29.3371 432.773 29.1306 431.999 28.7052C432.489 31.6607 434.02 34.4554 438.85 34.0802Z" fill="#483A17"/>
<path d="M435.956 7.31212C435.956 7.31212 443.909 9.47899 446.083 13.9659C446.083 13.9659 448.977 14.8311 446.367 11.2171C444.871 9.06421 442.918 7.2681 440.649 5.95687C436.325 4.31739 431.595 4.08164 427.13 5.28307C427.13 5.28307 420.479 8.17733 420.915 11.3626C421.068 12.534 421.902 13.6596 423.005 14.7086C422.629 13.9429 422.354 13.3839 422.354 13.3839C422.354 13.3839 426.556 4.84664 435.956 7.31212Z" fill="#F8F4CF"/>
<path d="M440.006 0.329079C440.006 0.329079 432.305 -0.536137 431.004 0.543468C429.702 1.62307 434.066 2.17436 436.86 2.93238C439.653 3.6904 445.104 7.38097 447.033 8.68262C448.962 9.98427 444.108 5.10691 442.264 3.91245C440.419 2.71799 440.962 2.38109 443.994 3.14677C447.025 3.91245 445.54 0.765515 440.006 0.329079Z" fill="#F8F4CF"/>
<path d="M180.642 70.2507C181.522 70.2507 182.235 69.5376 182.235 68.658C182.235 67.7785 181.522 67.0654 180.642 67.0654C179.763 67.0654 179.05 67.7785 179.05 68.658C179.05 69.5376 179.763 70.2507 180.642 70.2507Z" fill="#737242"/>
<path d="M490.197 95.7097C490.197 95.7097 478.631 90.5031 472.592 87.7544C466.552 85.0056 458.377 77.3335 464.738 75.603C471.099 73.8726 475.301 79.2247 477.904 81.9735C480.506 84.7223 492.517 95.7097 490.197 95.7097Z" fill="#F2CE1E"/>
<path d="M479.044 83.122C478.577 82.6626 478.187 82.2644 477.904 81.9735C475.301 79.2247 471.106 73.8726 464.738 75.603C461.89 76.3687 461.944 78.3518 463.421 80.534C463.613 80.457 463.813 80.4055 464.018 80.3809C466.613 80.1052 470.127 79.1941 479.044 83.122Z" fill="#FFFEE5"/>
<path d="M490.197 95.7096C491.636 95.7096 487.579 91.4984 483.668 87.6394C483.461 88.451 483.346 89.3392 482.535 89.1707C480.797 88.8798 471.107 86.7129 471.107 86.7129L470.999 86.9349C471.528 87.2259 472.048 87.4939 472.53 87.7006C478.631 90.5107 490.197 95.7096 490.197 95.7096Z" fill="#FFFEE5"/>
<path d="M548.204 81.828C548.204 81.828 546.183 52.7323 546.474 46.8136C546.765 40.8949 547.776 36.5382 551.97 36.3927C556.165 36.2472 554.573 50.5731 554.573 50.5731L548.204 81.828Z" fill="#D8D04B"/>
<path d="M551.971 36.3927C547.776 36.5382 546.758 40.8796 546.474 46.8136C546.406 48.1305 546.474 50.5884 546.574 53.6128L546.758 52.6021C546.758 52.6021 548.35 45.3664 551.243 44.9453C553.54 44.6084 554.175 47.7094 554.305 51.9742L554.588 50.5884C554.588 50.5884 556.165 36.2472 551.971 36.3927Z" fill="#FFFEE5"/>
<path d="M494.254 127.409C495.214 127.409 495.992 126.631 495.992 125.671C495.992 124.711 495.214 123.933 494.254 123.933C493.295 123.933 492.517 124.711 492.517 125.671C492.517 126.631 493.295 127.409 494.254 127.409Z" fill="#F2CE1E"/>
<path d="M600.068 211.892C600.368 210.896 599.587 209.78 598.324 209.399C597.061 209.019 595.794 209.518 595.494 210.514C595.194 211.51 595.975 212.626 597.238 213.007C598.501 213.387 599.768 212.888 600.068 211.892Z" fill="#F2CE1E"/>
<path d="M604.481 212.92C605.04 212.92 605.492 212.467 605.492 211.909C605.492 211.351 605.04 210.898 604.481 210.898C603.923 210.898 603.471 211.351 603.471 211.909C603.471 212.467 603.923 212.92 604.481 212.92Z" fill="#F2CE1E"/>
<path d="M579.596 233.034C582.074 233.034 584.082 231.025 584.082 228.547C584.082 226.069 582.074 224.06 579.596 224.06C577.119 224.06 575.111 226.069 575.111 228.547C575.111 231.025 577.119 233.034 579.596 233.034Z" fill="#F2CE1E"/>
<path d="M593.918 232.452C593.918 232.452 592.18 236.074 595.365 240.415C595.365 240.415 598.695 243.478 601.443 240.269C604.191 237.061 597.967 228.838 593.918 232.452Z" fill="#F2CE1E"/>
<path d="M629.359 274.71C630.399 274.71 631.242 273.866 631.242 272.826C631.242 271.786 630.399 270.943 629.359 270.943C628.319 270.943 627.476 271.786 627.476 272.826C627.476 273.866 628.319 274.71 629.359 274.71Z" fill="#F2CE1E"/>
<path d="M621.689 295.398C622.407 295.398 622.99 294.815 622.99 294.097C622.99 293.378 622.407 292.795 621.689 292.795C620.97 292.795 620.387 293.378 620.387 294.097C620.387 294.815 620.97 295.398 621.689 295.398Z" fill="#F2CE1E"/>
<path d="M651.06 469.613C651.06 469.613 651.06 470.478 655.538 466.428C660.016 462.377 665.382 456.589 667.112 454.851C668.842 453.113 668.13 448.197 664.05 449.644C659.25 451.367 649.881 468.457 651.06 469.613Z" fill="#F2CE1E"/>
<path d="M664.073 449.644C662.213 450.31 659.687 453.251 657.344 456.688C657.873 456.336 661.654 453.863 664.073 454.131C665.244 454.261 664.785 456.129 663.92 458.158C665.328 456.696 666.469 455.494 667.112 454.851C668.849 453.113 668.13 448.197 664.073 449.644Z" fill="#F8F4CF"/>
<path d="M624.873 317.388C624.873 317.388 619.668 315.367 620.242 317.825C620.637 319.112 621.392 320.26 622.417 321.132C623.442 322.004 624.696 322.565 626.029 322.748C628.639 323.032 629.504 321.301 628.777 320.283C628.05 319.264 624.873 317.388 624.873 317.388Z" fill="#F2CE1E"/>
<path d="M624.437 325.061C624.437 325.061 623.136 324.295 623.281 328.675C623.426 333.054 623.572 334.754 624.873 333.743C626.174 332.733 625.746 322.886 624.437 325.061Z" fill="#F2CE1E"/>
<path d="M629.979 324.915C629.979 324.915 628.532 324.195 628.678 326.362C628.823 328.529 628.815 336.316 627.805 337.939C626.794 339.563 623.465 339.096 622.163 338.23C620.862 337.365 619.867 333.598 619.867 328.966C619.867 324.333 619.102 323.032 618.566 325.903C618.03 328.774 618.711 355.856 618.711 355.856C618.711 355.856 618.711 366.277 619.576 365.55C620.441 364.822 620.732 348.046 620.732 348.046C620.732 348.046 620.441 339.509 621.605 340.52C622.768 341.53 626.083 342.403 627.966 340.229C629.849 338.054 630.515 330.413 629.979 324.915Z" fill="#F2CE1E"/>
<path d="M592.617 401.46C592.617 401.46 589.555 404.645 591.897 406.376C594.239 408.106 596.23 404.928 596.811 403.198C597.393 401.468 595.801 398.857 592.617 401.46Z" fill="#F2CE1E"/>
<path d="M594.783 446.75C596.381 446.75 597.676 445.454 597.676 443.855C597.676 442.257 596.381 440.961 594.783 440.961C593.185 440.961 591.89 442.257 591.89 443.855C591.89 445.454 593.185 446.75 594.783 446.75Z" fill="#F2CE1E"/>
<path d="M459.173 115.763C457.458 115.311 448.104 112.7 441.958 113.879C440.58 114.14 437.365 116.176 448.977 120.678C460.589 125.181 468.282 118.144 459.173 115.763Z" fill="#070400"/>
<path d="M216.872 118.151C217.832 118.151 218.61 117.373 218.61 116.413C218.61 115.453 217.832 114.675 216.872 114.675C215.912 114.675 215.134 115.453 215.134 116.413C215.134 117.373 215.912 118.151 216.872 118.151Z" fill="#BF9E19"/>
<path d="M518.841 187.239C519.961 187.239 520.87 186.33 520.87 185.21C520.87 184.089 519.961 183.181 518.841 183.181C517.721 183.181 516.812 184.089 516.812 185.21C516.812 186.33 517.721 187.239 518.841 187.239Z" fill="#DEBE13"/>
<path d="M168.127 435.533C169.725 435.533 171.021 434.237 171.021 432.638C171.021 431.04 169.725 429.744 168.127 429.744C166.529 429.744 165.234 431.04 165.234 432.638C165.234 434.237 166.529 435.533 168.127 435.533Z" fill="#4B2B00"/>
<path d="M168.311 434.017C169.008 434.017 169.574 433.451 169.574 432.753C169.574 432.055 169.008 431.49 168.311 431.49C167.613 431.49 167.048 432.055 167.048 432.753C167.048 433.451 167.613 434.017 168.311 434.017Z" fill="#A58650"/>
<path d="M176.371 145.854C176.371 145.854 172.972 149.184 173.263 150.631C173.554 152.079 177.091 149.33 178.032 147.806C178.974 146.282 177.818 144.912 176.371 145.854Z" fill="#FFFFBD"/>
</svg>
