<svg width="71" height="71" viewBox="0 0 71 71" fill="none" xmlns="http://www.w3.org/2000/svg">
<path fillRule="evenodd" clipRule="evenodd" d="M0 50.8833V66.2667C0 68.8808 2.11919 71 4.73333 71H20.1167V68.6333H4.73333C3.42626 68.6333 2.36667 67.5737 2.36667 66.2667V50.8833H0ZM0 20.1167H2.36667V4.73333C2.36667 3.42626 3.42626 2.36667 4.73333 2.36667H20.1167V0H4.73333C2.11919 0 0 2.11919 0 4.73333V20.1167ZM50.8833 0V2.36667H66.2667C67.5737 2.36667 68.6333 3.42626 68.6333 4.73333V20.1167H71V4.73333C71 2.11919 68.8808 0 66.2667 0H50.8833ZM71 50.8833H68.6333V66.2667C68.6333 67.5737 67.5737 68.6333 66.2667 68.6333H50.8833V71H66.2667C68.8808 71 71 68.8808 71 66.2667V50.8833Z" fill="white"/>
<path fillRule="evenodd" clipRule="evenodd" d="M9 46.4457V57.3913C9 59.9366 11.0634 62 13.6087 62H24.5543V60.8478H13.6087C11.6997 60.8478 10.1522 59.3003 10.1522 57.3913V46.4457H9ZM9 24.5543H10.1522V13.6087C10.1522 11.6997 11.6997 10.1522 13.6087 10.1522H24.5543V9H13.6087C11.0634 9 9 11.0634 9 13.6087V24.5543ZM46.4457 9V10.1522H57.3913C59.3003 10.1522 60.8478 11.6997 60.8478 13.6087V24.5543H62V13.6087C62 11.0634 59.9366 9 57.3913 9H46.4457ZM62 46.4457H60.8478V57.3913C60.8478 59.3003 59.3003 60.8478 57.3913 60.8478H46.4457V62H57.3913C59.9366 62 62 59.9366 62 57.3913V46.4457Z" fill="white"/>
</svg>
