<svg width="16" height="14" viewBox="0 0 16 14" fill="none" xmlns="http://www.w3.org/2000/svg">
<path d="M1.07808 6.01822C6.00164 3.74158 12.3727 0.965922 13.2525 0.581668C15.5593 -0.423758 16.2672 -0.231261 15.9143 1.99578C15.6607 3.59646 14.9296 8.89531 14.3463 12.1937C14.0005 14.1497 13.2243 14.3815 12.0043 13.5352C11.4176 13.128 8.45568 11.069 7.81259 10.5856C7.22584 10.1451 6.41652 9.61495 7.43152 8.57103C7.79286 8.19936 10.1603 5.82276 12.005 3.97331C12.2466 3.73047 11.943 3.33141 11.6641 3.52613C9.17766 5.25934 5.73046 7.66481 5.29164 7.97799C4.62882 8.45109 3.99207 8.66802 2.84957 8.323C1.98601 8.06239 1.14288 7.75143 0.814641 7.63298C-0.449708 7.17691 -0.149645 6.58609 1.07808 6.01822Z" fill="#F1D51A"/>
</svg>
