<svg width="16" height="14" viewBox="0 0 16 14" fill="none" xmlns="http://www.w3.org/2000/svg">
<path fillRule="evenodd" clipRule="evenodd" d="M16 1.65741C15.4108 1.93882 14.7784 2.12799 14.1148 2.21458C14.7925 1.77693 15.3129 1.08517 15.5586 0.258817C14.9233 0.664467 14.2193 0.959051 13.472 1.11717C12.8744 0.429167 12.0198 0 11.0767 0C9.26213 0 7.792 1.58305 7.792 3.53505C7.792 3.8127 7.82212 4.08188 7.87671 4.3407C5.14917 4.19294 2.72753 2.78682 1.10871 0.647525C0.827292 1.16894 0.664467 1.77694 0.664467 2.42447C0.664467 3.65082 1.42306 4.73129 2.304 5.36659C1.76565 5.34775 0.994825 5.18775 0.994825 4.92235V4.96941C0.994825 6.68047 1.94824 8.10823 3.44941 8.43482C3.17459 8.51388 2.79624 8.55811 2.496 8.55811C2.28423 8.55811 2.03388 8.53553 1.83247 8.49317C2.2513 9.89741 3.44188 10.9195 4.87812 10.9496C3.75435 11.8955 2.32753 12.4612 0.78965 12.4612C0.524233 12.4612 0.256 12.4442 0 12.4122C1.45412 13.4136 3.17647 14 5.03058 14C11.072 14 14.3727 8.61553 14.3727 3.94541C14.3727 3.79199 14.3689 3.63764 14.3614 3.48611C15.0033 2.98823 15.5605 2.36611 16 1.65741Z" fill="#F1D51A"/>
</svg>
